<svg width="24" height="24" viewBox="0 0 24 24" fill="none" xmlns="http://www.w3.org/2000/svg">
<path fill-rule="evenodd" clip-rule="evenodd" d="M10.8887 12.1578L13.7585 10.7644V11.6022L10.8887 12.9961V12.1578ZM13.306 15.9699C13.0564 15.9699 12.8534 15.7672 12.8534 15.5174C12.8534 15.2678 13.0565 15.0649 13.306 15.0649C13.5558 15.0649 13.7588 15.2681 13.7585 15.5182C13.758 15.7675 13.5552 15.9699 13.306 15.9699ZM9.82742 17.7686C9.57787 17.7686 9.37487 17.5656 9.37487 17.3161C9.37487 17.0665 9.57787 16.8635 9.82742 16.8635C10.077 16.8635 10.28 17.0665 10.28 17.3161C10.28 17.5656 10.0769 17.7686 9.82742 17.7686ZM10.28 11.9674V16.3562C9.58439 16.0266 8.76604 16.5334 8.76604 17.3161C8.76604 17.9012 9.24196 18.3774 9.82742 18.3774C10.4126 18.3774 10.8888 17.9012 10.8888 17.3161V13.6727L13.7586 12.2791V14.5575C13.0593 14.2274 12.2446 14.7376 12.2446 15.5174C12.2446 16.1028 12.7206 16.5788 13.306 16.5788C13.8544 16.5788 14.307 16.1609 14.3617 15.6266H14.3674V10.2782C14.3674 10.0537 14.1319 9.90672 13.9297 10.004L10.4511 11.6934C10.3998 11.7185 10.3566 11.7575 10.3263 11.8059C10.2961 11.8543 10.28 11.9103 10.28 11.9674ZM21.3076 10.794C21.5219 10.5099 21.4663 10.1018 21.1824 9.8868L17.7067 7.25165C17.6692 7.22325 17.6389 7.18657 17.618 7.14449C17.5971 7.1024 17.5862 7.05605 17.5861 7.00906V3.83319C17.5861 3.80876 17.5645 3.78768 17.5409 3.78768H16.6165C16.6046 3.78801 16.5932 3.79291 16.5847 3.80137C16.5763 3.80984 16.5714 3.82122 16.571 3.83319V5.77834C16.571 6.02808 16.2817 6.17117 16.0828 6.02069L12.5214 3.32055C12.205 3.08069 11.7966 3.08069 11.4799 3.32055L2.81855 9.8868C2.68156 9.99063 2.59319 10.1425 2.56953 10.3147C2.49042 10.8903 3.1474 11.2621 3.6011 10.9186L11.5631 4.88247C11.8247 4.68432 12.1763 4.6838 12.4381 4.88247L20.4001 10.9186C20.6842 11.134 21.0918 11.0774 21.3076 10.794ZM18.51 19.9484V10.2497L12.0704 5.36794C12.0264 5.33453 11.9745 5.33453 11.9308 5.36794L5.49148 10.2497V19.9484C5.49148 20.4493 5.89905 20.8571 6.40046 20.8571H17.6008C18.1021 20.8571 18.51 20.4493 18.51 19.9484ZM22.0348 10.2319C21.9891 9.89861 21.8169 9.60384 21.5501 9.40186L18.1952 6.85796V3.83319C18.1952 3.47237 17.9014 3.1789 17.5409 3.1789H16.6165C16.256 3.1789 15.9622 3.47237 15.9622 3.83319V5.16543L12.8894 2.8356C12.3577 2.4324 11.6433 2.4324 11.112 2.8356L2.45082 9.40186C1.57036 10.0693 1.92182 11.4908 3.03882 11.6464C3.20217 11.6693 3.36844 11.6597 3.52805 11.6181C3.68766 11.5765 3.83748 11.5037 3.96887 11.404L4.88246 10.7112V19.9484C4.88246 20.7849 5.56348 21.4659 6.40051 21.4659H17.6008C18.4379 21.4659 19.1189 20.7849 19.1189 19.9484V10.7112L20.0327 11.404C20.5842 11.8225 21.3745 11.7133 21.7926 11.1617C21.9947 10.8952 22.0809 10.565 22.0348 10.2319ZM17.3343 14.3476C17.3343 11.4069 14.9415 9.0146 12.0005 9.0146C9.05975 9.0146 6.66743 11.4069 6.66743 14.3476C6.66743 17.2883 9.05975 19.6811 12.0005 19.6811C14.9414 19.6811 17.3343 17.2883 17.3343 14.3476ZM6.05865 14.3476C6.05865 17.6242 8.72414 20.2899 12.0005 20.2899C15.2771 20.2899 17.9431 17.6242 17.9431 14.3476C17.9431 11.0713 15.2771 8.40552 12.0005 8.40552C8.72414 8.40552 6.05865 11.0713 6.05865 14.3476Z" fill="black"/>
</svg>
