<svg width="24" height="24" viewBox="0 0 24 24" fill="none" xmlns="http://www.w3.org/2000/svg">
<path d="M22.1247 20.5326H21.7497V7.66939C21.749 7.41049 21.6816 7.15613 21.5541 6.93083C21.4265 6.70553 21.2431 6.51691 21.0214 6.38314L12.7714 1.43314C12.5384 1.29287 12.2716 1.21875 11.9997 1.21875C11.7277 1.21875 11.4609 1.29287 11.2279 1.43314L2.97791 6.38314C2.75622 6.51688 2.57274 6.7055 2.44517 6.9308C2.31761 7.1561 2.25027 7.41048 2.24966 7.66939V20.5326H1.87466C0.396407 20.5694 0.387032 22.7429 1.87466 22.7826H22.1247C23.6007 22.7466 23.6142 20.5724 22.1247 20.5326ZM2.99966 7.66939C2.99966 7.40764 3.13916 7.16089 3.36378 7.02626L11.6138 2.07626C11.7303 2.00633 11.8637 1.96938 11.9997 1.96938C12.1356 1.96938 12.269 2.00633 12.3855 2.07626L20.6355 7.02626C20.8605 7.16126 20.9997 7.40764 20.9997 7.66939V20.5326H20.2497V8.53264C20.2497 7.91201 19.7449 7.40764 19.1247 7.40764H4.87466C4.25441 7.40764 3.74966 7.91201 3.74966 8.53264V20.5326H2.99966V7.66939ZM4.49966 11.1576V10.0326H19.4997V11.1576H4.49966ZM19.4997 11.9076V20.5326H4.49966V11.9076H19.4997ZM4.49966 9.28264V8.53264C4.49966 8.32564 4.66803 8.15764 4.87466 8.15764H19.1247C19.3313 8.15764 19.4997 8.32564 19.4997 8.53264V9.28264H4.49966ZM22.1247 22.0326H1.87466C1.38978 22.0259 1.37591 21.2916 1.87466 21.2826H22.1247C22.6095 21.289 22.6238 22.0233 22.1247 22.0326Z" fill="black"/>
<path d="M7.125 18.6563H7.5V19.4063C7.5 19.8195 7.83637 20.1563 8.25 20.1563H9.375C9.78863 20.1563 10.125 19.8195 10.125 19.4063V18.6563H13.875V19.4063C13.875 19.8195 14.2114 20.1563 14.625 20.1563H15.75C16.1636 20.1563 16.5 19.8195 16.5 19.4063V18.6563H16.875C17.2886 18.6563 17.625 18.3195 17.625 17.9063V17.1563C17.6245 16.7005 17.4583 16.2605 17.1573 15.9183C16.8564 15.576 16.4412 15.355 15.9893 15.2963L15.2715 13.86C15.1475 13.6104 14.9562 13.4004 14.719 13.2539C14.4819 13.1075 14.2085 13.0303 13.9297 13.0313H10.0703C9.79159 13.0304 9.51825 13.1076 9.28119 13.254C9.04413 13.4005 8.8528 13.6104 8.72888 13.86L8.01075 15.2963C7.55874 15.355 7.14352 15.5761 6.84255 15.9184C6.54157 16.2607 6.37539 16.7008 6.375 17.1566V17.9066C6.375 18.3199 6.71137 18.6563 7.125 18.6563ZM8.25 19.4063V18.6563H9.375L9.37575 19.4063H8.25ZM13.125 17.9063H10.875V17.5313H13.125V17.9063ZM15.75 19.4063H14.625V18.6563H15.75V19.4063ZM9.39975 14.1956C9.4617 14.0709 9.55733 13.9659 9.67583 13.8927C9.79432 13.8195 9.93095 13.7809 10.0703 13.7813H13.9297C14.0691 13.7808 14.2058 13.8194 14.3244 13.8926C14.443 13.9658 14.5386 14.0708 14.6006 14.1956L15.1432 15.2813H8.85675L9.39975 14.1956ZM7.125 17.1563C7.125 16.5356 7.62975 16.0313 8.25 16.0313H15.75C16.3702 16.0313 16.875 16.5356 16.875 17.1563V17.9063H13.875V17.1563C13.875 17.0568 13.8355 16.9614 13.7652 16.8911C13.6948 16.8208 13.5995 16.7813 13.5 16.7813H10.5C10.4005 16.7813 10.3052 16.8208 10.2348 16.8911C10.1645 16.9614 10.125 17.0568 10.125 17.1563V17.9063H7.125V17.1563Z" fill="black"/>
<path d="M9.37469 16.7812H8.24969C7.75731 16.7891 7.75656 17.523 8.24969 17.5312H9.37469C9.86744 17.523 9.86781 16.7895 9.37469 16.7812ZM14.6247 17.5312H15.7497C16.2424 17.523 16.2428 16.7895 15.7497 16.7812H14.6247C14.1323 16.7891 14.1316 17.523 14.6247 17.5312Z" fill="black"/>
</svg>
