<svg width="24" height="24" viewBox="0 0 24 24" fill="none" xmlns="http://www.w3.org/2000/svg">
<path d="M20.1754 20.4449C19.9594 20.4449 19.7569 20.3114 19.6791 20.0964L18.0951 15.7284C18.0714 15.6632 18.0608 15.5939 18.0639 15.5246C18.067 15.4552 18.0838 15.3872 18.1132 15.3243C18.1426 15.2615 18.1841 15.205 18.2354 15.1582C18.2866 15.1114 18.3466 15.0752 18.4119 15.0516C18.6855 14.9527 18.9889 15.0938 19.0887 15.3684L20.6727 19.7364C20.6964 19.8016 20.707 19.8709 20.7039 19.9402C20.7008 20.0096 20.684 20.0776 20.6546 20.1405C20.6252 20.2033 20.5837 20.2598 20.5324 20.3066C20.4812 20.3534 20.4212 20.3896 20.3559 20.4132C20.298 20.434 20.237 20.4447 20.1754 20.4449ZM21.0634 13.0769C20.8244 13.0769 20.6074 12.9137 20.5498 12.6708L19.9412 10.1018C19.9144 9.99062 19.8675 9.88523 19.8029 9.7908L18.9149 8.48712C18.8353 8.36979 18.723 8.27836 18.592 8.22411C18.461 8.16986 18.3169 8.15516 18.1777 8.18184L16.4132 8.51784C16.2772 8.5441 16.1514 8.6085 16.0506 8.70352C15.9498 8.79854 15.8781 8.92026 15.8439 9.05448L15.3917 10.7873C15.3034 11.1243 15.1038 11.4217 14.8253 11.6311L13.0772 12.9463C13.0218 12.9881 12.9587 13.0185 12.8916 13.0359C12.8244 13.0532 12.7545 13.0571 12.6859 13.0474C12.6172 13.0377 12.5511 13.0145 12.4914 12.9792C12.4317 12.9439 12.3796 12.8972 12.338 12.8417C12.2962 12.7863 12.2658 12.7232 12.2484 12.6561C12.2311 12.5889 12.2272 12.519 12.2369 12.4504C12.2466 12.3817 12.2698 12.3156 12.3051 12.2559C12.3404 12.1962 12.3871 12.1441 12.4426 12.1025L14.1917 10.7873C14.2801 10.721 14.3434 10.627 14.3713 10.5214L14.8215 8.7924C14.9895 8.12616 15.5377 7.60968 16.2164 7.48104L17.9809 7.14504C18.3223 7.07969 18.6754 7.11568 18.9966 7.24856C19.3178 7.38145 19.5931 7.60542 19.7885 7.89288L20.6765 9.19656C20.8138 9.39816 20.9117 9.62088 20.9684 9.85704L21.578 12.4279C21.5964 12.5055 21.597 12.5862 21.5798 12.664C21.5625 12.7418 21.5279 12.8147 21.4785 12.8772C21.4291 12.9397 21.3662 12.9903 21.2945 13.025C21.2227 13.0598 21.1441 13.0778 21.0644 13.0778L21.0634 13.0769Z" fill="black"/>
<path d="M14.1677 20.4199C14.1149 20.4199 14.0612 20.4123 14.0084 20.395C13.73 20.3067 13.5764 20.011 13.6637 19.7326L15.0154 15.4538C15.1738 14.9508 15.5127 14.5284 15.9687 14.2635L17.2378 13.5262C17.5767 13.3294 17.7687 12.9761 17.7649 12.6055L16.4429 12.737C16.154 12.7658 15.8938 12.5547 15.865 12.2638C15.8513 12.1244 15.8934 11.9853 15.9821 11.8769C16.0708 11.7686 16.1989 11.6998 16.3383 11.6858L18.1297 11.5082C18.2441 11.4966 18.3592 11.5228 18.4573 11.5828C18.5554 11.6428 18.6312 11.7333 18.673 11.8404C19.0561 12.8186 18.6759 13.9111 17.7668 14.4391L16.4977 15.1764C16.2699 15.3083 16.0996 15.5206 16.0205 15.7716L14.6689 20.0503C14.5978 20.2759 14.3895 20.419 14.1658 20.4199H14.1677ZM16.5322 6.57193C15.5597 6.57193 14.7677 5.78089 14.7677 4.80745C14.7677 3.83401 15.5588 3.04297 16.5322 3.04297C17.5057 3.04297 18.2967 3.83401 18.2967 4.80745C18.2967 5.78089 17.5057 6.57193 16.5322 6.57193ZM16.5322 4.09993C16.1415 4.09993 15.8237 4.41769 15.8237 4.80841C15.8237 5.19913 16.1415 5.51689 16.5322 5.51689C16.9229 5.51689 17.2407 5.19913 17.2407 4.80841C17.2407 4.41769 16.9229 4.09993 16.5322 4.09993ZM11.1745 15.9867C11.0074 15.3867 10.4564 14.9652 9.83333 14.9623L9.11909 14.9595L11.4356 13.8046C11.5608 13.7419 11.6561 13.6322 11.7006 13.4994C11.7451 13.3665 11.735 13.2215 11.6727 13.0961C11.6101 12.9708 11.5003 12.8755 11.3675 12.8311C11.2347 12.7866 11.0896 12.7966 10.9642 12.859L7.04645 14.8116L5.64485 12.9953C5.59352 12.9282 5.52671 12.8746 5.45014 12.839C5.37357 12.8034 5.28952 12.7869 5.20517 12.7908C5.12076 12.7943 5.03843 12.818 4.96509 12.8599C4.89175 12.9019 4.82955 12.9608 4.78373 13.0318L4.22117 13.9015L2.69093 14.707C2.60575 14.7518 2.53443 14.819 2.48469 14.9014C2.43494 14.9838 2.40867 15.0782 2.40869 15.1745V15.7543C2.40869 16.0078 2.58917 16.2257 2.83781 16.2727L4.07621 16.5089L5.50565 20.083C5.57861 20.2644 5.74565 20.3911 5.94053 20.4123C6.03619 20.4223 6.13277 20.406 6.21988 20.3653C6.30699 20.3245 6.38134 20.2608 6.43493 20.1809L7.16933 19.0855L9.34661 18.6478L10.369 20.2049C10.4171 20.2781 10.4826 20.3382 10.5597 20.3798C10.6368 20.4213 10.723 20.443 10.8106 20.443C10.9362 20.4432 11.0578 20.3985 11.1534 20.317C11.2489 20.2355 11.3123 20.1226 11.3319 19.9985L11.6353 18.113C11.6669 17.9153 11.6554 17.7099 11.6017 17.5169L11.1764 15.9857L11.1745 15.9867ZM3.70949 15.3646L4.83461 14.7723C4.91429 14.73 4.98245 14.6676 5.03237 14.5918L5.26469 14.2318L6.16901 15.4039L5.12741 16.2958L4.94789 15.8475C4.91495 15.7651 4.86179 15.6924 4.79334 15.636C4.72488 15.5797 4.64333 15.5414 4.55621 15.5249L3.70853 15.3636L3.70949 15.3646ZM10.5908 17.946L10.5034 18.4875L10.0321 17.7694C9.97443 17.6812 9.89163 17.6123 9.7944 17.5718C9.69717 17.5312 9.59 17.5208 9.48677 17.5419L6.74693 18.0929C6.61034 18.1203 6.49019 18.2007 6.41285 18.3166L6.11429 18.761L5.54309 17.3316L7.08965 16.0068L9.83045 16.0174C9.98309 16.0174 10.1175 16.1211 10.1588 16.2679L10.5841 17.7991C10.5975 17.8462 10.6004 17.897 10.5917 17.945L10.5908 17.946Z" fill="black"/>
</svg>
