<svg width="24" height="24" viewBox="0 0 24 24" fill="none" xmlns="http://www.w3.org/2000/svg">
<g clip-path="url(#clip0_266_2243)">
<path d="M20.8319 21.141H3.57717C3.21623 21.1363 3.23029 20.6066 3.57717 20.602H20.8319C21.1928 20.6066 21.1787 21.1363 20.8319 21.141ZM21.3615 23.4941H3.05686C-0.580644 23.3066 -0.346269 18.1223 3.30061 18.2441V17.7379C3.30061 16.7207 4.13029 15.891 5.14748 15.891H6.80217C6.01936 14.9582 6.76467 13.5145 7.99279 13.5332H16.2615V6.02852C16.2615 5.58789 16.6225 5.22695 17.0678 5.22695H17.6256V4.94102C16.8615 4.80508 16.2709 4.08789 16.2709 3.22539C16.2709 2.33945 17.5412 0.778516 17.6865 0.600391C17.7897 0.469141 18.0006 0.469141 18.1037 0.600391C18.249 0.773828 19.5194 2.33945 19.5194 3.22539C19.5194 4.08789 18.9334 4.80039 18.1694 4.94102V5.22695H18.7272C19.1678 5.22695 19.5287 5.58789 19.5287 6.02852V13.5941C21.7084 14.0301 22.3412 16.9363 20.574 18.2488H21.3662C24.8444 18.3941 24.835 23.3535 21.3615 23.4941ZM17.6209 4.38789V3.90039C17.6209 3.75039 17.7428 3.6332 17.8881 3.6332C18.0334 3.6332 18.1553 3.75508 18.1553 3.90039V4.38789C18.624 4.25195 18.9709 3.78789 18.9709 3.22539C18.9709 2.7707 18.3709 1.83789 17.8881 1.20508C17.4053 1.83789 16.8053 2.7707 16.8053 3.22539C16.81 3.78789 17.1569 4.25195 17.6209 4.38789ZM16.8006 13.5379H18.985V6.02852C18.985 5.8832 18.8678 5.76602 18.7225 5.76602H17.0725C16.9272 5.76602 16.8053 5.8832 16.8053 6.02852V13.5379H16.8006ZM3.83498 18.2488H18.9803C20.1194 18.2535 21.0662 17.302 21.0615 16.1629C21.0897 15.0426 20.0912 14.0535 18.9756 14.077H7.99279C6.74123 14.0957 6.69904 15.8488 7.92717 15.8957H15.0756C15.2256 15.8957 15.3428 16.0176 15.3428 16.1629C15.3428 16.3082 15.2209 16.4301 15.0756 16.4301H5.14748C4.42561 16.4301 3.83498 17.016 3.83498 17.7379V18.2488ZM23.4475 20.8691C23.4475 19.7207 22.51 18.7832 21.3615 18.7832H3.05686C0.291231 18.891 0.295918 22.852 3.05686 22.9551H21.3615C22.51 22.9598 23.4475 22.0223 23.4475 20.8691ZM0.0334182 7.47695C0.0240432 7.36445 0.0849807 7.25664 0.183418 7.20977C1.32248 6.65664 2.65373 6.62852 3.80686 7.11602C3.90998 5.70508 4.79592 4.47695 6.12717 3.93789C6.19279 3.90977 6.26311 3.90977 6.32873 3.93789C7.65529 4.47695 8.54123 5.70508 8.64904 7.11133C9.79279 6.61914 11.1381 6.65664 12.2725 7.20508C12.3756 7.25195 12.4365 7.35977 12.4225 7.47227C12.1975 10.416 8.89748 12.3238 6.23029 11.0582C3.55373 12.3285 0.258418 10.4207 0.0334182 7.47695ZM6.52092 10.6082C7.00373 10.8145 7.50998 10.9176 8.02561 10.9176C9.96623 10.9176 11.5834 9.51133 11.86 7.61289C9.58654 6.5957 6.85842 8.16133 6.52092 10.6082ZM4.33654 7.37383C5.19904 7.88008 5.86467 8.68633 6.22561 9.61445C6.58654 8.68633 7.25686 7.88008 8.11936 7.37383C8.11467 6.11289 7.37404 4.98789 6.22561 4.47695C5.07717 4.98789 4.34123 6.11289 4.33654 7.37383ZM0.591231 7.61289C0.900606 10.0645 3.66154 11.6207 5.93498 10.6082C5.60217 8.16602 2.87404 6.60039 0.591231 7.61289Z" fill="black"/>
</g>
<defs>
<clipPath id="clip0_266_2243">
<rect width="24" height="24" fill="white"/>
</clipPath>
</defs>
</svg>
