<svg width="24" height="24" viewBox="0 0 24 24" fill="none" xmlns="http://www.w3.org/2000/svg">
<path d="M20.628 6.105C20.5999 6.07207 20.5649 6.04563 20.5256 6.02751C20.4862 6.00938 20.4434 6 20.4 6H1.20005C0.961354 6 0.732435 6.09482 0.563653 6.2636C0.39487 6.43239 0.300049 6.66131 0.300049 6.9V15.9C0.300049 15.9796 0.331656 16.0559 0.387917 16.1121C0.444178 16.1684 0.520484 16.2 0.600049 16.2H2.12405C2.19974 16.6964 2.45077 17.1492 2.83162 17.4763C3.21248 17.8035 3.69796 17.9834 4.20005 17.9834C4.70214 17.9834 5.18762 17.8035 5.56847 17.4763C5.94933 17.1492 6.20036 16.6964 6.27605 16.2H17.724C17.7997 16.6964 18.0508 17.1492 18.4316 17.4763C18.8125 17.8035 19.298 17.9834 19.8 17.9834C20.3021 17.9834 20.7876 17.8035 21.1685 17.4763C21.5493 17.1492 21.8004 16.6964 21.876 16.2H23.4C23.4796 16.2 23.5559 16.1684 23.6122 16.1121C23.6684 16.0559 23.7 15.9796 23.7 15.9V9.813C23.7001 9.7415 23.6745 9.67234 23.628 9.618L20.628 6.105ZM11.7 6.6H16.5V11.7H11.7V6.6ZM6.30005 6.6H11.1V11.7H6.30005V6.6ZM0.900049 6.9C0.900049 6.82043 0.931656 6.74413 0.987917 6.68787C1.04418 6.63161 1.12048 6.6 1.20005 6.6H5.70005V11.7H0.900049V6.9ZM4.20005 17.4C3.90338 17.4 3.61337 17.312 3.36669 17.1472C3.12002 16.9824 2.92776 16.7481 2.81423 16.474C2.7007 16.1999 2.67099 15.8983 2.72887 15.6074C2.78675 15.3164 2.92961 15.0491 3.13939 14.8393C3.34917 14.6296 3.61644 14.4867 3.90741 14.4288C4.19838 14.3709 4.49998 14.4006 4.77407 14.5142C5.04816 14.6277 5.28243 14.82 5.44725 15.0666C5.61208 15.3133 5.70005 15.6033 5.70005 15.9C5.70005 16.2978 5.54201 16.6794 5.26071 16.9607C4.9794 17.242 4.59787 17.4 4.20005 17.4ZM19.8 17.4C19.5034 17.4 19.2134 17.312 18.9667 17.1472C18.72 16.9824 18.5278 16.7481 18.4142 16.474C18.3007 16.1999 18.271 15.8983 18.3289 15.6074C18.3867 15.3164 18.5296 15.0491 18.7394 14.8393C18.9492 14.6296 19.2164 14.4867 19.5074 14.4288C19.7984 14.3709 20.1 14.4006 20.3741 14.5142C20.6482 14.6277 20.8824 14.82 21.0473 15.0666C21.2121 15.3133 21.3 15.6033 21.3 15.9C21.3 16.2978 21.142 16.6794 20.8607 16.9607C20.5794 17.242 20.1979 17.4 19.8 17.4ZM23.1 15.6H21.876C21.8004 15.1036 21.5493 14.6508 21.1685 14.3237C20.7876 13.9965 20.3021 13.8166 19.8 13.8166C19.298 13.8166 18.8125 13.9965 18.4316 14.3237C18.0508 14.6508 17.7997 15.1036 17.724 15.6H6.27605C6.20036 15.1036 5.94933 14.6508 5.56847 14.3237C5.18762 13.9965 4.70214 13.8166 4.20005 13.8166C3.69796 13.8166 3.21248 13.9965 2.83162 14.3237C2.45077 14.6508 2.19974 15.1036 2.12405 15.6H0.900049V12.3H23.1V15.6ZM23.1 11.7H17.1V6.6H20.262L23.1 9.924V11.7Z" fill="black"/>
</svg>
