<svg width="24" height="24" viewBox="0 0 24 24" fill="none" xmlns="http://www.w3.org/2000/svg">
<g clip-path="url(#clip0_266_2368)">
<path fill-rule="evenodd" clip-rule="evenodd" d="M20.253 16.3357C21.8755 16.565 23.125 17.961 23.125 19.6465C23.125 21.492 21.6268 22.9902 19.7812 22.9902C17.9357 22.9902 16.4373 21.492 16.4373 19.6465C16.4373 18.0777 17.52 16.7597 18.9783 16.3997C19.1793 16.3502 19.3022 16.1467 19.2525 15.9457C19.203 15.745 18.9995 15.622 18.7987 15.6717C17.0133 16.1122 15.6873 17.7257 15.6873 19.6465C15.6873 21.906 17.5217 23.7402 19.7812 23.7402C22.0405 23.7402 23.875 21.906 23.875 19.6465C23.875 17.5827 22.3445 15.874 20.358 15.593C20.153 15.5642 19.963 15.707 19.934 15.912C19.9053 16.1167 20.048 16.3067 20.253 16.3357ZM7.3255 20.8847C6.833 22.118 5.627 22.9902 4.21875 22.9902C2.37325 22.9902 0.875 21.492 0.875 19.6465C0.875 17.801 2.37325 16.3027 4.21875 16.3027C6.06425 16.3027 7.56275 17.801 7.56275 19.6465C7.56275 19.8535 7.73075 20.0215 7.93775 20.0215C8.1445 20.0215 8.31275 19.8535 8.31275 19.6465C8.31275 17.387 6.47825 15.5527 4.21875 15.5527C1.9595 15.5527 0.125 17.387 0.125 19.6465C0.125 21.906 1.9595 23.7402 4.21875 23.7402C5.9425 23.7402 7.419 22.6727 8.022 21.163C8.09875 20.9707 8.00525 20.7525 7.813 20.6757C7.62075 20.5987 7.40225 20.6925 7.3255 20.8847Z" fill="black"/>
<path fill-rule="evenodd" clip-rule="evenodd" d="M5.17306 19.272L9.54831 15.2048C9.70006 15.0638 9.70856 14.8263 9.56781 14.6748C9.42681 14.5233 9.18931 14.5145 9.03781 14.6555C7.64131 15.9535 5.39531 18.0415 4.42956 18.9393C4.24131 19.1143 4.17931 19.3865 4.27331 19.6255C4.36731 19.8648 4.59806 20.022 4.85506 20.022H10.0081C10.2148 20.022 10.3831 19.854 10.3831 19.647C10.3831 19.44 10.2148 19.272 10.0081 19.272H5.17306ZM14.7368 17.56L18.5918 14.102C18.7076 13.9983 18.7471 13.834 18.6916 13.689C18.6361 13.5438 18.4968 13.448 18.3413 13.448H12.8408C12.6338 13.448 12.4658 13.616 12.4658 13.823C12.4658 14.03 12.6338 14.198 12.8408 14.198H17.3618L14.2361 17.0018C14.0821 17.14 14.0691 17.3773 14.2073 17.5313C14.3456 17.6855 14.5828 17.6983 14.7368 17.56ZM14.3428 0.259766C12.8603 0.259766 11.6568 1.46327 11.6568 2.94577C11.6568 4.42802 12.8603 5.63152 14.3428 5.63152C15.8251 5.63152 17.0288 4.42802 17.0288 2.94577C17.0288 1.46327 15.8251 0.259766 14.3428 0.259766ZM14.3428 1.00977C15.4113 1.00977 16.2788 1.87727 16.2788 2.94577C16.2788 4.01402 15.4113 4.88152 14.3428 4.88152C13.2743 4.88152 12.4068 4.01402 12.4068 2.94577C12.4068 1.87727 13.2743 1.00977 14.3428 1.00977Z" fill="black"/>
<path fill-rule="evenodd" clip-rule="evenodd" d="M9.78967 5.58813C9.26492 6.08863 7.00117 8.45163 7.26842 11.3081C7.39967 12.7109 8.07142 14.2864 9.94592 15.7891C10.6284 16.3364 11.0149 16.8676 11.0799 17.4154C11.1672 18.1506 10.6652 18.7804 10.0949 19.2061C9.25892 19.8306 9.08692 21.0164 9.71142 21.8524C10.3359 22.6886 11.5217 22.8604 12.3577 22.2361C13.9817 21.0231 15.0834 19.0634 14.8352 16.9699C14.6764 15.6321 13.9779 14.1746 12.3112 12.8386C11.5984 12.2671 11.2004 11.7241 11.0719 11.1861C11.0237 10.9849 10.8212 10.8604 10.6199 10.9084C10.4187 10.9566 10.2942 11.1591 10.3424 11.3604C10.5012 12.0249 10.9619 12.7181 11.8422 13.4236C13.3134 14.6034 13.9502 15.8774 14.0904 17.0584C14.3067 18.8821 13.3237 20.5786 11.9089 21.6351C11.4044 22.0119 10.6889 21.9081 10.3122 21.4036C9.93567 20.8991 10.0392 20.1839 10.5437 19.8071C11.3227 19.2254 11.9439 18.3311 11.8247 17.3271C11.7412 16.6229 11.2924 15.9074 10.4149 15.2039C8.75042 13.8694 8.13167 12.4839 8.01517 11.2384C7.77592 8.67988 9.83767 6.57888 10.3074 6.13063C10.4572 5.98788 10.4627 5.75013 10.3199 5.60038C10.1769 5.45063 9.93942 5.44513 9.78967 5.58813ZM20.1454 19.5561L18.2627 11.9404C18.2129 11.7396 18.0094 11.6169 17.8087 11.6664C17.6077 11.7161 17.4849 11.9196 17.5347 12.1204L19.4174 19.7361C19.4669 19.9371 19.6704 20.0599 19.8714 20.0101C20.0722 19.9606 20.1952 19.7571 20.1454 19.5561Z" fill="black"/>
<path fill-rule="evenodd" clip-rule="evenodd" d="M17.3651 8.59949C15.0869 8.75374 13.4909 8.20174 12.9381 6.37649C12.6356 5.37774 11.5794 4.81223 10.5806 5.11473C9.58161 5.41723 9.01636 6.47348 9.31886 7.47223C10.3944 11.0242 13.1869 12.6722 17.6204 12.3725C18.6614 12.3022 19.4496 11.3997 19.3791 10.3585C19.3089 9.31723 18.4064 8.52924 17.3651 8.59949ZM17.4159 9.34799C18.0439 9.30549 18.5884 9.78098 18.6309 10.4092C18.6734 11.0372 18.1979 11.5817 17.5696 11.6242C13.5646 11.895 11.0081 10.4637 10.0366 7.25499C9.85411 6.65224 10.1954 6.01499 10.7979 5.83249C11.4004 5.64999 12.0379 5.99124 12.2204 6.59374C12.8764 8.76049 14.7114 9.53074 17.4159 9.34799Z" fill="black"/>
</g>
<defs>
<clipPath id="clip0_266_2368">
<rect width="24" height="24" fill="white"/>
</clipPath>
</defs>
</svg>
