<svg width="24" height="24" viewBox="0 0 24 24" fill="none" xmlns="http://www.w3.org/2000/svg">
<path d="M23.0951 13.5234C22.5049 12.9136 21.718 12.5742 20.877 12.5742C19.1458 12.5742 17.7933 13.9906 17.7933 15.8054C17.7933 17.5907 19.1507 18.9923 20.877 18.9923C22.6278 18.9923 24 17.5956 24 15.8054C24 14.9398 23.6803 14.1333 23.0951 13.5234ZM20.877 18.0087C19.677 18.0087 18.777 17.0644 18.777 15.8054C18.777 14.5464 19.7016 13.5578 20.877 13.5578C22.077 13.5578 23.0164 14.5464 23.0164 15.8054C23.0164 17.0399 22.077 18.0087 20.877 18.0087Z" fill="black"/>
<path d="M20.8769 8.68559C21.1474 8.68559 21.3688 8.46428 21.3688 8.19378V6.58556C21.3688 6.31506 21.1474 6.09375 20.8769 6.09375C20.6064 6.09375 20.3851 6.31506 20.3851 6.58556V8.19378C20.3851 8.46428 20.6064 8.68559 20.8769 8.68559Z" fill="black"/>
<path d="M4.16532 12.5742C2.43414 12.5742 1.08167 13.9906 1.08167 15.8054C1.08167 17.5907 2.43906 18.9923 4.16532 18.9923C5.92108 18.9923 7.29323 17.5956 7.28831 15.8054C7.28831 14.9398 6.96864 14.1333 6.38338 13.5234C5.79321 12.9136 5.00631 12.5742 4.16532 12.5742ZM4.16532 18.0087C2.9653 18.0087 2.06529 17.0644 2.06529 15.8054C2.06529 14.5464 2.98989 13.5578 4.16532 13.5578C5.36533 13.5578 6.30961 14.5464 6.30469 15.8054C6.30469 17.0399 5.36533 18.0087 4.16532 18.0087Z" fill="black"/>
<path d="M20.4491 11.6846C20.5376 11.8519 20.7098 11.9453 20.8868 11.9453C20.9655 11.9453 21.0442 11.9256 21.1131 11.8863C21.3442 11.7633 21.4377 11.4682 21.3098 11.2273L18.1769 5.26652C18.0933 5.10422 17.9261 5.00586 17.7392 5.00586H16.195C15.9245 5.00586 15.7031 5.22717 15.7031 5.49767C15.7031 5.76817 15.9245 5.98948 16.195 5.98948H17.4442L18.3442 7.70098H12.5211C12.3539 7.70098 12.1965 7.78459 12.108 7.92721L11.5473 8.80264L1.53409 8.78788C1.3472 8.78788 1.17015 8.89608 1.09146 9.06821L0.0488194 11.242C-0.0249521 11.3945 -0.0151159 11.5715 0.078328 11.7191C0.166854 11.8617 0.324233 11.9502 0.496367 11.9502H6.51121L9.4965 16.0962C9.58994 16.2241 9.73748 16.3027 9.89486 16.3027H15.1179C15.3048 16.3027 15.4769 16.1945 15.5605 16.0224L18.9934 8.91575L20.4491 11.6846ZM14.8031 15.3142H10.1408L7.15548 11.1682C7.06204 11.0404 6.91449 10.9617 6.75711 10.9617H1.27343L1.84393 9.7715L10.9178 9.78626L10.0178 11.1928C9.91945 11.3453 9.91454 11.5371 9.99814 11.6945C10.0867 11.8519 10.249 11.9502 10.4309 11.9502H16.4261L14.8031 15.3142ZM16.8933 10.9617H11.3309L12.7916 8.6846H17.9999L16.8933 10.9617Z" fill="black"/>
<g clip-path="url(#clip0_266_2566)">
<path d="M6.67317 0.960938H1.49049C1.14935 0.960938 0.871826 1.23846 0.871826 1.5796V5.69624C0.871826 5.76058 0.923976 5.81274 0.988327 5.81274C1.05268 5.81274 1.10483 5.76058 1.10483 5.69624V1.5796C1.10483 1.36694 1.27785 1.19394 1.49049 1.19394H6.67317C6.88582 1.19394 7.05884 1.36694 7.05884 1.5796V6.76229C7.05884 6.97495 6.88581 7.14795 6.67317 7.14795H1.49049C1.27784 7.14795 1.10483 6.97495 1.10483 6.76229V6.09857C1.10483 6.03423 1.05268 5.98207 0.988327 5.98207C0.923976 5.98207 0.871826 6.03423 0.871826 6.09857V6.76229C0.871826 7.10341 1.14935 7.38094 1.49049 7.38094H6.67317C7.0143 7.38094 7.29183 7.10341 7.29183 6.76227V1.5796C7.29183 1.23846 7.0143 0.960938 6.67317 0.960938Z" fill="black"/>
<path d="M6.53057 1.60548H5.69015C5.6258 1.60548 5.57365 1.65764 5.57365 1.72198C5.57365 1.78632 5.6258 1.83848 5.69015 1.83848H6.41408V6.50503H1.74751V1.83847H5.28779C5.35214 1.83847 5.40429 1.78631 5.40429 1.72197C5.40429 1.65763 5.35214 1.60547 5.28779 1.60547H1.63103C1.56668 1.60547 1.51453 1.65763 1.51453 1.72197V6.62152C1.51453 6.68586 1.56668 6.73802 1.63103 6.73802H6.53058C6.59493 6.73802 6.64708 6.68586 6.64708 6.62152V1.72198C6.64707 1.65764 6.59493 1.60548 6.53057 1.60548Z" fill="black"/>
<path d="M4.17761 2.22852H3.17912C3.11477 2.22852 3.06262 2.28068 3.06262 2.34502V4.9405C3.06262 5.00484 3.11477 5.057 3.17912 5.057C3.24347 5.057 3.29562 5.00484 3.29562 4.9405V2.4615H4.17761C4.83131 2.4615 5.36314 2.99334 5.36314 3.64703C5.36314 4.30073 4.83131 4.83257 4.17761 4.83257H3.98874C3.92439 4.83257 3.87224 4.88473 3.87224 4.94907V5.88171H3.29562V5.34284C3.29562 5.2785 3.24346 5.22634 3.17912 5.22634C3.11477 5.22634 3.06262 5.2785 3.06262 5.34284V5.99821C3.06262 6.06255 3.11477 6.11471 3.17912 6.11471H3.98874C4.0531 6.11471 4.10525 6.06255 4.10525 5.99821V5.06557H4.17761C4.95978 5.06557 5.59613 4.42922 5.59613 3.64705C5.59613 2.86487 4.95978 2.22852 4.17761 2.22852Z" fill="black"/>
<path d="M4.14038 2.93945H3.99101C3.92666 2.93945 3.87451 2.99162 3.87451 3.05595V4.23822C3.87451 4.30256 3.92666 4.35472 3.99101 4.35472H4.14038C4.53057 4.35472 4.84802 4.03727 4.84802 3.6471C4.84802 3.2569 4.53056 2.93945 4.14038 2.93945ZM4.14038 4.12172H4.10751V3.17244H4.14038C4.40211 3.17244 4.61503 3.38537 4.61503 3.64708C4.61503 3.9088 4.40211 4.12172 4.14038 4.12172Z" fill="black"/>
</g>
<defs>
<clipPath id="clip0_266_2566">
<rect width="6.42" height="6.42" fill="white" transform="translate(0.869995 0.960938)"/>
</clipPath>
</defs>
</svg>
