<svg width="24" height="24" viewBox="0 0 24 24" fill="none" xmlns="http://www.w3.org/2000/svg">
<path d="M11.9997 4.49025C11.2912 4.48794 10.6074 4.74978 10.0816 5.22463C9.55589 5.69947 9.22601 6.35324 9.15642 7.05825C9.1515 7.10725 9.15627 7.15674 9.17047 7.20389C9.18467 7.25105 9.20802 7.29494 9.23919 7.33307C9.27036 7.3712 9.30873 7.40282 9.35211 7.42612C9.3955 7.44942 9.44305 7.46395 9.49205 7.46887C9.54105 7.4738 9.59053 7.46902 9.63769 7.45482C9.68484 7.44062 9.72874 7.41727 9.76687 7.38611C9.805 7.35494 9.83662 7.31657 9.85992 7.27318C9.88322 7.2298 9.89775 7.18225 9.90267 7.13325C10.1989 4.62712 13.8015 4.62825 14.0967 7.13325C14.1066 7.23221 14.1555 7.32316 14.2325 7.38611C14.3095 7.44905 14.4083 7.47882 14.5073 7.46887C14.6063 7.45893 14.6972 7.41008 14.7602 7.33307C14.8231 7.25607 14.8529 7.15721 14.8429 7.05825C14.7733 6.35324 14.4435 5.69947 13.9177 5.22463C13.392 4.74978 12.7081 4.48794 11.9997 4.49025Z" fill="black"/>
<path d="M22.5 20.3085H21.8445V9.93828C21.9437 9.94995 22.0443 9.93643 22.1369 9.89898C22.2295 9.86153 22.3112 9.80135 22.3744 9.724C22.4377 9.64665 22.4804 9.55462 22.4987 9.4564C22.5169 9.35818 22.5102 9.25695 22.479 9.16203L22.1156 8.12066C22.0058 7.80386 21.7999 7.52916 21.5267 7.33473C21.2535 7.14031 20.9266 7.03581 20.5912 7.03578H16.8551C15.8531 1.61216 8.14762 1.60878 7.1445 7.03578H3.405C3.07083 7.0361 2.74502 7.14027 2.47265 7.3339C2.20029 7.52752 1.99484 7.80101 1.88475 8.11653L1.52213 9.15903C1.49037 9.25402 1.48312 9.35549 1.50105 9.45403C1.51898 9.55257 1.5615 9.64499 1.62467 9.72271C1.68784 9.80043 1.76962 9.86094 1.86242 9.89863C1.95521 9.93631 2.05603 9.94995 2.1555 9.93828V20.3085H1.5C1.40054 20.3085 1.30516 20.348 1.23483 20.4184C1.16451 20.4887 1.125 20.5841 1.125 20.6835C1.125 20.783 1.16451 20.8784 1.23483 20.9487C1.30516 21.019 1.40054 21.0585 1.5 21.0585H22.5C22.5995 21.0585 22.6948 21.019 22.7652 20.9487C22.8355 20.8784 22.875 20.783 22.875 20.6835C22.875 20.5841 22.8355 20.4887 22.7652 20.4184C22.6948 20.348 22.5995 20.3085 22.5 20.3085ZM15.555 20.3085V14.1495H16.065C16.1645 14.1495 16.2598 14.11 16.3302 14.0397C16.4005 13.9694 16.44 13.874 16.44 13.7745C16.44 13.6751 16.4005 13.5797 16.3302 13.5094C16.2598 13.439 16.1645 13.3995 16.065 13.3995H7.935C7.83554 13.3995 7.74016 13.439 7.66983 13.5094C7.59951 13.5797 7.56 13.6751 7.56 13.7745C7.56 13.874 7.59951 13.9694 7.66983 14.0397C7.74016 14.11 7.83554 14.1495 7.935 14.1495H8.445V16.1258C8.445 16.2252 8.48451 16.3206 8.55483 16.3909C8.62516 16.4613 8.72054 16.5008 8.82 16.5008C8.91946 16.5008 9.01484 16.4613 9.08517 16.3909C9.15549 16.3206 9.195 16.2252 9.195 16.1258V14.1495H14.805V20.307H12.375V16.1258C12.375 16.0263 12.3355 15.9309 12.2652 15.8606C12.1948 15.7903 12.0995 15.7508 12 15.7508C11.9005 15.7508 11.8052 15.7903 11.7348 15.8606C11.6645 15.9309 11.625 16.0263 11.625 16.1258V20.307H9.195V17.6258C9.195 17.5263 9.15549 17.4309 9.08517 17.3606C9.01484 17.2903 8.91946 17.2508 8.82 17.2508C8.72054 17.2508 8.62516 17.2903 8.55483 17.3606C8.48451 17.4309 8.445 17.5263 8.445 17.6258V20.3085H2.9055V9.93828H15.7838C15.8832 9.93828 15.9786 9.89877 16.0489 9.82845C16.1192 9.75812 16.1588 9.66274 16.1588 9.56328C16.1588 9.46383 16.1192 9.36844 16.0489 9.29812C15.9786 9.22779 15.8832 9.18828 15.7838 9.18828H2.30588L2.59312 8.36328C2.65185 8.19471 2.76154 8.04857 2.907 7.9451C3.05246 7.84163 3.22649 7.78596 3.405 7.78578H7.47C7.53707 7.78119 7.6021 7.76075 7.65975 7.72616C7.70846 7.69608 7.74993 7.6556 7.78117 7.60763C7.81242 7.55966 7.83268 7.50537 7.8405 7.44866C8.47275 2.43116 15.5906 2.48741 16.1775 7.51128C16.1989 7.59137 16.2466 7.66196 16.3129 7.71173C16.3792 7.76151 16.4602 7.78758 16.5431 7.78578H20.5912C20.7708 7.78578 20.9458 7.84177 21.092 7.94596C21.2382 8.05015 21.3483 8.19734 21.4069 8.36703L21.6937 9.18828H17.2838C17.1843 9.18828 17.0889 9.22779 17.0186 9.29812C16.9483 9.36844 16.9088 9.46383 16.9088 9.56328C16.9088 9.66274 16.9483 9.75812 17.0186 9.82845C17.0889 9.89877 17.1843 9.93828 17.2838 9.93828H21.0945V20.3085H15.555Z" fill="black"/>
<path d="M4.32373 13.5415H6.04498C6.14444 13.5415 6.23982 13.5019 6.31015 13.4316C6.38047 13.3613 6.41998 13.2659 6.41998 13.1665V10.909C6.41998 10.8095 6.38047 10.7141 6.31015 10.6438C6.23982 10.5735 6.14444 10.534 6.04498 10.534H4.32373C4.22427 10.534 4.12889 10.5735 4.05857 10.6438C3.98824 10.7141 3.94873 10.8095 3.94873 10.909V11.2877C3.94873 11.3872 3.98824 11.4825 4.05857 11.5529C4.12889 11.6232 4.22427 11.6627 4.32373 11.6627C4.42319 11.6627 4.51857 11.6232 4.5889 11.5529C4.65922 11.4825 4.69873 11.3872 4.69873 11.2877L5.66998 11.284V12.7915C5.66998 12.7877 4.69123 12.7986 4.69873 12.7877C4.69873 12.6882 4.65922 12.5929 4.5889 12.5225C4.51857 12.4522 4.42319 12.4127 4.32373 12.4127C4.22427 12.4127 4.12889 12.4522 4.05857 12.5225C3.98824 12.5929 3.94873 12.6882 3.94873 12.7877V13.1665C3.94873 13.2659 3.98824 13.3613 4.05857 13.4316C4.12889 13.5019 4.22427 13.5415 4.32373 13.5415ZM6.04573 14.5686H4.32373C4.22427 14.5686 4.12889 14.6081 4.05857 14.6784C3.98824 14.7487 3.94873 14.8441 3.94873 14.9436V19.3375C3.94873 19.4369 3.98824 19.5323 4.05857 19.6026C4.12889 19.6729 4.22427 19.7125 4.32373 19.7125H6.04536C6.14481 19.7125 6.24019 19.6729 6.31052 19.6026C6.38085 19.5323 6.42036 19.4369 6.42036 19.3375V14.944C6.42036 14.8445 6.38085 14.7491 6.31052 14.6788C6.24019 14.6085 6.14481 14.569 6.04536 14.569L6.04573 14.5686ZM5.67073 18.9625H4.69873V15.319H5.67036L5.67073 18.9625ZM19.6762 10.5332H17.9542C17.8548 10.5332 17.7594 10.5727 17.6891 10.643C17.6187 10.7134 17.5792 10.8087 17.5792 10.9082V13.168C17.5792 13.2674 17.6187 13.3628 17.6891 13.4331C17.7594 13.5034 17.8548 13.543 17.9542 13.543H19.6762C19.7757 13.543 19.8711 13.5034 19.9414 13.4331C20.0117 13.3628 20.0512 13.2674 20.0512 13.168V10.9082C20.0512 10.8087 20.0117 10.7134 19.9414 10.643C19.8711 10.5727 19.7757 10.5332 19.6762 10.5332ZM19.3012 12.793H18.3292V11.2832H19.3012V12.793ZM19.6762 14.5686H17.9542C17.8548 14.5686 17.7594 14.6081 17.6891 14.6784C17.6187 14.7487 17.5792 14.8441 17.5792 14.9436V19.3375C17.5792 19.4369 17.6187 19.5323 17.6891 19.6026C17.7594 19.6729 17.8548 19.7125 17.9542 19.7125H19.6762C19.7757 19.7125 19.8711 19.6729 19.9414 19.6026C20.0117 19.5323 20.0512 19.4369 20.0512 19.3375V14.944C20.0512 14.8445 20.0117 14.7491 19.9414 14.6788C19.8711 14.6085 19.7757 14.5686 19.6762 14.5686ZM19.3012 18.9625H18.3292V15.319H19.3012V18.9625ZM10.8161 11.4655H13.1839C13.2833 11.4655 13.3787 11.4259 13.449 11.3556C13.5193 11.2853 13.5589 11.1899 13.5589 11.0905C13.5589 10.991 13.5193 10.8956 13.449 10.8253C13.3787 10.755 13.2833 10.7155 13.1839 10.7155H10.8161C10.7166 10.7155 10.6213 10.755 10.5509 10.8253C10.4806 10.8956 10.4411 10.991 10.4411 11.0905C10.4411 11.1899 10.4806 11.2853 10.5509 11.3556C10.6213 11.4259 10.7166 11.4655 10.8161 11.4655ZM15.5512 11.8727H8.44873C8.39949 11.8727 8.35072 11.8824 8.30522 11.9012C8.25973 11.9201 8.21839 11.9477 8.18357 11.9825C8.14874 12.0174 8.12112 12.0587 8.10228 12.1042C8.08343 12.1497 8.07373 12.1985 8.07373 12.2477C8.07373 12.2969 8.08343 12.3457 8.10228 12.3912C8.12112 12.4367 8.14874 12.478 8.18357 12.5129C8.21839 12.5477 8.25973 12.5753 8.30522 12.5942C8.35072 12.613 8.39949 12.6227 8.44873 12.6227H15.5512C15.6507 12.6227 15.7461 12.5832 15.8164 12.5129C15.8867 12.4425 15.9262 12.3472 15.9262 12.2477C15.9262 12.1482 15.8867 12.0529 15.8164 11.9825C15.7461 11.9122 15.6507 11.8727 15.5512 11.8727Z" fill="black"/>
</svg>
