<svg width="24" height="24" viewBox="0 0 24 24" fill="none" xmlns="http://www.w3.org/2000/svg">
<g clip-path="url(#clip0_268_2822)">
<path d="M22.8001 17.2H13.6V15.2H16.8001C18.5665 15.198 19.9981 13.7664 20.0001 12V11.9264C20.5507 11.7324 20.8811 11.1696 20.7822 10.5943C20.6833 10.0189 20.1839 9.59883 19.6001 9.59995H19.2593C19.4009 9.07195 19.7925 8.61717 20.1945 8.59073C20.8113 8.54152 21.7065 9.64073 22.1317 12.8523C22.1485 12.955 22.2045 13.0471 22.288 13.1091C22.3715 13.1711 22.4758 13.1981 22.5789 13.1845C22.682 13.1709 22.7758 13.1176 22.8403 13.036C22.9048 12.9545 22.935 12.851 22.9245 12.7475C22.3381 8.31511 20.9353 7.74431 20.1417 7.79231C19.2517 7.85109 18.5965 8.72353 18.4377 9.59991H13.6V7.4947C15.0109 7.12927 15.9973 5.85736 16 4.39992V4.32633C16.5507 4.13241 16.8811 3.56958 16.7822 2.99423C16.6833 2.41889 16.1838 1.99889 15.6 2.00002H15.2601C15.4009 1.48359 15.7829 1.03163 16.1753 0.992438C16.72 0.938859 17.4708 1.72003 17.9437 4.08005C17.9621 4.1704 18.0112 4.2516 18.0826 4.30992C18.1541 4.36823 18.2435 4.40008 18.3357 4.40006C18.395 4.40014 18.4537 4.387 18.5073 4.3616C18.561 4.33621 18.6083 4.29919 18.6458 4.25323C18.6834 4.20728 18.7103 4.15354 18.7245 4.09591C18.7387 4.03829 18.7399 3.97822 18.7281 3.92006C18.046 0.519984 16.7873 0.126797 16.0965 0.196406C15.2329 0.282 14.5965 1.146 14.44 2.00002H13.6V1.60003C13.6 0.716344 12.8837 0 12 0C11.1164 0 10.4001 0.716344 10.4001 1.59998V1.99997H9.56007C9.40364 1.14558 8.76727 0.279984 7.90364 0.196406C7.21364 0.127594 5.95524 0.519984 5.27564 3.92002C5.25492 4.02403 5.27637 4.13202 5.33525 4.22023C5.39414 4.30844 5.48565 4.36965 5.58966 4.39041C5.69357 4.41153 5.80162 4.39054 5.89005 4.33203C5.97849 4.27353 6.04007 4.1823 6.06127 4.07841C6.53128 1.71998 7.28007 0.936797 7.82485 0.992391C8.21724 1.03237 8.59964 1.48317 8.74003 1.99997H8.40005C7.81627 1.99884 7.31682 2.41898 7.21791 2.99428C7.119 3.56958 7.44943 4.13241 8.00007 4.32638V4.39997C8.00283 5.85745 8.98917 7.12931 10.4001 7.49475V9.6H5.56247C5.40249 8.72358 4.74849 7.85119 3.85847 7.79241C3.06807 7.74159 1.66205 8.31563 1.07569 12.7476C1.06718 12.8004 1.06935 12.8544 1.08206 12.9063C1.09478 12.9583 1.11778 13.0072 1.14972 13.0501C1.18165 13.093 1.22186 13.1291 1.26798 13.1561C1.3141 13.1832 1.36518 13.2008 1.4182 13.2078C1.47123 13.2148 1.52512 13.2111 1.57669 13.197C1.62826 13.1828 1.67647 13.1584 1.71845 13.1253C1.76044 13.0921 1.79535 13.0509 1.82113 13.004C1.84691 12.9572 1.86303 12.9056 1.86853 12.8524C2.29374 9.64003 3.18094 8.55 3.80574 8.59083C4.20774 8.61722 4.59933 9.07083 4.74094 9.60005H4.40016C3.81638 9.59892 3.31692 10.0191 3.21802 10.5944C3.11911 11.1697 3.44953 11.7325 4.00017 11.9265V12C4.00214 13.7665 5.43371 15.198 7.20019 15.2H10.4002V17.2H1.20005C0.612847 17.1986 0.111331 17.6233 0.0160811 18.2027C-0.0791689 18.7822 0.260065 19.3451 0.816847 19.5316C0.992112 22.0453 3.0803 23.9961 5.60007 24H18.4001C20.9198 23.9961 23.008 22.0453 23.1833 19.5316C23.7401 19.3451 24.0793 18.7822 23.9841 18.2027C23.8888 17.6233 23.3873 17.1985 22.8001 17.2ZM11.2 1.59998C11.2 1.15814 11.5582 0.799969 12 0.799969C12.4419 0.799969 12.8001 1.15814 12.8001 1.59998V1.99997H11.2001V1.59998H11.2ZM8.40005 2.79998H15.6C15.7054 2.80112 15.806 2.84377 15.8801 2.91866C15.9542 2.99355 15.9958 3.09465 15.9958 3.19999C15.9958 3.30534 15.9542 3.40643 15.8801 3.48132C15.806 3.55621 15.7054 3.59886 15.6 3.6H8.40005C8.17913 3.6 8.00007 3.42094 8.00007 3.20002C8.00007 2.97909 8.17913 2.79998 8.40005 2.79998ZM8.80003 4.40002H15.2C15.1987 5.72494 14.1249 6.7987 12.8 6.80002H11.2C9.87511 6.79866 8.80139 5.72494 8.80003 4.40002ZM11.2 7.59998H12.8V9.6H11.2V7.59998ZM4.40007 10.4H19.6001C19.7062 10.4 19.8079 10.4422 19.8829 10.5172C19.9579 10.5922 20.0001 10.6939 20.0001 10.8C20.0001 10.9061 19.9579 11.0078 19.8829 11.0828C19.8079 11.1578 19.7062 11.2 19.6001 11.2H4.40007C4.29398 11.2 4.19225 11.1578 4.11723 11.0828C4.04222 11.0078 4.00008 10.9061 4.00008 10.8C4.00007 10.7475 4.01042 10.6955 4.03052 10.6469C4.05061 10.5984 4.08008 10.5543 4.11722 10.5172C4.15436 10.48 4.19846 10.4505 4.24699 10.4305C4.29552 10.4104 4.34754 10.4 4.40007 10.4ZM4.80005 12H19.2001C19.1987 13.3249 18.125 14.3987 16.8001 14.4H7.20005C5.87513 14.3987 4.80136 13.3249 4.80005 12ZM11.2 15.2H12.8V17.2H11.2V15.2ZM18.4 23.2H5.60007C3.5468 23.1974 1.82799 21.6427 1.62005 19.6H22.3801C22.1722 21.6427 20.4533 23.1975 18.4 23.2ZM22.8001 18.8H1.20005C0.979128 18.8 0.800065 18.621 0.800065 18.4C0.800065 18.1791 0.979128 18 1.20005 18H22.8001C23.021 18 23.2 18.1791 23.2 18.4C23.2 18.6209 23.021 18.8 22.8001 18.8Z" fill="black"/>
<path d="M5.30846 7.19939C5.41019 7.19961 5.50819 7.16105 5.58249 7.09157C5.6568 7.02208 5.70184 6.9269 5.70845 6.82538C5.73287 6.45258 5.76845 6.06539 5.81846 5.64619C5.82927 5.54165 5.7985 5.43707 5.7328 5.35504C5.66711 5.27301 5.57178 5.22013 5.46741 5.20783C5.36304 5.19553 5.25802 5.2248 5.17506 5.28931C5.0921 5.35383 5.03786 5.4484 5.02407 5.55258C4.97246 5.98739 4.93529 6.38658 4.91007 6.77339C4.90293 6.87921 4.93811 6.98353 5.00786 7.06342C5.07762 7.1433 5.17626 7.19221 5.28207 7.19939H5.30846ZM1.22443 16.3994C1.32827 16.3995 1.42806 16.3591 1.5027 16.287C1.57735 16.2148 1.62099 16.1164 1.62441 16.0126C1.63892 15.5535 1.66266 15.0947 1.69562 14.6366C1.70246 14.531 1.6673 14.427 1.59781 14.3472C1.52832 14.2674 1.43012 14.2184 1.3246 14.2107C1.21908 14.203 1.11479 14.2373 1.03445 14.3061C0.954106 14.3749 0.904217 14.4727 0.895648 14.5782C0.863258 15.0182 0.838836 15.491 0.822851 15.9862C0.821107 16.0388 0.829768 16.0912 0.848337 16.1405C0.866907 16.1898 0.89502 16.2349 0.931064 16.2733C0.967109 16.3117 1.01038 16.3426 1.05839 16.3642C1.10639 16.3858 1.1582 16.3978 1.21084 16.3994L1.22443 16.3994ZM18.1865 5.6422C18.2265 6.009 18.2665 6.40219 18.2929 6.82542C18.2995 6.92694 18.3445 7.02212 18.4188 7.0916C18.4932 7.16108 18.5911 7.19964 18.6929 7.19944H18.7193C18.7717 7.19603 18.8229 7.18233 18.8701 7.15911C18.9172 7.1359 18.9593 7.10362 18.9939 7.06414C19.0286 7.02466 19.0551 6.97873 19.072 6.92899C19.089 6.87925 19.0959 6.82666 19.0925 6.77424C19.0641 6.34022 19.0237 5.93424 18.9829 5.55745C18.9692 5.45394 18.9156 5.35988 18.8335 5.29536C18.7514 5.23084 18.6473 5.20098 18.5435 5.21216C18.4397 5.22333 18.3443 5.27465 18.2779 5.35516C18.2114 5.43568 18.179 5.53899 18.1876 5.64305L18.1865 5.6422ZM22.3049 14.6366C22.3365 15.0654 22.3605 15.5282 22.3761 16.0126C22.3795 16.1164 22.4231 16.2148 22.4978 16.287C22.5724 16.3591 22.6722 16.3995 22.7761 16.3994H22.7896C22.8957 16.3958 22.9959 16.3503 23.0684 16.2728C23.1409 16.1953 23.1796 16.0922 23.176 15.9862C23.1601 15.491 23.1361 15.0174 23.1032 14.5782C23.0948 14.473 23.045 14.3753 22.9648 14.3066C22.8847 14.2379 22.7806 14.2036 22.6753 14.2114C22.5699 14.2191 22.4719 14.2681 22.4026 14.3478C22.3333 14.4274 22.2983 14.5313 22.3052 14.6366L22.3049 14.6366Z" fill="black"/>
</g>
<defs>
<clipPath id="clip0_268_2822">
<rect width="24" height="24" fill="white"/>
</clipPath>
</defs>
</svg>
