<svg width="24" height="24" viewBox="0 0 24 24" fill="none" xmlns="http://www.w3.org/2000/svg">
<g clip-path="url(#clip0_266_2516)">
<path d="M17.849 0H6.15253C5.21199 0 4.44678 0.765159 4.44678 1.70569V22.2942C4.44678 23.2348 5.21199 24 6.15253 24H17.849C18.7896 24 19.5547 23.2348 19.5547 22.2942V1.70569C19.5547 0.765159 18.7896 0 17.849 0ZM18.6914 22.2942C18.6914 22.7587 18.3135 23.1367 17.849 23.1367H6.15253C5.68805 23.1367 5.31013 22.7588 5.31013 22.2942V1.70569C5.31013 1.24121 5.68799 0.863351 6.15253 0.863351H17.849C18.3135 0.863351 18.6914 1.24121 18.6914 1.70569V22.2942Z" fill="black"/>
<path d="M16.5763 10.1426H7.42521C7.18675 10.1426 6.99353 10.3359 6.99353 10.5743V13.0779C6.99353 13.3163 7.18675 13.5095 7.42521 13.5095H16.5763C16.8147 13.5095 17.0079 13.3163 17.0079 13.0779V10.5743C17.008 10.3359 16.8147 10.1426 16.5763 10.1426ZM11.9942 11.0059H14.4679L14.0154 12.6462H11.5417L11.9942 11.0059ZM10.6462 12.6462H9.79977L10.2523 11.0059H11.0986L10.6462 12.6462ZM7.85688 11.0059H9.35669L8.90418 12.6462H7.85682V11.0059H7.85688ZM16.1446 12.6462H14.911L15.3635 11.0059H16.1447V12.6462H16.1446Z" fill="black"/>
<path d="M12.0008 9.10537C14.0001 9.10537 15.6267 7.47876 15.6267 5.47942C15.6267 3.48007 14.0001 1.85352 12.0008 1.85352C10.0015 1.85352 8.37488 3.48007 8.37488 5.47942C8.37488 7.47876 10.0015 9.10537 12.0008 9.10537ZM12.0008 2.71687C13.5241 2.71687 14.7633 3.95612 14.7633 5.47942C14.7633 7.00271 13.5241 8.24202 12.0008 8.24202C10.4775 8.24202 9.23823 7.00271 9.23823 5.47942C9.23823 3.95612 10.4775 2.71687 12.0008 2.71687Z" fill="black"/>
<path d="M12.0008 7.59359C13.167 7.59359 14.1159 6.64476 14.1159 5.47843C14.1159 4.3121 13.167 3.36328 12.0008 3.36328C10.8344 3.36328 9.88562 4.3121 9.88562 5.47843C9.88562 6.64476 10.8345 7.59359 12.0008 7.59359ZM12.0008 4.22669C12.691 4.22669 13.2525 4.78821 13.2525 5.47849C13.2525 6.16877 12.691 6.73029 12.0008 6.73029C11.3106 6.73029 10.749 6.16877 10.749 5.47849C10.749 4.78821 11.3106 4.22669 12.0008 4.22669Z" fill="black"/>
<path d="M11.9595 14.9642C11.7912 14.8507 11.5582 14.8747 11.4149 15.0177C11.2972 15.1353 11.2577 15.3156 11.3151 15.4716C11.378 15.6428 11.5475 15.7594 11.7306 15.7547C11.9127 15.7501 12.075 15.6277 12.1308 15.4548C12.1885 15.2758 12.1191 15.0668 11.9595 14.9642C11.9836 14.9797 11.9364 14.9487 11.9595 14.9642Z" fill="black"/>
<path d="M12.1189 16.7118C12.05 16.5489 11.8872 16.4411 11.7095 16.4454C11.5281 16.4498 11.3684 16.5704 11.3106 16.7415C11.2535 16.9104 11.3122 17.1062 11.4529 17.2158C11.5999 17.3303 11.8041 17.3375 11.9595 17.2356C12.1308 17.1232 12.194 16.9001 12.1189 16.7118C12.1292 16.7377 12.1079 16.6859 12.1189 16.7118Z" fill="black"/>
<path d="M12.1188 18.2665C12.0543 18.1105 11.8997 18.0042 11.7307 18.0001C11.5457 17.9957 11.3768 18.1128 11.314 18.2861C11.2514 18.4587 11.3098 18.6591 11.4547 18.7716C11.6059 18.8888 11.8184 18.8919 11.9737 18.7806C12.135 18.665 12.1917 18.4489 12.1188 18.2665C12.1292 18.2924 12.1079 18.24 12.1188 18.2665Z" fill="black"/>
<path d="M11.9596 19.6264C11.7967 19.5165 11.5711 19.5348 11.4271 19.6681C11.3053 19.7808 11.2585 19.9592 11.3094 20.117C11.3674 20.2972 11.5411 20.421 11.7307 20.4164C11.9129 20.412 12.0751 20.2901 12.1309 20.117C12.1886 19.938 12.1192 19.729 11.9596 19.6264C11.9837 19.6419 11.9365 19.6108 11.9596 19.6264Z" fill="black"/>
<path d="M10.349 15.1589C10.1988 14.8039 9.67621 14.8131 9.54417 15.1785C9.41058 15.5483 9.82395 15.8916 10.1634 15.6992C10.3492 15.5939 10.4326 15.3566 10.349 15.1589Z" fill="black"/>
<path d="M10.3491 16.7119C10.3273 16.6594 10.2954 16.6123 10.2559 16.5715C10.0875 16.4075 9.81314 16.4042 9.64518 16.5715C9.49208 16.7241 9.47867 16.9743 9.61146 17.144C9.73515 17.3021 9.96031 17.3525 10.14 17.2647C10.3408 17.1666 10.4367 16.919 10.3491 16.7119C10.3601 16.7378 10.3382 16.6855 10.3491 16.7119Z" fill="black"/>
<path d="M10.3491 18.2666C10.3273 18.2141 10.2954 18.1669 10.2558 18.1262C10.0874 17.9622 9.81317 17.9589 9.64516 18.1262C9.49621 18.2745 9.47882 18.515 9.60125 18.6852C9.72609 18.8587 9.96863 18.9123 10.1558 18.8113C10.3466 18.7082 10.434 18.4674 10.3491 18.2666C10.3601 18.2925 10.3381 18.2402 10.3491 18.2666Z" fill="black"/>
<path d="M10.3491 19.8209C10.2027 19.4753 9.69705 19.4722 9.55189 19.8209C9.48127 19.9905 9.52893 20.1933 9.66856 20.313C9.80618 20.431 10.0058 20.4508 10.1634 20.3614C10.3505 20.2555 10.4312 20.0195 10.3491 19.8209C10.36 19.8474 10.3381 19.795 10.3491 19.8209Z" fill="black"/>
<path d="M8.57913 15.1594C8.46057 14.8791 8.09266 14.8079 7.87521 15.019C7.64545 15.2557 7.75423 15.6611 8.07568 15.7431C8.41049 15.8286 8.71479 15.4801 8.57913 15.1594Z" fill="black"/>
<path d="M8.57917 16.7124C8.46038 16.4316 8.09293 16.3606 7.87525 16.572C7.6452 16.809 7.75462 17.2135 8.07572 17.2959C8.41047 17.3818 8.71478 17.033 8.57917 16.7124Z" fill="black"/>
<path d="M8.57914 18.267C8.46235 17.9848 8.09169 17.9164 7.87522 18.1265C7.63883 18.37 7.76218 18.7862 8.09629 18.8552C8.42598 18.9232 8.71094 18.5785 8.57914 18.267C8.59013 18.2929 8.5682 18.2405 8.57914 18.267Z" fill="black"/>
<path d="M8.57916 19.8213C8.43308 19.4685 7.91594 19.4756 7.7782 19.8312C7.71311 19.9991 7.76174 20.1956 7.89873 20.3129C8.03623 20.4308 8.23607 20.4507 8.3936 20.3613C8.57939 20.2561 8.66285 20.0192 8.57916 19.8213C8.59016 19.8472 8.56823 19.7949 8.57916 19.8213Z" fill="black"/>
<path d="M15.5404 17.4824C14.7311 17.4824 14.0728 18.1408 14.0728 18.9501C14.0728 19.7593 14.7311 20.4177 15.5404 20.4177C16.3497 20.4177 17.008 19.7593 17.008 18.9501C17.008 18.1408 16.3496 17.4824 15.5404 17.4824ZM15.5404 19.5543C15.2072 19.5543 14.9361 19.2833 14.9361 18.9501C14.9361 18.6169 15.2072 18.3458 15.5404 18.3458C15.8736 18.3458 16.1447 18.6169 16.1447 18.9501C16.1447 19.2833 15.8736 19.5543 15.5404 19.5543Z" fill="black"/>
</g>
<defs>
<clipPath id="clip0_266_2516">
<rect width="24" height="24" fill="white"/>
</clipPath>
</defs>
</svg>
