<svg width="24" height="24" viewBox="0 0 24 24" fill="none" xmlns="http://www.w3.org/2000/svg">
<g clip-path="url(#clip0_268_2872)">
<path d="M21.8359 19.4873H20.5182C20.5179 19.4873 20.5176 19.4872 20.5174 19.4871C20.5172 19.487 20.517 19.4868 20.5168 19.4866C20.5166 19.4864 20.5165 19.4861 20.5165 19.4858C20.5165 19.4856 20.5165 19.4853 20.5166 19.485L21.3303 17.2957C21.3422 17.2636 21.3543 17.232 21.3661 17.201C21.463 16.9474 21.5729 16.66 21.4482 16.386C21.3743 16.2237 21.2352 16.1041 21.0346 16.0305L19.749 15.5591C19.7474 15.5586 19.7459 15.5582 19.7443 15.5577C19.7425 15.5571 19.7409 15.5562 19.7391 15.5557L17.6423 14.8565C17.6204 14.8495 17.599 14.8412 17.5781 14.8318C17.5777 14.8316 17.5775 14.8313 17.5774 14.8309C17.567 14.796 17.5539 14.7281 17.5439 14.6757L17.0302 12.0262V12.0255L17.4141 10.0915C17.4142 10.0912 17.4143 10.091 17.4144 10.0908C17.4145 10.0906 17.4147 10.0905 17.4149 10.0903C17.4151 10.0902 17.4154 10.0902 17.4156 10.0901C17.4158 10.0901 17.4161 10.0901 17.4163 10.0902L17.7214 10.1942C17.7218 10.1943 17.7221 10.1946 17.7223 10.1948C17.7225 10.1951 17.7226 10.1955 17.7226 10.1958V11.6301C17.7226 12.3272 18.2852 12.8958 18.9758 12.8977H18.9824C19.316 12.8977 19.6438 12.7619 19.8826 12.5243C20.1223 12.2859 20.2543 11.9711 20.2543 11.638V9.25537C20.2543 9.25073 20.2542 9.24614 20.254 9.24145C20.2336 8.72428 19.8899 8.26359 19.3981 8.09489L17.0487 7.29501C17.0483 7.29491 17.048 7.2947 17.0478 7.2944L16.471 6.46434C16.4709 6.46416 16.4708 6.46396 16.4707 6.46375C16.4707 6.46354 16.4707 6.46332 16.4707 6.4631C16.4708 6.46289 16.4708 6.46269 16.471 6.46251C16.4711 6.46232 16.4712 6.46217 16.4714 6.46204C16.9084 6.16364 17.2504 5.72915 17.4901 5.16455C17.4934 5.15659 17.4964 5.14853 17.4991 5.14036C17.4995 5.13937 17.5 5.13853 17.5003 5.13755L17.5011 5.13506L17.5018 5.13286C17.8343 4.12542 17.8837 3.19983 17.6443 2.45597C17.3874 1.65698 16.8088 1.07822 15.9715 0.782296C15.574 0.641342 15.1861 0.644671 14.7752 0.648092C14.1924 0.653014 13.5309 0.658592 12.6578 0.224342C12.5762 0.183725 12.4821 0.17638 12.3952 0.203859C12.3084 0.231338 12.2356 0.291491 12.1922 0.371624C11.781 1.1303 11.8724 1.84186 12.4329 2.37197C12.4332 2.37223 12.4334 2.37259 12.4334 2.37298C12.4335 2.37337 12.4334 2.37376 12.4331 2.37408C12.0939 2.8597 11.9097 3.43664 11.9097 4.0334C11.9097 5.00358 12.4757 5.94947 13.3513 6.49401C13.3521 6.49448 13.3523 6.49551 13.3518 6.49631L12.4533 7.90364C12.4531 7.90387 12.4529 7.90406 12.4527 7.9042C12.4524 7.90433 12.4522 7.90442 12.4519 7.90444L11.6995 7.90823C11.6993 7.90823 11.699 7.90816 11.6987 7.90803C11.6985 7.9079 11.6983 7.90771 11.6981 7.90748L10.8469 6.67073C10.4521 6.09773 9.66348 5.95204 9.0886 6.34608C8.80768 6.53929 8.61976 6.83151 8.55952 7.16901C8.50018 7.50136 8.57358 7.83445 8.76605 8.10689L10.0933 9.98601L10.0964 9.99037C10.4636 10.4939 10.7851 10.4949 11.233 10.4964H12.2976C12.2985 10.4964 12.2993 10.4971 12.2993 10.4981L12.3022 11.8768C12.3022 11.8773 12.302 11.8777 12.3017 11.878L10.7943 13.3502L10.7941 13.3504C10.4268 13.7098 10.2406 14.1426 10.2406 14.637V17.6502C10.2406 17.6509 10.2402 17.6516 10.2394 17.6518C9.89907 17.7412 9.49065 17.9498 9.15877 18.2951C8.83796 18.6288 8.64512 19.0355 8.5898 19.4859C8.58976 19.4863 8.58956 19.4867 8.58926 19.487C8.58896 19.4872 8.58857 19.4874 8.58816 19.4874H7.10729C7.10684 19.4874 7.10641 19.4872 7.1061 19.4869C7.10578 19.4866 7.1056 19.4861 7.1056 19.4857V19.3407C7.1056 18.0502 6.12943 16.9837 4.87627 16.8383C4.87587 16.8382 4.8755 16.8381 4.87523 16.8378C4.87496 16.8375 4.87482 16.8371 4.87482 16.8367V10.4666C4.87482 10.4653 4.87623 10.4645 4.87735 10.4651L5.52694 10.8337C5.7294 10.9485 5.95332 11.003 6.17583 11.003C6.62115 11.0029 7.06098 10.7845 7.31199 10.3932C7.49991 10.1026 7.55865 9.76031 7.47746 9.42928C7.39623 9.09815 7.18566 8.82169 6.88458 8.65097L1.98741 5.87311C1.38104 5.52933 0.57971 5.72629 0.200772 6.31261C0.0129911 6.60389 -0.0456496 6.9465 0.0357723 7.27734C0.1171 7.60786 0.327569 7.88386 0.628413 8.05444L2.2231 8.95917C2.22336 8.95931 2.22357 8.95952 2.22372 8.95978C2.22387 8.96004 2.22395 8.96033 2.22394 8.96062V12.4147C2.22394 12.6081 2.37296 12.7775 2.56627 12.7824C2.6132 12.7837 2.6599 12.7755 2.70361 12.7584C2.74733 12.7413 2.78718 12.7156 2.82081 12.6828C2.85443 12.6501 2.88116 12.6109 2.89941 12.5677C2.91766 12.5244 2.92707 12.478 2.92707 12.431V9.36145C2.92707 9.36019 2.92848 9.35934 2.9296 9.36L4.17099 10.0643C4.17125 10.0644 4.17146 10.0646 4.17161 10.0649C4.17176 10.0652 4.17184 10.0655 4.17183 10.0657V16.819C4.17183 16.82 4.17108 16.8207 4.17015 16.8207H2.92871C2.92826 16.8207 2.92783 16.8205 2.92752 16.8202C2.9272 16.8199 2.92702 16.8195 2.92702 16.819V14.175C2.92702 13.9816 2.77801 13.8122 2.58469 13.8073C2.53777 13.806 2.49107 13.8142 2.44735 13.8313C2.40364 13.8484 2.36379 13.8741 2.33016 13.9069C2.29653 13.9396 2.26981 13.9788 2.25155 14.022C2.2333 14.0653 2.2239 14.1117 2.2239 14.1587V16.819C2.2239 16.8199 2.22315 16.8207 2.22221 16.8207H1.01269C0.568085 16.8207 0.207663 17.1811 0.207663 17.6257V23.0074C0.207663 23.4517 0.567897 23.8119 1.01223 23.8119H21.8359C23.0292 23.8119 24 22.8419 24 21.6496C24 20.4573 23.0292 19.4873 21.8359 19.4873ZM11.2323 9.79322C10.831 9.79195 10.822 9.7919 10.666 9.57811L9.34032 7.70114C9.25716 7.58339 9.22566 7.43831 9.25168 7.29248C9.27858 7.14154 9.36216 7.01114 9.48657 6.92564C9.74204 6.75047 10.0926 6.81511 10.2678 7.06936L11.1924 8.41275C11.314 8.58769 11.4494 8.61183 11.5794 8.61183L12.2936 8.60826C12.2945 8.60826 12.2953 8.60901 12.2953 8.60995L12.2978 9.79153C12.2978 9.79247 12.2971 9.79322 12.2961 9.79322H11.2323ZM0.718507 7.10934C0.683819 6.9683 0.709788 6.82064 0.791491 6.69394C0.910179 6.51033 1.12402 6.40673 1.3374 6.40673C1.44235 6.40673 1.54721 6.43181 1.64058 6.48473L6.53785 9.26254L6.5379 9.26259C6.66887 9.33684 6.76009 9.45553 6.79473 9.59681C6.82927 9.7379 6.8034 9.88514 6.72104 10.0125C6.54512 10.2868 6.15708 10.3826 5.87396 10.2221L0.975288 7.44286C0.844272 7.36856 0.7531 7.25015 0.718507 7.10934ZM20.7954 16.6975C20.7803 16.7645 20.739 16.8727 20.7095 16.95C20.6968 16.9833 20.6838 17.0172 20.6712 17.0511L19.7661 19.4862C19.766 19.4865 19.7658 19.4868 19.7655 19.487C19.7652 19.4872 19.7649 19.4873 19.7645 19.4873H19.5542C19.5183 19.4873 19.4437 19.4873 19.3534 19.356C19.1103 19.0024 19.0987 18.2449 19.17 18.0539L19.1848 18.0167L19.1865 18.0125L19.8311 16.3398C19.8313 16.3394 19.8316 16.3391 19.832 16.3389C19.8324 16.3387 19.8328 16.3387 19.8332 16.3388L20.7912 16.6901L20.7954 16.6975ZM17.4201 15.5235L19.1659 16.1057C19.1661 16.1058 19.1663 16.1059 19.1665 16.106C19.1666 16.1062 19.1668 16.1064 19.1669 16.1066C19.167 16.1068 19.167 16.107 19.167 16.1072C19.167 16.1075 19.167 16.1077 19.1669 16.1079L19.023 16.4815L18.6528 17.442C18.6527 17.4424 18.6524 17.4427 18.652 17.4429C18.6516 17.4431 18.6511 17.4431 18.6507 17.443L15.5476 16.3764C15.3369 16.3038 15.2826 16.2301 15.2095 16.0804L14.6113 14.842C14.6111 14.8417 14.611 14.8412 14.6112 14.8408C14.6113 14.8404 14.6116 14.8401 14.6119 14.8399C15.1669 14.5387 16.0157 14.0616 16.552 13.2686C16.5522 13.2683 16.5525 13.2681 16.5528 13.268C16.5531 13.2679 16.5534 13.2678 16.5537 13.2679C16.5541 13.268 16.5544 13.2681 16.5546 13.2684C16.5548 13.2686 16.555 13.2689 16.555 13.2692L16.8536 14.8091C16.9091 15.098 16.9616 15.3709 17.4201 15.5235ZM16.5915 7.91372C16.6394 7.91372 16.6881 7.91995 16.7364 7.93284L16.7448 7.935L16.7458 7.93523L16.7502 7.93622C16.7556 7.93767 16.7611 7.93973 16.7664 7.94161L16.7717 7.94348L19.1707 8.76019C19.3874 8.83458 19.5397 9.03623 19.5512 9.2632V11.638C19.5512 11.7826 19.4928 11.9204 19.3868 12.0258C19.2788 12.1332 19.1317 12.1946 18.9816 12.1946H18.9787C18.6737 12.1937 18.4257 11.9405 18.4257 11.63V10.1031C18.4257 10.0919 18.4264 10.0813 18.4268 10.0714C18.4439 9.7462 18.2485 9.63061 18.131 9.59081L16.4101 9.00431L16.4098 9.00422C16.2684 8.95608 16.154 8.85506 16.0876 8.71983C16.0214 8.58515 16.0114 8.43384 16.0595 8.29317C16.1383 8.06212 16.3567 7.91372 16.5915 7.91372ZM12.6806 1.00856C12.6807 1.00833 12.6808 1.00811 12.681 1.00793C12.6811 1.00775 12.6813 1.0076 12.6816 1.00749C12.6818 1.00739 12.682 1.00733 12.6823 1.00732C12.6825 1.00731 12.6827 1.00735 12.683 1.00744C13.5437 1.36148 14.2228 1.3559 14.7811 1.35108C15.1434 1.34812 15.456 1.34545 15.737 1.44501C16.9692 1.88058 17.1595 2.94351 17.0688 3.84075C17.0688 3.84107 17.0687 3.84137 17.0685 3.84162C17.0683 3.84187 17.068 3.84206 17.0677 3.84215C17.0674 3.84225 17.0671 3.84226 17.0668 3.84218C17.0665 3.8421 17.0662 3.84192 17.066 3.84169C16.9695 3.73312 16.8577 3.63912 16.7342 3.56264L16.7338 3.56231C16.341 3.08376 15.7899 2.64905 15.0642 2.59387C14.4716 2.54897 13.6502 2.37562 13.1226 2.02373L13.1218 2.02322C12.6982 1.74244 12.5553 1.42176 12.6806 1.00856ZM12.6129 4.03331C12.6129 3.58262 12.7519 3.1429 13.0108 2.77401L13.0134 2.77336C13.7836 3.17245 14.7174 3.27272 15.0111 3.29498C16.0166 3.37134 16.6162 4.61372 16.785 5.01689C16.7851 5.0171 16.7851 5.01732 16.7851 5.01755C16.7851 5.01778 16.7851 5.018 16.785 5.0182C16.5546 5.49694 16.2284 5.8372 15.8131 6.03089C15.5296 6.16425 15.1939 6.23184 14.8152 6.23184C14.5498 6.23184 14.2672 6.16725 13.9985 6.04523C13.3088 5.73089 12.6129 4.98689 12.6129 4.03331ZM13.9932 6.79828C13.9934 6.79796 13.9937 6.79773 13.994 6.79761C13.9944 6.79749 13.9948 6.79749 13.9951 6.79762C14.2673 6.88776 14.5461 6.93501 14.8152 6.93501C15.1831 6.93501 15.5238 6.88233 15.832 6.77906C15.8323 6.77894 15.8327 6.77894 15.833 6.77905C15.8334 6.77916 15.8337 6.77938 15.8339 6.77967L16.1803 7.27818C16.1804 7.27839 16.1805 7.27863 16.1805 7.27888C16.1806 7.27913 16.1806 7.27938 16.1805 7.27962C16.1804 7.27987 16.1803 7.28008 16.1801 7.28027C16.1799 7.28045 16.1797 7.28059 16.1795 7.28067C15.8219 7.40437 15.5238 7.68534 15.3941 8.06615C15.2854 8.3842 15.3075 8.72648 15.4565 9.02986C15.6058 9.33384 15.8639 9.56118 16.1833 9.66989L16.7418 9.86029C16.7422 9.86043 16.7425 9.8607 16.7427 9.86105C16.7429 9.8614 16.743 9.86181 16.7429 9.86222L16.3836 11.6723C16.3835 11.6727 16.3833 11.673 16.383 11.6733C16.3827 11.6735 16.3824 11.6737 16.382 11.6737H13.0067C13.0062 11.6737 13.0058 11.6735 13.0055 11.6732C13.0052 11.6728 13.005 11.6724 13.005 11.672L12.9979 8.35776C12.9979 8.35744 12.998 8.35713 12.9982 8.35687L13.9932 6.79828ZM10.9438 14.6369C10.9438 14.3347 11.0557 14.0782 11.2857 13.8531L12.7968 12.3772C12.797 12.377 12.7972 12.3769 12.7974 12.3769C12.7976 12.3768 12.7978 12.3767 12.798 12.3767H16.221C16.2221 12.3767 16.223 12.378 16.2226 12.379C15.8707 13.3584 14.8563 13.9079 14.2208 14.2522C14.1315 14.3005 14.0472 14.3462 13.9774 14.3862L12.8339 15.0251C12.3575 15.2914 12.2702 15.4309 12.2842 15.9031C12.2858 15.9613 12.2878 16.0271 12.2878 16.1063L12.2943 17.5985C12.2943 17.5994 12.2936 17.6002 12.2926 17.6002H10.9456C10.9451 17.6002 10.9447 17.6 10.9444 17.5997C10.944 17.5993 10.9439 17.5989 10.9439 17.5985V14.6369H10.9438ZM9.66577 18.7822C9.97979 18.4555 10.4043 18.3033 10.5923 18.3033H12.2948C12.2958 18.3033 12.2965 18.304 12.2965 18.305L12.2991 19.4857C12.2991 19.4866 12.2984 19.4873 12.2974 19.4873H9.30184C9.30159 19.4873 9.30134 19.4873 9.30111 19.4872C9.30089 19.4871 9.30069 19.4869 9.30053 19.4867C9.30037 19.4865 9.30025 19.4863 9.30019 19.4861C9.30012 19.4858 9.30011 19.4856 9.30015 19.4853C9.34894 19.2201 9.47129 18.9846 9.66577 18.7822ZM0.910741 23.007V17.6257C0.910815 17.5987 0.921576 17.5729 0.940671 17.5538C0.959766 17.5347 0.985643 17.5239 1.01265 17.5238H4.58363C5.58657 17.5238 6.40252 18.3389 6.40252 19.3407V23.1073C6.40252 23.1082 6.40177 23.1089 6.40084 23.1089H1.01269C0.985677 23.1089 0.959795 23.0981 0.940695 23.079C0.921595 23.0599 0.910828 23.034 0.910741 23.007ZM21.8359 23.1089H7.10738C7.10693 23.1089 7.10651 23.1087 7.10619 23.1084C7.10587 23.1081 7.10569 23.1077 7.10569 23.1072V22.0029C7.10569 22.002 7.10644 22.0012 7.10738 22.0012H21.8612C22.0546 22.0012 22.224 21.8522 22.2289 21.6589C22.2302 21.6119 22.222 21.5652 22.2049 21.5215C22.1878 21.4778 22.1621 21.438 22.1293 21.4043C22.0966 21.3707 22.0574 21.344 22.0142 21.3257C21.9709 21.3075 21.9244 21.2981 21.8775 21.2981H7.10738C7.10693 21.2981 7.10651 21.2979 7.10619 21.2976C7.10587 21.2973 7.10569 21.2968 7.10569 21.2964V20.1921C7.10569 20.1911 7.10644 20.1904 7.10738 20.1904H15.126C15.3194 20.1904 15.4887 20.0414 15.4937 19.848C15.4949 19.8011 15.4867 19.7544 15.4696 19.7107C15.4525 19.667 15.4269 19.6271 15.3941 19.5935C15.3613 19.5599 15.3222 19.5332 15.2789 19.5149C15.2357 19.4967 15.1892 19.4872 15.1423 19.4872H13.0039C13.0035 19.4872 13.0031 19.4871 13.0027 19.4868C13.0024 19.4864 13.0022 19.486 13.0022 19.4856L12.999 17.9838V17.9516L12.9989 17.9509L12.999 17.9501L12.9909 16.1047C12.9909 16.0167 12.9887 15.9422 12.9869 15.8823C12.9864 15.8623 12.9857 15.8415 12.9853 15.8216C12.9848 15.8004 12.9899 15.7794 13.0002 15.7608C13.0104 15.7422 13.0254 15.7267 13.0435 15.7157C13.0875 15.6893 13.132 15.6637 13.1769 15.6389L13.9931 15.1828C13.9933 15.1827 13.9935 15.1826 13.9937 15.1826C13.994 15.1826 13.9942 15.1826 13.9944 15.1827C13.9946 15.1827 13.9948 15.1829 13.995 15.183C13.9952 15.1832 13.9953 15.1834 13.9954 15.1836L14.577 16.3874C14.6983 16.6361 14.8721 16.8875 15.319 17.0412L18.445 18.1157C18.4458 18.1159 18.4463 18.1166 18.4462 18.1174C18.4039 18.4965 18.4406 19.0472 18.6281 19.485C18.6282 19.4852 18.6282 19.4855 18.6282 19.4857C18.6282 19.486 18.6281 19.4863 18.628 19.4865C18.6278 19.4867 18.6276 19.4869 18.6274 19.487C18.6271 19.4872 18.6269 19.4872 18.6266 19.4872H16.8262C16.6328 19.4872 16.4634 19.6363 16.4585 19.8296C16.4572 19.8765 16.4654 19.9232 16.4825 19.9669C16.4996 20.0106 16.5253 20.0505 16.5581 20.0841C16.5908 20.1177 16.63 20.1445 16.6732 20.1627C16.7165 20.181 16.763 20.1904 16.8099 20.1904H21.836C22.6415 20.1904 23.2969 20.845 23.2969 21.6496C23.2968 22.4543 22.6415 23.1089 21.8359 23.1089Z" fill="black"/>
<path d="M3.60166 20.8522H2.90074C2.70733 20.8522 2.53797 21.0012 2.533 21.1945C2.53177 21.2414 2.53995 21.2881 2.55705 21.3319C2.57416 21.3756 2.59985 21.4154 2.6326 21.449C2.66536 21.4827 2.70451 21.5094 2.74776 21.5277C2.79101 21.5459 2.83748 21.5553 2.88443 21.5553H3.58539C3.7788 21.5553 3.94816 21.4063 3.95313 21.213C3.95436 21.1661 3.94618 21.1194 3.92907 21.0756C3.91197 21.0319 3.88627 20.9921 3.85351 20.9584C3.82076 20.9248 3.78159 20.8981 3.73834 20.8798C3.69508 20.8616 3.64861 20.8522 3.60166 20.8522ZM3.60232 19.1914H2.90008C2.70668 19.1914 2.53732 19.3404 2.53235 19.5337C2.53111 19.5807 2.53929 19.6274 2.5564 19.6711C2.5735 19.7148 2.59919 19.7546 2.63195 19.7883C2.6647 19.8219 2.70386 19.8486 2.74711 19.8669C2.79036 19.8851 2.83683 19.8945 2.88377 19.8945H3.586C3.77941 19.8945 3.94877 19.7455 3.95374 19.5522C3.95498 19.5053 3.9468 19.4586 3.9297 19.4149C3.9126 19.3711 3.88691 19.3313 3.85415 19.2977C3.8214 19.264 3.78224 19.2373 3.73899 19.2191C3.69573 19.2008 3.64926 19.1914 3.60232 19.1914Z" fill="black"/>
</g>
<defs>
<clipPath id="clip0_268_2872">
<rect width="24" height="24" fill="white"/>
</clipPath>
</defs>
</svg>
