<svg width="24" height="24" viewBox="0 0 24 24" fill="none" xmlns="http://www.w3.org/2000/svg">
<path d="M0.445312 7.07031H4.39055V16.9296H0.445312" stroke="black" stroke-width="0.703125" stroke-miterlimit="10" stroke-linecap="round" stroke-linejoin="round"/>
<path d="M0.445312 9.38589H2.41791V14.6141H0.445312M12 4V20" stroke="black" stroke-width="0.703125" stroke-miterlimit="10" stroke-linecap="round" stroke-linejoin="round"/>
<path d="M12 15.094C13.7093 15.094 15.0949 13.7084 15.0949 11.9992C15.0949 10.2899 13.7093 8.9043 12 8.9043C10.2908 8.9043 8.90515 10.2899 8.90515 11.9992C8.90515 13.7084 10.2908 15.094 12 15.094Z" stroke="black" stroke-width="0.703125" stroke-miterlimit="10" stroke-linecap="round" stroke-linejoin="round"/>
<path d="M23.5546 7.07031H19.6094V16.9296H23.5546M4.3905 9.24742V14.7525C5.38824 14.2388 6.07111 13.1995 6.07111 11.9999C6.07111 10.8004 5.38824 9.76113 4.3905 9.24742Z" stroke="black" stroke-width="0.703125" stroke-miterlimit="10" stroke-linecap="round" stroke-linejoin="round"/>
<path d="M23.5547 9.38584H21.5821V14.6141H23.5547M17.7186 20H1.37836C0.811266 20 0.351562 19.5403 0.351562 18.9732V5.0268C0.351562 4.4597 0.811266 4 1.37836 4H4.15622M19.6095 9.24742V14.7525C18.6117 14.2388 17.9288 13.1995 17.9288 11.9999C17.9288 10.8004 18.6117 9.76113 19.6095 9.24742Z" stroke="black" stroke-width="0.703125" stroke-miterlimit="10" stroke-linecap="round" stroke-linejoin="round"/>
<path d="M5.797 4H22.6216C23.1887 4 23.6484 4.4597 23.6484 5.0268V18.9732C23.6484 19.5403 23.1887 20 22.6216 20H19.3593" stroke="black" stroke-width="0.703125" stroke-miterlimit="10" stroke-linecap="round" stroke-linejoin="round"/>
</svg>
