<svg width="24" height="24" viewBox="0 0 24 24" fill="none" xmlns="http://www.w3.org/2000/svg">
<g clip-path="url(#clip0_266_2293)">
<path d="M22.8 0H1.2C0.5373 0 0 0.5373 0 1.2V14.8C0 15.4627 0.5373 16 1.2 16H22.8C23.4627 16 24 15.4627 24 14.8V1.2C24 0.5373 23.4627 0 22.8 0ZM23.2 14.8C23.2 14.9061 23.1579 15.0078 23.0828 15.0828C23.0078 15.1579 22.9061 15.2 22.8 15.2H1.2C1.09391 15.2 0.992172 15.1579 0.917157 15.0828C0.842143 15.0078 0.8 14.9061 0.8 14.8V1.2C0.8 1.09391 0.842143 0.992172 0.917157 0.917157C0.992172 0.842143 1.09391 0.8 1.2 0.8H22.8C22.9061 0.8 23.0078 0.842143 23.0828 0.917157C23.1579 0.992172 23.2 1.09391 23.2 1.2V14.8ZM10 20.8H7.6C6.9373 20.8 6.4 21.3373 6.4 22V24H11.2V22C11.2 21.3373 10.6627 20.8 10 20.8ZM7.2 23.2V22C7.2 21.8939 7.24214 21.7922 7.31716 21.7172C7.39217 21.6421 7.49391 21.6 7.6 21.6H10C10.1061 21.6 10.2078 21.6421 10.2828 21.7172C10.3579 21.7922 10.4 21.8939 10.4 22V23.2H7.2ZM3.6 20.8H1.2C0.5373 20.8 0 21.3373 0 22V24H4.8V22C4.8 21.3373 4.2627 20.8 3.6 20.8ZM0.8 23.2V22C0.8 21.8939 0.842143 21.7922 0.917157 21.7172C0.992172 21.6421 1.09391 21.6 1.2 21.6H3.6C3.70609 21.6 3.80783 21.6421 3.88284 21.7172C3.95786 21.7922 4 21.8939 4 22V23.2H0.8ZM16.4 20.8H14C13.3373 20.8 12.8 21.3373 12.8 22V24H17.6V22C17.6 21.3373 17.0627 20.8 16.4 20.8ZM13.6 23.2V22C13.6 21.8939 13.6421 21.7922 13.7172 21.7172C13.7922 21.6421 13.8939 21.6 14 21.6H16.4C16.5061 21.6 16.6078 21.6421 16.6828 21.7172C16.7579 21.7922 16.8 21.8939 16.8 22V23.2H13.6ZM22.8 20.8H20.4C19.7373 20.8 19.2 21.3373 19.2 22V24H24V22C24 21.3373 23.4627 20.8 22.8 20.8ZM20 23.2V22C20 21.8939 20.0421 21.7922 20.1172 21.7172C20.1922 21.6421 20.2939 21.6 20.4 21.6H22.8C22.9061 21.6 23.0078 21.6421 23.0828 21.7172C23.1579 21.7922 23.2 21.8939 23.2 22V23.2H20ZM20.8 18.8C20.8 18.1373 20.2627 17.6 19.6 17.6H17.2C16.5373 17.6 16 18.1373 16 18.8V20.4H20.8V18.8ZM16.8 18.8C16.8 18.6939 16.8421 18.5922 16.9172 18.5172C16.9922 18.4421 17.0939 18.4 17.2 18.4H19.6C19.7061 18.4 19.8078 18.4421 19.8828 18.5172C19.9579 18.5922 20 18.6939 20 18.8V19.6H16.8V18.8ZM14.4 18.8C14.4 18.1373 13.8627 17.6 13.2 17.6H10.8C10.1373 17.6 9.6 18.1373 9.6 18.8V20.4H14.4V18.8ZM10.4 18.8C10.4 18.6939 10.4421 18.5922 10.5172 18.5172C10.5922 18.4421 10.6939 18.4 10.8 18.4H13.2C13.3061 18.4 13.4078 18.4421 13.4828 18.5172C13.5579 18.5922 13.6 18.6939 13.6 18.8V19.6H10.4V18.8ZM8 18.8C8 18.1373 7.4627 17.6 6.8 17.6H4.4C3.7373 17.6 3.2 18.1373 3.2 18.8V20.4H8V18.8ZM4 18.8C4 18.6939 4.04214 18.5922 4.11716 18.5172C4.19217 18.4421 4.29391 18.4 4.4 18.4H6.8C6.90609 18.4 7.00783 18.4421 7.08284 18.5172C7.15786 18.5922 7.2 18.6939 7.2 18.8V19.6H4V18.8Z" fill="black"/>
</g>
<defs>
<clipPath id="clip0_266_2293">
<rect width="24" height="24" fill="white"/>
</clipPath>
</defs>
</svg>
