<svg width="26" height="26" viewBox="0 0 26 26" fill="none" xmlns="http://www.w3.org/2000/svg">
<path d="M20.1499 2.26758H5.84987C4.90737 2.26758 4.1355 3.03945 4.1355 3.98195V22.0113C4.1355 22.9538 4.90737 23.7257 5.84987 23.7257H9.563H16.4449H20.158C21.1005 23.7257 21.8724 22.9538 21.8724 22.0113V3.99008C21.8642 3.03945 21.1005 2.26758 20.1499 2.26758ZM9.25425 22.6126V11.6195C9.25425 11.4488 9.39237 11.3107 9.563 11.3107H12.6424V22.9132H9.563C9.39237 22.9213 9.25425 22.7832 9.25425 22.6126ZM13.4549 22.9213V11.3107H16.4449C16.6155 11.3107 16.7536 11.4488 16.7536 11.6195V22.6126C16.7536 22.7832 16.6155 22.9213 16.4449 22.9213H13.4549ZM21.0517 22.0113C21.0517 22.507 20.6455 22.9132 20.1499 22.9132H17.5092C17.5336 22.8157 17.558 22.7101 17.558 22.6045V11.6195C17.558 11.002 17.0542 10.4982 16.4367 10.4982H9.55487C8.93737 10.4982 8.43362 11.002 8.43362 11.6195V22.6126C8.43362 22.7182 8.44987 22.8238 8.48237 22.9213H5.84987C5.35425 22.9213 4.948 22.5151 4.948 22.0195V3.99008C4.948 3.49445 5.35425 3.0882 5.84987 3.0882H20.1499C20.6455 3.0882 21.0517 3.49445 21.0517 3.99008V22.0113Z" fill="#231F20"/>
<path d="M9.98486 9.25508H11.488L10.7324 7.95508L9.98486 9.25508ZM10.6917 8.84883L10.7405 8.76758L10.7892 8.84883H10.6917ZM15.0549 9.58008L15.8105 8.28008H14.2992L15.0549 9.58008ZM15.0549 8.76758L15.0061 8.68633H15.1036L15.0549 8.76758Z" fill="#231F20"/>
</svg>
