<svg width="24" height="24" viewBox="0 0 24 24" fill="none" xmlns="http://www.w3.org/2000/svg">
<path d="M20.0034 5.28178C20.2318 5.28178 20.4168 5.09672 20.4168 4.86848V0.413297C20.4168 0.185016 20.2318 0 20.0034 0H3.99948C3.7712 0 3.58618 0.185063 3.58618 0.413297V23.5867C3.58618 23.8149 3.77124 24 3.99948 24H20.0035C20.2318 24 20.4168 23.8149 20.4168 23.5867V6.52167C20.4168 6.29339 20.2318 6.10837 20.0035 6.10837C19.7752 6.10837 19.5902 6.29344 19.5902 6.52167V23.1734H4.41278V0.826641H19.5902V4.86844C19.5902 5.09672 19.7752 5.28178 20.0034 5.28178Z" fill="black"/>
<path d="M18.1434 11.601H13.9097V10.9265H17.4813C17.7097 10.9265 17.8946 10.7414 17.8946 10.5131V7.52072C17.8946 7.29244 17.7096 7.10742 17.4813 7.10742H9.80083C9.57255 7.10742 9.38753 7.29248 9.38753 7.52072C9.38753 7.74895 9.5726 7.93402 9.80083 7.93402H17.068V10.0998H6.93175V7.93402H8.065C8.29328 7.93402 8.47835 7.74895 8.47835 7.52072C8.47835 7.29248 8.29328 7.10742 8.065 7.10742H6.51841C6.29013 7.10742 6.10511 7.29248 6.10511 7.52072V10.5131C6.10511 10.7414 6.29017 10.9265 6.51841 10.9265H10.09V11.601H5.85658C5.6283 11.601 5.44324 11.7861 5.44324 12.0143V17.6807C5.44324 17.909 5.6283 18.094 5.85658 18.094C6.08486 18.094 6.26988 17.9089 6.26988 17.6807V12.4276H10.09V15.0298H8.77113C8.54285 15.0298 8.35783 15.2149 8.35783 15.4431V17.9005C8.35783 18.1288 8.54289 18.3138 8.77113 18.3138H10.09V19.6722C10.09 19.9005 10.2751 20.0855 10.5033 20.0855H13.4964C13.7247 20.0855 13.9097 19.9005 13.9097 19.6722V15.8565H14.8155V17.4872H14.6502C14.4219 17.4872 14.2369 17.6723 14.2369 17.9005C14.2369 18.1287 14.4219 18.3138 14.6502 18.3138H15.2288C15.4571 18.3138 15.6421 18.1287 15.6421 17.9005V15.4431C15.6421 15.2148 15.4571 15.0298 15.2288 15.0298H13.9096V12.4276H17.7299V20.9161H6.26988V19.2513C6.26988 19.023 6.08482 18.8379 5.85658 18.8379C5.62835 18.8379 5.44328 19.023 5.44328 19.2512V21.3293C5.44328 21.5576 5.62835 21.7426 5.85658 21.7426H18.1434C18.3717 21.7426 18.5567 21.5576 18.5567 21.3293V12.0143C18.5567 11.7861 18.3717 11.601 18.1434 11.601ZM10.09 17.4872H9.18442V15.8565H10.09V17.4872ZM13.0831 19.259H10.9167V10.9265H13.0831V19.259Z" fill="black"/>
<path d="M8.40058 2.34027C8.62886 2.34027 8.81387 2.1552 8.81387 1.92697C8.81387 1.69869 8.62881 1.51367 8.40058 1.51367H6.68612C6.45784 1.51367 6.27283 1.69873 6.27283 1.92697V5.92728C6.27283 6.15556 6.45789 6.34058 6.68612 6.34058C6.91436 6.34058 7.09942 6.15552 7.09942 5.92728V4.36902H8.05764C8.28592 4.36902 8.47094 4.18395 8.47094 3.95572C8.47094 3.72748 8.28587 3.54242 8.05764 3.54242H7.09947V2.34027H8.40058Z" fill="black"/>
<path d="M10.0011 1.51367C9.77278 1.51367 9.58777 1.69873 9.58777 1.92697V5.92728C9.58777 6.15556 9.77283 6.34058 10.0011 6.34058C10.2293 6.34058 10.4144 6.15556 10.4144 5.92733V1.92702C10.4144 1.69873 10.2293 1.51367 10.0011 1.51367Z" fill="black"/>
<path d="M17.3137 5.51394H16.0126V4.36902H16.9708C17.1991 4.36902 17.3841 4.18395 17.3841 3.95572C17.3841 3.72748 17.1991 3.54242 16.9708 3.54242H16.0126V2.34027H17.3137C17.542 2.34027 17.727 2.1552 17.727 1.92697C17.727 1.69869 17.5419 1.51367 17.3137 1.51367H15.5992C15.3709 1.51367 15.1859 1.69873 15.1859 1.92697V5.92728C15.1859 6.15556 15.3709 6.34058 15.5992 6.34058H17.3137C17.542 6.34058 17.727 6.15552 17.727 5.92728C17.727 5.69905 17.5419 5.51394 17.3137 5.51394Z" fill="black"/>
<path d="M14.4096 5.70833L13.5684 4.36241C14.0691 4.11936 14.4152 3.6058 14.4152 3.01283C14.4152 2.18619 13.7427 1.51367 12.9161 1.51367H11.916C11.6877 1.51367 11.5027 1.69873 11.5027 1.92697V5.92728C11.5027 6.15556 11.6877 6.34058 11.916 6.34058C12.1442 6.34058 12.3293 6.15552 12.3293 5.92728V4.51194H12.6869L13.7085 6.14642C13.787 6.27186 13.9216 6.34072 14.0594 6.34072C14.1342 6.34072 14.21 6.32042 14.2781 6.27786C14.4717 6.15687 14.5306 5.90183 14.4096 5.70833ZM12.916 3.6853H12.3293V2.34031H12.916C13.2868 2.34031 13.5885 2.642 13.5885 3.01283C13.5885 3.38366 13.2868 3.6853 12.916 3.6853Z" fill="black"/>
</svg>
