<svg width="24" height="24" viewBox="0 0 24 24" fill="none" xmlns="http://www.w3.org/2000/svg">
<g clip-path="url(#clip0_266_2407)">
<path fill-rule="evenodd" clip-rule="evenodd" d="M11.9374 15.198C11.6611 15.198 11.2037 15.1051 10.5933 14.6628C10.1326 14.3289 9.694 13.8663 9.35815 13.36C9.07305 12.9303 8.91602 12.6816 8.85555 12.5821C8.37171 12.4638 7.95197 11.8937 7.81826 11.1577C7.7538 10.8031 7.76306 10.4549 7.84473 10.1511C7.92289 9.86057 8.06035 9.63477 8.24526 9.49181C8.24537 9.48021 8.24537 9.46885 8.24526 9.45677C8.24526 9.44037 8.24515 9.42419 8.2455 9.4072C8.25463 8.83922 8.28991 8.4606 8.3635 8.1413L8.91156 8.26762C8.84734 8.54639 8.8163 8.88996 8.80786 9.41636C8.80762 9.4296 8.80775 9.44225 8.80775 9.45514C8.80786 9.48888 8.80798 9.52709 8.80481 9.57747C8.79497 9.73438 8.73169 9.84898 8.61674 9.91812C8.41647 10.0385 8.27012 10.4975 8.37183 11.0572C8.45198 11.4989 8.7201 12.0004 9.01351 12.0405C9.14124 12.058 9.24506 12.1338 9.32182 12.2658C9.36154 12.334 9.53369 12.6071 9.82699 13.0492C10.3443 13.8291 11.2752 14.6357 11.9376 14.6357C12.6308 14.6357 13.4012 14.1091 14.2927 13.026C14.5649 12.6952 14.6728 12.4791 14.7371 12.3501C14.7515 12.3213 14.764 12.2963 14.7767 12.2729L14.7786 12.2696C14.7902 12.2489 14.8972 12.0677 15.0857 12.0403C15.3783 11.9978 15.6456 11.497 15.7255 11.0574C15.8055 10.617 15.7409 10.0709 15.4942 9.91952C15.416 9.87148 15.319 9.77445 15.3023 9.58602C15.3001 9.5606 15.2974 9.5354 15.2949 9.5122C15.2913 9.47775 15.2881 9.44798 15.2865 9.42138C15.2823 9.35189 15.2784 9.2858 15.2746 9.22299C15.2465 8.74841 15.2295 8.46202 15.1815 8.23656L15.7315 8.11914C15.7885 8.3862 15.8064 8.68864 15.8361 9.18971C15.8398 9.2524 15.8437 9.31813 15.8479 9.38739C15.8487 9.4011 15.8515 9.42723 15.8542 9.45253C15.8554 9.46402 15.8567 9.47586 15.858 9.48792C16.2411 9.78181 16.4097 10.4377 16.279 11.1578C16.2134 11.5191 16.0791 11.8466 15.8906 12.1046C15.7085 12.3539 15.484 12.52 15.2511 12.5799C15.2477 12.5866 15.2442 12.5937 15.2404 12.6012C15.1702 12.7418 15.0397 13.0034 14.7269 13.3834C14.2526 13.9597 13.8132 14.385 13.3835 14.6833C12.8917 15.0248 12.4051 15.198 11.9374 15.198Z" fill="#212121"/>
<path fill-rule="evenodd" clip-rule="evenodd" d="M12.0013 20.7169H11.9472C11.802 20.717 11.6551 20.7167 11.511 20.7159C8.93266 20.6927 6.50993 20.3376 5.57939 20.1848C5.39107 20.1539 5.22619 20.0428 5.12707 19.8801C5.02806 19.7178 5.00497 19.521 5.06345 19.34C5.28363 18.6603 5.68111 17.4739 5.85489 17.0146C6.1871 16.1365 6.36697 15.7059 6.82141 15.5112C7.0566 15.4105 7.66066 15.2948 8.4882 15.1424C8.77729 15.0892 9.02701 15.0433 9.17887 15.01C9.49972 14.9397 9.78387 14.7964 10.0238 14.5841C10.2156 14.4142 10.3104 14.2589 10.3251 14.2267C10.3246 14.2281 10.3098 14.2607 10.308 14.31L10.8702 14.3302C10.8688 14.3693 10.8662 14.4423 10.7406 14.6231C10.6874 14.6998 10.5954 14.8183 10.4597 14.9475C10.2369 15.1596 9.85478 15.4379 9.29934 15.5596C9.13833 15.5949 8.88428 15.6417 8.59016 15.6958C8.05195 15.7948 7.23859 15.9446 7.04301 16.0284C6.82178 16.1232 6.69663 16.3799 6.38106 17.2138C6.21045 17.6648 5.81706 18.8391 5.59863 19.5135C5.58762 19.5473 5.59945 19.5744 5.60742 19.5874C5.6155 19.6007 5.63449 19.624 5.6707 19.6298C6.60077 19.7825 9.04236 20.1393 11.62 20.1534C11.7286 20.1539 11.8383 20.1544 11.9473 20.1544H12.0014H12.0551C12.1643 20.1544 12.274 20.1543 12.3828 20.1539C14.9604 20.1398 17.402 19.7826 18.3321 19.6298C18.3682 19.6238 18.3873 19.6006 18.3953 19.5874C18.4033 19.5743 18.415 19.5473 18.4041 19.5133C18.1858 18.8391 17.7924 17.6648 17.6217 17.2136C17.3062 16.3798 17.1811 16.123 16.9597 16.0282C16.7642 15.9444 15.9508 15.7947 15.4126 15.6957C15.1185 15.6415 14.8644 15.5948 14.7034 15.5595C14.148 15.4378 13.7659 15.1595 13.5431 14.9474C13.4074 14.8182 13.3154 14.6996 13.2622 14.623C13.1366 14.4421 13.134 14.3692 13.1326 14.33L13.6947 14.3099C13.693 14.2606 13.6782 14.228 13.6776 14.2266C13.6925 14.2589 13.7872 14.4142 13.979 14.584C14.2189 14.7963 14.503 14.9396 14.8239 15.01C14.9756 15.0433 15.2254 15.0892 15.5144 15.1424C16.3421 15.2948 16.946 15.4104 17.1813 15.5112C17.6358 15.7059 17.8156 16.1366 18.1479 17.0146C18.3216 17.4739 18.7191 18.6603 18.9393 19.34C18.9979 19.5208 18.9747 19.7177 18.8757 19.8801C18.7765 20.0429 18.6116 20.1539 18.4234 20.1848C17.4928 20.3376 15.0701 20.6918 12.4917 20.715C12.3477 20.7159 12.2009 20.717 12.0552 20.7169L12.0013 20.7169Z" fill="#212121"/>
<path fill-rule="evenodd" clip-rule="evenodd" d="M15.8114 7.81385C15.7105 7.81385 15.613 7.75947 15.5625 7.66397C15.4898 7.52664 15.5423 7.35648 15.6797 7.28383C15.9236 7.15481 16.1116 6.96873 16.2383 6.73086C16.3454 6.52977 16.4044 6.29342 16.4044 6.06549C16.4044 5.7921 16.3018 5.52283 16.0992 5.26491C15.8891 4.9975 15.5835 4.75459 15.1907 4.54319C14.3528 4.09216 13.2328 3.84374 12.0367 3.84374C10.8407 3.84374 9.72064 4.09216 8.88281 4.54319C8.49013 4.75459 8.18452 4.99739 7.9743 5.26491C7.77169 5.52272 7.66903 5.79212 7.66903 6.06549C7.66903 6.59856 7.91559 7.0101 8.40201 7.2884C8.53677 7.36551 8.58352 7.53742 8.50642 7.67216C8.42931 7.80693 8.2574 7.85368 8.12265 7.77658C7.76946 7.57444 7.50323 7.31078 7.33157 6.99275C7.1824 6.71655 7.10669 6.40449 7.10669 6.06549C7.10669 5.66308 7.24977 5.27685 7.53206 4.91746C7.79021 4.58876 8.155 4.29627 8.61623 4.04796C9.53458 3.55357 10.7493 3.28125 12.0368 3.28125C13.3242 3.28125 14.5391 3.55359 15.4573 4.04796C15.9185 4.29627 16.2832 4.58887 16.5415 4.91746C16.8238 5.27674 16.9668 5.66308 16.9668 6.06549C16.9668 6.38868 16.8866 6.71023 16.7347 6.99533C16.5567 7.32953 16.2829 7.60116 15.9425 7.78114C15.9008 7.80342 15.8558 7.81385 15.8114 7.81385Z" fill="#212121"/>
<path fill-rule="evenodd" clip-rule="evenodd" d="M15.3908 6.20663C15.324 6.20663 15.257 6.18296 15.2033 6.13491C14.8715 5.83774 13.9864 5.58731 12.9485 5.49698C12.7937 5.4835 12.6793 5.3471 12.6927 5.19242C12.7062 5.03763 12.8426 4.92325 12.9973 4.93661C14.2018 5.04149 15.1426 5.32554 15.5787 5.71599C15.6943 5.81958 15.7042 5.99746 15.6006 6.11312C15.5448 6.17499 15.4679 6.20663 15.3908 6.20663Z" fill="#212121"/>
<path fill-rule="evenodd" clip-rule="evenodd" d="M8.68164 6.20529C8.60488 6.20529 8.52837 6.174 8.47282 6.1126C8.36864 5.9973 8.37779 5.81953 8.49297 5.71535C8.71245 5.51708 9.06282 5.34681 9.53425 5.20924C9.97321 5.08116 10.5055 4.98695 11.0734 4.93668C11.228 4.92285 11.3646 5.03734 11.3783 5.19202C11.3921 5.3467 11.2777 5.48322 11.123 5.49692C10.0796 5.58927 9.19535 5.83886 8.87007 6.13264C8.8163 6.18139 8.74891 6.20529 8.68164 6.20529Z" fill="#212121"/>
<path fill-rule="evenodd" clip-rule="evenodd" d="M12.0358 10.0245C11.1269 10.0245 10.2474 9.77911 9.49211 9.31483C8.77706 8.87529 8.24683 8.27835 7.99886 7.6341C7.96557 7.54763 7.97706 7.45024 8.02956 7.37396C8.08205 7.29767 8.16876 7.25197 8.26134 7.25197L15.8101 7.25195C15.9028 7.25195 15.9895 7.29765 16.0419 7.37394C16.0942 7.45023 16.1058 7.54761 16.0726 7.63409C15.8247 8.27836 15.2944 8.87515 14.5793 9.31482C13.8242 9.77909 12.9446 10.0245 12.0358 10.0245ZM8.7165 7.81443C8.9572 8.19866 9.32572 8.55233 9.78672 8.83566C10.4532 9.24545 11.231 9.462 12.0358 9.462C12.8406 9.462 13.6183 9.24545 14.2849 8.83566C14.7458 8.5522 15.1145 8.19866 15.3551 7.81443H8.7165Z" fill="#212121"/>
<path fill-rule="evenodd" clip-rule="evenodd" d="M12.0364 6.85033C11.9995 6.85033 11.962 6.84307 11.9259 6.82759C11.6992 6.73057 11.5013 6.5951 11.3377 6.42507C10.9175 5.98834 10.8469 5.46066 10.8002 5.11147C10.7667 4.86093 10.7634 4.60454 10.7906 4.3492C10.807 4.19475 10.9456 4.08284 11.0999 4.09925C11.2544 4.11566 11.3663 4.25417 11.3499 4.40861C11.3275 4.61943 11.3301 4.83081 11.3577 5.03694C11.3968 5.3299 11.4506 5.73112 11.743 6.03509C11.8541 6.15063 11.9901 6.24321 12.1472 6.31047C12.29 6.37165 12.3562 6.53687 12.295 6.6797C12.2495 6.78634 12.1455 6.85033 12.0364 6.85033Z" fill="#212121"/>
<path fill-rule="evenodd" clip-rule="evenodd" d="M12.0338 6.85031C11.9246 6.85031 11.8208 6.78633 11.7751 6.6797C11.7139 6.53686 11.7803 6.37163 11.923 6.31047C12.0801 6.24321 12.216 6.15063 12.3271 6.03509C12.6196 5.73111 12.6733 5.3299 12.7124 5.03694C12.74 4.83081 12.7427 4.61941 12.7203 4.40861C12.7039 4.25417 12.8158 4.11565 12.9702 4.09925C13.1246 4.08285 13.2632 4.19475 13.2796 4.3492C13.3068 4.60454 13.3035 4.86093 13.27 5.11147C13.2232 5.46067 13.1527 5.98834 12.7325 6.42507C12.5689 6.5951 12.3709 6.73057 12.1442 6.82759C12.1082 6.84305 12.0707 6.85031 12.0338 6.85031Z" fill="#212121"/>
<path fill-rule="evenodd" clip-rule="evenodd" d="M11.5461 4.89042C11.282 4.89042 11.0419 4.77803 10.8554 4.56337C10.7536 4.44607 10.766 4.26854 10.8832 4.16659C11.0005 4.06476 11.178 4.07718 11.28 4.19437C11.3776 4.30675 11.4828 4.34577 11.6212 4.32082C11.7479 4.29797 11.8507 4.22907 11.8618 4.22133C11.9813 4.12946 12.153 4.14821 12.2498 4.26527C12.3487 4.38503 12.3318 4.56233 12.2122 4.66123C12.2104 4.66276 12.0264 4.80993 11.7537 4.86794C11.6833 4.88303 11.614 4.89042 11.5461 4.89042Z" fill="#212121"/>
<path fill-rule="evenodd" clip-rule="evenodd" d="M12.5213 4.89039C12.4535 4.89039 12.3841 4.88301 12.3137 4.86801C12.0403 4.81 11.8564 4.6627 11.8547 4.6613C11.7349 4.5624 11.7181 4.3851 11.8171 4.26534C11.9137 4.14828 12.0854 4.12953 12.2049 4.22129C12.2163 4.22914 12.3192 4.29805 12.4462 4.3209C12.585 4.34574 12.6903 4.30684 12.7879 4.19445C12.8898 4.07716 13.0674 4.06473 13.1847 4.16667C13.3019 4.26851 13.3144 4.44615 13.2125 4.56345C13.0259 4.77811 12.7857 4.89039 12.5213 4.89039Z" fill="#212121"/>
</g>
<defs>
<clipPath id="clip0_266_2407">
<rect width="24" height="24" fill="white"/>
</clipPath>
</defs>
</svg>
