<svg width="24" height="24" viewBox="0 0 24 24" fill="none" xmlns="http://www.w3.org/2000/svg">
<path d="M2.68092 7.87695C2.04742 7.87695 1.53198 8.39234 1.53198 9.02589C1.53198 9.65944 2.04742 10.1748 2.68092 10.1748C3.31442 10.1748 3.82985 9.65944 3.82985 9.02589C3.82985 8.39234 3.31442 7.87695 2.68092 7.87695ZM2.68092 8.64291C2.89212 8.64291 3.0639 8.81469 3.0639 9.02589C3.0639 9.23709 2.89212 9.40887 2.68092 9.40887C2.46972 9.40887 2.29794 9.23709 2.29794 9.02589C2.29794 8.81469 2.46972 8.64291 2.68092 8.64291Z" fill="black"/>
<path d="M6.40178 11.707H4.97868C4.76712 11.707 4.5957 11.8785 4.5957 12.09C4.5957 12.3015 4.76712 12.473 4.97868 12.473H6.40178C6.61334 12.473 6.78476 12.3015 6.78476 12.09C6.78476 11.8785 6.61334 11.707 6.40178 11.707Z" fill="black"/>
<path d="M2.68092 10.9414C2.04742 10.9414 1.53198 11.4568 1.53198 12.0903C1.53198 12.7239 2.04742 13.2393 2.68092 13.2393C3.31442 13.2393 3.82985 12.7239 3.82985 12.0903C3.82985 11.4568 3.31442 10.9414 2.68092 10.9414ZM2.68092 11.7074C2.89212 11.7074 3.0639 11.8791 3.0639 12.0903C3.0639 12.3015 2.89212 12.4733 2.68092 12.4733C2.46972 12.4733 2.29794 12.3015 2.29794 12.0903C2.29794 11.8791 2.46972 11.7074 2.68092 11.7074Z" fill="black"/>
<path d="M15.9574 7.87695H8.04252C7.83097 7.87695 7.65955 8.04843 7.65955 8.25993V12.8557C7.65955 13.0672 7.83097 13.2387 8.04252 13.2387H12.8936C13.105 13.2387 13.2765 13.0673 13.2766 12.8558C13.2766 12.6441 13.1051 12.4727 12.8936 12.4727H8.4255V8.64291H15.5744V12.4727H14.4255C14.2139 12.4727 14.0425 12.6442 14.0425 12.8557C14.0426 13.0673 14.214 13.2387 14.4255 13.2387H15.9574C16.169 13.2387 16.3404 13.0672 16.3404 12.8557V8.25993C16.3404 8.04843 16.169 7.87695 15.9574 7.87695Z" fill="black"/>
<path d="M19.7873 10.1758C18.3091 10.1758 17.1064 11.3784 17.1064 12.8566C17.1064 14.3349 18.3091 15.5375 19.7873 15.5375C21.2655 15.5375 22.4681 14.3349 22.4681 12.8566C22.4681 11.3784 21.2655 10.1758 19.7873 10.1758ZM20.1703 14.733V13.878C20.1703 13.6665 19.9989 13.495 19.7873 13.495C19.5757 13.495 19.4043 13.6665 19.4043 13.878V14.733C18.5313 14.5551 17.8724 13.7814 17.8724 12.8567C17.8724 11.8008 18.7314 10.9418 19.7873 10.9418C20.8432 10.9418 21.7022 11.8008 21.7022 12.8567C21.7022 13.7814 21.0433 14.5551 20.1703 14.733Z" fill="black"/>
<path d="M22.8332 4.54883H1.16676C0.523404 4.54883 0 5.07223 0 5.71559V16.7507C0 17.3941 0.523404 17.9175 1.16676 17.9175H1.29442V19.0665C1.29442 19.278 1.46584 19.4495 1.6774 19.4495H4.97872C5.19028 19.4495 5.3617 19.278 5.3617 19.0665V17.9175H18.6383V19.0665C18.6383 19.278 18.8097 19.4495 19.0213 19.4495H22.3226C22.5341 19.4495 22.7055 19.278 22.7055 19.0665V17.9175H22.8332C23.4766 17.9175 24 17.3941 24 16.7507V5.71559C24 5.07223 23.4766 4.54883 22.8332 4.54883ZM23.234 16.7507C23.234 16.9717 23.0542 17.1516 22.8332 17.1516H1.16676C0.945753 17.1516 0.765957 16.9718 0.765957 16.7507V5.71559C0.765957 5.49458 0.945753 5.31479 1.16676 5.31479H22.8332C23.0542 5.31479 23.234 5.49458 23.234 5.71559V16.7507ZM19.4043 18.6835V17.9175H21.9396V18.6835H19.4043ZM2.06037 18.6835V17.9175H4.59574V18.6835H2.06037Z" fill="black"/>
<path d="M6.40178 8.64453H4.97868C4.76712 8.64453 4.5957 8.816 4.5957 9.02751C4.5957 9.23902 4.76712 9.41049 4.97868 9.41049H6.40178C6.61334 9.41049 6.78476 9.23902 6.78476 9.02751C6.78476 8.816 6.61334 8.64453 6.40178 8.64453Z" fill="black"/>
</svg>
