<svg width="24" height="24" viewBox="0 0 24 24" fill="none" xmlns="http://www.w3.org/2000/svg">
<path d="M21.3 7.65L19.125 4.75125V3.375C19.125 3.27554 19.0855 3.18016 19.0152 3.10984C18.9448 3.03951 18.8495 3 18.75 3H5.25C5.15054 3 5.05516 3.03951 4.98484 3.10984C4.91451 3.18016 4.875 3.27554 4.875 3.375V4.75125L2.7 7.65C2.65132 7.71491 2.625 7.79386 2.625 7.875V8.625C2.625 8.91608 2.69277 9.20317 2.82295 9.46353C2.95313 9.72388 3.14213 9.95035 3.375 10.125V20.625C3.375 20.7245 3.41451 20.8198 3.48484 20.8902C3.55516 20.9605 3.65054 21 3.75 21H20.25C20.3495 21 20.4448 20.9605 20.5152 20.8902C20.5855 20.8198 20.625 20.7245 20.625 20.625V10.125C20.8579 9.95035 21.0469 9.72388 21.1771 9.46353C21.3072 9.20317 21.375 8.91608 21.375 8.625V7.875C21.375 7.79386 21.3487 7.71491 21.3 7.65ZM20.25 7.5H18.1875L16.6875 5.25H18.5625L20.25 7.5ZM6.375 8.25H8.625V8.625C8.625 8.92337 8.50647 9.20952 8.2955 9.4205C8.08452 9.63147 7.79837 9.75 7.5 9.75C7.20163 9.75 6.91548 9.63147 6.7045 9.4205C6.49353 9.20952 6.375 8.92337 6.375 8.625V8.25ZM15.2512 7.5L14.3438 5.25H15.8063L17.3063 7.5H15.2512ZM14.445 7.5H12.375V5.25H13.5338L14.445 7.5ZM11.625 7.5H9.555L10.4662 5.25H11.625V7.5ZM8.745 7.5H6.70875L8.20875 5.25H9.67125L8.745 7.5ZM9.375 8.25H11.625V8.625C11.625 8.92337 11.5065 9.20952 11.2955 9.4205C11.0845 9.63147 10.7984 9.75 10.5 9.75C10.2016 9.75 9.91548 9.63147 9.7045 9.4205C9.49353 9.20952 9.375 8.92337 9.375 8.625V8.25ZM12.375 8.25H14.625V8.625C14.625 8.92337 14.5065 9.20952 14.2955 9.4205C14.0845 9.63147 13.7984 9.75 13.5 9.75C13.2016 9.75 12.9155 9.63147 12.7045 9.4205C12.4935 9.20952 12.375 8.92337 12.375 8.625V8.25ZM15.375 8.25H17.625V8.625C17.625 8.92337 17.5065 9.20952 17.2955 9.4205C17.0845 9.63147 16.7984 9.75 16.5 9.75C16.2016 9.75 15.9155 9.63147 15.7045 9.4205C15.4935 9.20952 15.375 8.92337 15.375 8.625V8.25ZM5.625 3.75H18.375V4.5H5.625V3.75ZM5.4375 5.25H7.29375L5.8125 7.5H3.75L5.4375 5.25ZM3.375 8.625V8.25H5.625V8.625C5.625 8.92337 5.50647 9.20952 5.2955 9.4205C5.08452 9.63147 4.79837 9.75 4.5 9.75C4.20163 9.75 3.91548 9.63147 3.7045 9.4205C3.49353 9.20952 3.375 8.92337 3.375 8.625ZM10.125 20.25H5.625V12H10.125V20.25ZM19.875 20.25H10.875V11.625C10.875 11.5255 10.8355 11.4302 10.7652 11.3598C10.6948 11.2895 10.5995 11.25 10.5 11.25H5.25C5.15054 11.25 5.05516 11.2895 4.98484 11.3598C4.91451 11.4302 4.875 11.5255 4.875 11.625V20.25H4.125V10.4625C4.24858 10.4865 4.37411 10.499 4.5 10.5C4.79108 10.5 5.07817 10.4322 5.33853 10.3021C5.59888 10.1719 5.82535 9.98287 6 9.75C6.17465 9.98287 6.40112 10.1719 6.66147 10.3021C6.92183 10.4322 7.20892 10.5 7.5 10.5C7.79108 10.5 8.07817 10.4322 8.33853 10.3021C8.59888 10.1719 8.82535 9.98287 9 9.75C9.17465 9.98287 9.40112 10.1719 9.66147 10.3021C9.92183 10.4322 10.2089 10.5 10.5 10.5C10.7911 10.5 11.0782 10.4322 11.3385 10.3021C11.5989 10.1719 11.8253 9.98287 12 9.75C12.1747 9.98287 12.4011 10.1719 12.6615 10.3021C12.9218 10.4322 13.2089 10.5 13.5 10.5C13.7911 10.5 14.0782 10.4322 14.3385 10.3021C14.5989 10.1719 14.8253 9.98287 15 9.75C15.1747 9.98287 15.4011 10.1719 15.6615 10.3021C15.9218 10.4322 16.2089 10.5 16.5 10.5C16.7911 10.5 17.0782 10.4322 17.3385 10.3021C17.5989 10.1719 17.8253 9.98287 18 9.75C18.1747 9.98287 18.4011 10.1719 18.6615 10.3021C18.9218 10.4322 19.2089 10.5 19.5 10.5C19.6259 10.499 19.7514 10.4865 19.875 10.4625V20.25ZM19.5 9.75C19.2016 9.75 18.9155 9.63147 18.7045 9.4205C18.4935 9.20952 18.375 8.92337 18.375 8.625V8.25H20.625V8.625C20.625 8.92337 20.5065 9.20952 20.2955 9.4205C20.0845 9.63147 19.7984 9.75 19.5 9.75Z" fill="black"/>
<path d="M9.375 16.8752C9.47446 16.8752 9.56984 16.8357 9.64017 16.7654C9.71049 16.6951 9.75 16.5997 9.75 16.5002V15.7502C9.75 15.6508 9.71049 15.5554 9.64017 15.4851C9.56984 15.4147 9.47446 15.3752 9.375 15.3752C9.27554 15.3752 9.18016 15.4147 9.10983 15.4851C9.03951 15.5554 9 15.6508 9 15.7502V16.5002C9 16.5997 9.03951 16.6951 9.10983 16.7654C9.18016 16.8357 9.27554 16.8752 9.375 16.8752ZM17.5162 15.484C17.4814 15.4488 17.4399 15.4209 17.3942 15.4019C17.3485 15.3828 17.2995 15.373 17.25 15.373C17.2005 15.373 17.1515 15.3828 17.1058 15.4019C17.0601 15.4209 17.0186 15.4488 16.9838 15.484L15.8588 16.609C15.7881 16.6796 15.7485 16.7754 15.7485 16.8752C15.7485 16.9751 15.7881 17.0709 15.8588 17.1415C15.9294 17.2121 16.0251 17.2518 16.125 17.2518C16.2249 17.2518 16.3206 17.2121 16.3912 17.1415L17.5162 16.0165C17.5514 15.9816 17.5793 15.9401 17.5983 15.8944C17.6174 15.8487 17.6272 15.7997 17.6272 15.7502C17.6272 15.7007 17.6174 15.6517 17.5983 15.606C17.5793 15.5603 17.5514 15.5188 17.5162 15.484ZM17.1412 13.234C17.1064 13.1988 17.0649 13.1709 17.0192 13.1519C16.9735 13.1328 16.9245 13.123 16.875 13.123C16.8255 13.123 16.7765 13.1328 16.7308 13.1519C16.6851 13.1709 16.6436 13.1988 16.6088 13.234L13.6088 16.234C13.5738 16.2689 13.5461 16.3104 13.5271 16.3561C13.5082 16.4018 13.4985 16.4508 13.4985 16.5002C13.4985 16.5497 13.5082 16.5986 13.5271 16.6443C13.5461 16.69 13.5738 16.7315 13.6088 16.7665C13.6437 16.8014 13.6852 16.8292 13.7309 16.8481C13.7766 16.867 13.8256 16.8768 13.875 16.8768C13.9244 16.8768 13.9734 16.867 14.0191 16.8481C14.0648 16.8292 14.1063 16.8014 14.1412 16.7665L17.1412 13.7665C17.1764 13.7316 17.2043 13.6901 17.2233 13.6444C17.2424 13.5987 17.2522 13.5497 17.2522 13.5002C17.2522 13.4507 17.2424 13.4017 17.2233 13.356C17.2043 13.3103 17.1764 13.2688 17.1412 13.234ZM14.8912 12.859C14.8564 12.8238 14.8149 12.7959 14.7692 12.7769C14.7235 12.7578 14.6745 12.748 14.625 12.748C14.5755 12.748 14.5265 12.7578 14.4808 12.7769C14.4351 12.7959 14.3936 12.8238 14.3588 12.859L13.2338 13.984C13.1631 14.0546 13.1235 14.1504 13.1235 14.2502C13.1235 14.3501 13.1631 14.4459 13.2338 14.5165C13.3044 14.5871 13.4001 14.6268 13.5 14.6268C13.5999 14.6268 13.6956 14.5871 13.7662 14.5165L14.8912 13.3915C14.9264 13.3566 14.9543 13.3151 14.9733 13.2694C14.9924 13.2237 15.0022 13.1747 15.0022 13.1252C15.0022 13.0757 14.9924 13.0267 14.9733 12.981C14.9543 12.9353 14.9264 12.8938 14.8912 12.859Z" fill="black"/>
<path d="M18.75 11.25H12C11.9005 11.25 11.8052 11.2895 11.7348 11.3598C11.6645 11.4302 11.625 11.5255 11.625 11.625V18.375C11.625 18.4745 11.6645 18.5698 11.7348 18.6402C11.8052 18.7105 11.9005 18.75 12 18.75H18.75C18.8495 18.75 18.9448 18.7105 19.0152 18.6402C19.0855 18.5698 19.125 18.4745 19.125 18.375V11.625C19.125 11.5255 19.0855 11.4302 19.0152 11.3598C18.9448 11.2895 18.8495 11.25 18.75 11.25ZM18.375 18H12.375V12H18.375V18Z" fill="black"/>
</svg>
