<svg width="24" height="24" viewBox="0 0 24 24" fill="none" xmlns="http://www.w3.org/2000/svg">
<g clip-path="url(#clip0_266_2360)">
<path d="M16.104 19.3075C15.8417 19.3079 15.5855 19.386 15.3677 19.5321C15.1498 19.6781 14.9802 19.8854 14.8802 20.1279C14.7802 20.3703 14.7543 20.637 14.8059 20.8941C14.8574 21.1513 14.9841 21.3874 15.1698 21.5725C15.3555 21.7577 15.592 21.8836 15.8493 21.9344C16.1066 21.9852 16.3731 21.9585 16.6153 21.8578C16.8574 21.7571 17.0643 21.5868 17.2096 21.3685C17.355 21.1502 17.4324 20.8937 17.432 20.6315C17.4309 20.28 17.2905 19.9432 17.0416 19.6951C16.7927 19.4469 16.4555 19.3075 16.104 19.3075ZM16.104 21.3595C15.9606 21.3591 15.8205 21.3162 15.7014 21.2363C15.5823 21.1564 15.4896 21.043 15.4349 20.9104C15.3802 20.7778 15.366 20.632 15.3941 20.4914C15.4221 20.3507 15.4912 20.2215 15.5926 20.1201C15.6941 20.0187 15.8232 19.9496 15.9639 19.9215C16.1045 19.8935 16.2503 19.9077 16.3829 19.9624C16.5155 20.0171 16.6289 20.1098 16.7088 20.2289C16.7887 20.348 16.8316 20.4881 16.832 20.6315C16.8315 20.8244 16.7547 21.0093 16.6182 21.1457C16.4818 21.2821 16.2969 21.359 16.104 21.3595ZM14.868 17.7191C14.8685 17.7943 14.8975 17.8665 14.949 17.9213C15.0006 17.976 15.0709 18.0093 15.1459 18.0143C20.1374 18.3702 23.4 19.5269 23.4 20.5835C23.4 21.8475 18.72 23.2595 12 23.2595C5.28 23.2595 0.6 21.8475 0.6 20.5835C0.6 19.5915 3.48 18.5075 7.968 18.0915V20.9275C7.968 21.007 7.99961 21.0834 8.05587 21.1396C8.11213 21.1959 8.18844 21.2275 8.268 21.2275C8.34756 21.2275 8.42387 21.1959 8.48013 21.1396C8.53639 21.0834 8.568 21.007 8.568 20.9275V18.0395C9.2079 17.9902 9.8787 17.9503 10.5777 17.9305C10.655 17.9286 10.7286 17.8967 10.7828 17.8415C10.837 17.7863 10.8676 17.7121 10.868 17.6348V17.6299C10.868 17.59 10.86 17.5505 10.8445 17.5138C10.829 17.477 10.8063 17.4438 10.7777 17.4159C10.7492 17.3881 10.7154 17.3662 10.6782 17.3517C10.6411 17.3371 10.6014 17.3301 10.5616 17.3311C9.89197 17.3504 9.22397 17.3874 8.568 17.4395V8.16748L13.992 5.45548C14.2228 5.33979 14.4169 5.16216 14.5525 4.94247C14.6882 4.72277 14.76 4.46967 14.76 4.21148C14.76 3.95329 14.6882 3.70019 14.5525 3.48049C14.4169 3.2608 14.2228 3.08317 13.992 2.96748L8.36 0.151481C8.36 0.151481 7.968 -0.0645194 7.968 0.439481V17.4915C3.644 17.8955 0 18.9515 0 20.5835C0 22.7115 6.184 23.8595 12 23.8595C17.816 23.8595 24 22.7115 24 20.5835C24 18.843 19.8698 17.7603 15.1879 17.4214C15.147 17.4186 15.106 17.4242 15.0674 17.4379C15.0287 17.4515 14.9933 17.473 14.9634 17.5009C14.9334 17.5288 14.9094 17.5626 14.893 17.6001C14.8766 17.6377 14.8681 17.6782 14.868 17.7191ZM8.568 0.923481L13.724 3.50348C13.8551 3.56955 13.9653 3.67073 14.0423 3.79574C14.1193 3.92074 14.16 4.06467 14.16 4.21148C14.16 4.35829 14.1193 4.50222 14.0423 4.62722C13.9653 4.75223 13.8551 4.85341 13.724 4.91948L8.568 7.49948V0.923481ZM11.668 17.609V17.6149C11.6677 17.6931 11.6984 17.7683 11.7534 17.8239C11.8083 17.8796 11.8831 17.9112 11.9613 17.9119C12.3951 17.9151 13.207 17.9261 13.7623 17.9437C13.802 17.945 13.8416 17.9383 13.8787 17.9239C13.9158 17.9096 13.9496 17.8879 13.9782 17.8602C14.0067 17.8325 14.0294 17.7993 14.0448 17.7627C14.0602 17.726 14.0681 17.6866 14.068 17.6469V17.6415C14.0685 17.5647 14.039 17.4906 13.9858 17.4352C13.9325 17.3797 13.8598 17.3472 13.783 17.3446C13.2219 17.3265 12.404 17.3153 11.9659 17.3119C11.9267 17.3117 11.8879 17.3191 11.8517 17.334C11.8155 17.3488 11.7826 17.3706 11.7549 17.3983C11.7272 17.4259 11.7053 17.4588 11.6903 17.4949C11.6754 17.5311 11.6678 17.5699 11.668 17.609Z" fill="black"/>
</g>
<defs>
<clipPath id="clip0_266_2360">
<rect width="24" height="24" fill="white"/>
</clipPath>
</defs>
</svg>
