<svg width="24" height="24" viewBox="0 0 24 24" fill="none" xmlns="http://www.w3.org/2000/svg">
<g clip-path="url(#clip0_266_2364)">
<path d="M22.875 20.7294V17.625C22.875 17.5435 22.8484 17.4642 22.7993 17.3991C22.7502 17.334 22.6813 17.2867 22.6029 17.2643L17.6616 15.8525C17.7304 15.23 17.7232 14.6014 17.6403 13.9806C17.7867 13.938 17.9416 13.933 18.0904 13.9662C18.2393 13.9994 18.3774 14.0697 18.4918 14.1706C18.5676 14.235 18.6659 14.2668 18.765 14.2588C18.8642 14.2509 18.9561 14.2038 19.0206 14.1281C19.0851 14.0523 19.1169 13.954 19.1089 13.8549C19.1009 13.7557 19.0539 13.6637 18.9781 13.5992C18.78 13.4229 18.5414 13.2982 18.2834 13.2363C18.0255 13.1744 17.7563 13.1771 17.4997 13.2443C17.3534 12.6611 17.1272 12.1009 16.8274 11.5796C17.1766 11.5286 17.5331 11.577 17.8561 11.7191C17.9016 11.7384 17.9505 11.7485 17.9999 11.7488C18.0493 11.7492 18.0983 11.7397 18.1441 11.721C18.1899 11.7023 18.2315 11.6747 18.2665 11.6399C18.3016 11.6051 18.3294 11.5636 18.3484 11.518C18.3674 11.4723 18.3772 11.4234 18.3772 11.3739C18.3771 11.3245 18.3673 11.2756 18.3483 11.2299C18.3293 11.1843 18.3015 11.1429 18.2664 11.108C18.2313 11.0732 18.1897 11.0457 18.1439 11.027C17.5908 10.7821 16.9687 10.7418 16.3887 10.9135C16.058 10.4703 15.6785 10.0656 15.2575 9.70719C15.7411 9.43624 16.3118 9.36575 16.8468 9.51088C16.8951 9.52337 16.9454 9.5261 16.9947 9.51893C17.044 9.51175 17.0915 9.49481 17.1342 9.46908C17.1769 9.44336 17.2141 9.40938 17.2435 9.36912C17.2729 9.32887 17.294 9.28315 17.3055 9.23464C17.3171 9.18613 17.3188 9.13581 17.3107 9.08661C17.3026 9.03742 17.2847 8.99034 17.2581 8.94814C17.2316 8.90593 17.1969 8.86945 17.1561 8.84081C17.1152 8.81218 17.0691 8.79198 17.0204 8.78139C16.6137 8.67349 16.1881 8.65713 15.7742 8.73349C15.3604 8.80985 14.9687 8.97703 14.6273 9.22299C14.389 9.05736 14.1409 8.90638 13.8844 8.77089L17.1401 5.51514C17.175 5.48033 17.2026 5.439 17.2215 5.39351C17.2403 5.34802 17.25 5.29926 17.25 5.25001C17.25 5.20077 17.2403 5.15201 17.2215 5.10652C17.2026 5.06102 17.175 5.01969 17.1401 4.98489L13.0151 0.859888C12.9803 0.825051 12.939 0.797416 12.8935 0.77856C12.848 0.759705 12.7992 0.75 12.75 0.75C12.7008 0.75 12.652 0.759705 12.6065 0.77856C12.561 0.797416 12.5197 0.825051 12.4849 0.859888L8.92237 4.42239L2.96966 10.3751C2.86433 10.3178 2.7467 10.2869 2.62684 10.2851C2.52693 10.2821 2.42752 10.3001 2.33501 10.338C2.24251 10.3758 2.15897 10.4326 2.0898 10.5048L1.125 11.4697C0.984557 11.6105 0.905683 11.8012 0.905683 12C0.905683 12.1988 0.984557 12.3896 1.125 12.5303L11.1855 22.5908C11.394 22.8005 11.6419 22.9668 11.9151 23.0799C12.1882 23.1931 12.4811 23.2509 12.7767 23.25H22.5C22.6988 23.2497 22.8894 23.1706 23.03 23.03C23.1706 22.8895 23.2497 22.6988 23.25 22.5V21.375C23.2496 21.244 23.2147 21.1153 23.1489 21.002C23.083 20.8887 22.9886 20.7947 22.875 20.7294ZM9.5412 4.97709C9.54214 4.93524 9.5439 4.89856 9.54604 4.8671L9.54653 4.85878L12.75 1.6553L16.3447 5.25001L13.0597 8.53501C13.0423 8.53126 13.0247 8.52774 13.0074 8.52395C12.8191 8.4827 12.6399 8.43736 12.4712 8.38719C12.4442 8.37916 12.4187 8.37054 12.3921 8.36233C12.2203 8.30885 12.0562 8.25211 11.9043 8.19039C11.8971 8.18746 11.8906 8.18424 11.8834 8.18131C11.7331 8.11944 11.5933 8.05344 11.4614 7.98466C11.446 7.97668 11.4297 7.96903 11.4146 7.96093C11.2871 7.89256 11.169 7.82083 11.058 7.74718C11.0386 7.73431 11.019 7.72153 11.0001 7.70855C10.8938 7.63535 10.7949 7.56018 10.7033 7.48303C10.6872 7.46945 10.6718 7.45569 10.656 7.442C10.5653 7.36291 10.4802 7.28255 10.4034 7.2008C10.3952 7.19199 10.3879 7.1831 10.3798 7.17429C10.3045 7.09236 10.2354 7.00965 10.1727 6.92615C10.1678 6.91966 10.1622 6.91321 10.1574 6.90669C10.0947 6.82194 10.0395 6.73685 9.98861 6.65199C9.98036 6.63819 9.97166 6.62439 9.96371 6.61074C9.91631 6.52884 9.87428 6.44735 9.83666 6.36665C9.82957 6.35165 9.82275 6.33643 9.81604 6.32131C9.78 6.24061 9.74775 6.16066 9.72026 6.08248C9.71625 6.07123 9.71276 6.05998 9.70901 6.04873C9.68149 5.96743 9.65711 5.88748 9.63776 5.81023L9.6375 5.80876C9.61766 5.73024 9.60244 5.65501 9.58957 5.58208C9.58789 5.57255 9.58582 5.56276 9.58429 5.55335C9.57304 5.4851 9.56437 5.42008 9.55804 5.35835C9.55688 5.3471 9.55564 5.33555 9.55462 5.32438C9.54908 5.26494 9.54525 5.2085 9.54338 5.15649L9.54255 5.12923C9.54101 5.07748 9.54049 5.02854 9.54131 4.98594L9.5412 4.97709ZM8.83943 5.56606C8.84224 5.58579 8.84692 5.60731 8.85 5.62753C8.85623 5.66641 8.86279 5.70549 8.87044 5.7458C8.87685 5.77981 8.88398 5.81409 8.89147 5.84904C8.89898 5.88399 8.90738 5.91898 8.91604 5.95449C8.92519 5.9924 8.93396 6.02983 8.94454 6.0686C8.96164 6.13095 8.9807 6.19431 9.00173 6.25869C9.01571 6.3017 9.0321 6.34531 9.048 6.38904C9.05925 6.42016 9.07091 6.45121 9.08333 6.48279C9.10159 6.52921 9.12082 6.57556 9.1413 6.62251C9.15334 6.64989 9.16669 6.67741 9.17955 6.70501C9.22417 6.80079 9.27417 6.89704 9.32955 6.99376C9.34005 7.01206 9.34954 7.03036 9.36049 7.0487C9.39086 7.09985 9.42405 7.15074 9.45776 7.20181C9.47471 7.22744 9.49209 7.25305 9.50989 7.27865C9.546 7.3307 9.58301 7.38245 9.62284 7.43413C9.63506 7.44999 9.64867 7.46563 9.66127 7.48145C9.74482 7.58607 9.83355 7.68643 9.92715 7.78216C9.94744 7.80298 9.96686 7.82394 9.98786 7.8446C10.0375 7.89335 10.09 7.94158 10.1439 7.98946C10.1711 8.01358 10.1993 8.03739 10.2275 8.06124C10.4179 8.22091 10.6208 8.36512 10.8341 8.49249C10.8777 8.51874 10.9211 8.54499 10.9665 8.57038C11.0317 8.60695 11.0988 8.64271 11.1677 8.67766C11.2238 8.70616 11.2825 8.73346 11.3413 8.76084C11.4155 8.79541 11.4895 8.82999 11.5681 8.86269C11.6798 8.90926 11.7961 8.95382 11.9168 8.99638C11.9785 9.01801 12.0437 9.03796 12.1081 9.05848C12.2034 9.089 12.3014 9.11824 12.402 9.14619C12.4632 9.16302 12.5243 9.17994 12.5875 9.19565C12.7462 9.23548 12.9101 9.27271 13.0819 9.30568C13.0881 9.30684 13.0934 9.30841 13.0995 9.30943L13.1052 9.31044L13.1124 9.31198L13.1148 9.3122C13.2051 9.33211 13.3003 9.3497 13.3969 9.36399C13.628 9.47108 13.8513 9.59423 14.0651 9.73254C13.816 10.0106 13.6139 10.3275 13.4668 10.6706C13.4291 10.7626 13.4294 10.8658 13.4677 10.9576C13.5061 11.0493 13.5793 11.1221 13.6712 11.1599C13.7164 11.1787 13.7648 11.1882 13.8137 11.1881C13.8881 11.1882 13.9608 11.1661 14.0225 11.1247C14.0843 11.0833 14.1323 11.0244 14.1605 10.9556C14.2892 10.6687 14.4632 10.4045 14.676 10.173C15.0605 10.4829 15.4081 10.8359 15.7119 11.2251C15.326 11.469 14.9981 11.7945 14.7516 12.1788C14.6997 12.2633 14.6835 12.3649 14.7065 12.4614C14.7295 12.5579 14.7899 12.6413 14.8743 12.6933C14.9333 12.73 15.0014 12.7494 15.071 12.7493C15.1348 12.7493 15.1976 12.7331 15.2535 12.7021C15.3093 12.6712 15.3564 12.6266 15.3903 12.5725C15.5854 12.2818 15.8384 12.0346 16.1335 11.8463C16.4439 12.371 16.6696 12.9414 16.8026 13.5364C16.5925 13.6627 16.3997 13.8156 16.2288 13.9913C16.1623 14.0636 16.1268 14.1591 16.1299 14.2573C16.1331 14.3554 16.1746 14.4484 16.2456 14.5163C16.3166 14.5842 16.4114 14.6215 16.5096 14.6202C16.6078 14.619 16.7016 14.5792 16.7708 14.5096C16.8218 14.4582 16.8756 14.4096 16.9317 14.3639C16.98 14.9333 16.9623 15.5064 16.8788 16.0718C16.8661 16.1616 16.8862 16.2529 16.9356 16.329C16.9849 16.405 17.0601 16.4607 17.1473 16.4856L22.125 17.9077V20.625H13.3879C13.2367 20.6247 13.087 20.594 12.9478 20.5348C12.8086 20.4756 12.6827 20.3891 12.5775 20.2804L10.8509 18.4875C10.6893 12.6249 9.6432 8.65288 7.74135 6.66425L8.83943 5.56606ZM7.21403 7.19146C8.43041 8.4809 9.79373 11.3444 10.0721 17.6786L8.59177 16.1414C8.86732 11.295 7.34107 9.35195 5.7975 8.60791L7.21403 7.19146ZM5.22375 9.18178C7.03061 9.88272 7.93834 12.0142 7.86986 15.3918L3.52534 10.8802L5.22375 9.18178ZM12.7767 22.5C12.5796 22.5006 12.3844 22.4621 12.2023 22.3866C12.0202 22.3112 11.8549 22.2003 11.716 22.0606L1.65529 12L2.62024 11.0354L12.0375 20.8015C12.2127 20.9825 12.4224 21.1265 12.6543 21.225C12.8861 21.3235 13.1353 21.3745 13.3872 21.375H22.5L22.5007 22.5H12.7767ZM3.375 18C3.47446 18 3.56984 17.9605 3.64016 17.8902C3.71049 17.8199 3.75 17.7245 3.75 17.625C3.75 17.5256 3.71049 17.4302 3.64016 17.3598C3.56984 17.2895 3.47446 17.25 3.375 17.25H1.125C1.02554 17.25 0.930161 17.2895 0.859835 17.3598C0.789509 17.4302 0.75 17.5256 0.75 17.625C0.75 17.7245 0.789509 17.8199 0.859835 17.8902C0.930161 17.9605 1.02554 18 1.125 18H3.375ZM6.75 19.875H2.625C2.52554 19.875 2.43016 19.9145 2.35984 19.9848C2.28951 20.0552 2.25 20.1506 2.25 20.25C2.25 20.3495 2.28951 20.4449 2.35984 20.5152C2.43016 20.5855 2.52554 20.625 2.625 20.625H6.75C6.84946 20.625 6.94484 20.5855 7.01517 20.5152C7.08549 20.4449 7.125 20.3495 7.125 20.25C7.125 20.1506 7.08549 20.0552 7.01517 19.9848C6.94484 19.9145 6.84946 19.875 6.75 19.875ZM6 22.5H1.5C1.40054 22.5 1.30516 22.5395 1.23483 22.6098C1.16451 22.6802 1.125 22.7756 1.125 22.875C1.125 22.9745 1.16451 23.0699 1.23483 23.1402C1.30516 23.2105 1.40054 23.25 1.5 23.25H6C6.09946 23.25 6.19484 23.2105 6.26517 23.1402C6.33549 23.0699 6.375 22.9745 6.375 22.875C6.375 22.7756 6.33549 22.6802 6.26517 22.6098C6.19484 22.5395 6.09946 22.5 6 22.5Z" fill="black"/>
</g>
<defs>
<clipPath id="clip0_266_2364">
<rect width="24" height="24" fill="white"/>
</clipPath>
</defs>
</svg>
