<svg width="24" height="24" viewBox="0 0 24 24" fill="none" xmlns="http://www.w3.org/2000/svg">
<g clip-path="url(#clip0_268_2805)">
<path d="M8.33383 21.8293C8.27157 21.7046 8.19238 21.5891 8.09851 21.4861C8.31913 21.3213 8.48222 21.0911 8.56461 20.8283C8.64701 20.5655 8.64453 20.2834 8.55752 20.0221C8.47052 19.7607 8.30342 19.5335 8.07993 19.3725C7.85645 19.2115 7.58793 19.125 7.31251 19.1253H2.89539L1.10626 13.7568C1.07478 13.6623 1.00706 13.5842 0.917995 13.5397C0.828927 13.4951 0.725809 13.4878 0.631325 13.5193C0.536842 13.5507 0.458733 13.6185 0.414181 13.7075C0.36963 13.7966 0.362285 13.8997 0.393763 13.9942L2.26876 19.6192C2.29373 19.6939 2.34158 19.7588 2.40552 19.8048C2.46946 19.8508 2.54626 19.8754 2.62501 19.8753H7.31251C7.4617 19.8753 7.60477 19.9346 7.71026 20.0401C7.81575 20.1456 7.87501 20.2886 7.87501 20.4378C7.87501 20.587 7.81575 20.7301 7.71026 20.8356C7.60477 20.9411 7.4617 21.0003 7.31251 21.0003H2.26164C1.96164 20.9993 1.66831 21.0887 1.41987 21.2569C1.17144 21.4251 0.979435 21.6642 0.868888 21.9431L0.401825 23.1108C0.364877 23.2032 0.366127 23.3064 0.405298 23.3978C0.44447 23.4892 0.518355 23.5614 0.6107 23.5983C0.703045 23.6353 0.806286 23.634 0.89771 23.5948C0.989134 23.5557 1.06125 23.4818 1.0982 23.3894L1.56526 22.2217C1.62054 22.0822 1.71654 21.9627 1.84076 21.8786C1.96497 21.7945 2.11164 21.7498 2.26164 21.7503H6.99226C7.13163 21.7498 7.26835 21.7884 7.3869 21.8617C7.50545 21.9349 7.60108 22.04 7.66295 22.1649L8.28958 23.4179C8.3116 23.462 8.34209 23.5013 8.37929 23.5335C8.4165 23.5658 8.4597 23.5904 8.50642 23.606C8.55314 23.6216 8.60247 23.6278 8.6516 23.6243C8.70072 23.6208 8.74868 23.6077 8.79273 23.5857C8.83678 23.5636 8.87606 23.5331 8.90833 23.4959C8.9406 23.4587 8.96522 23.4155 8.9808 23.3688C8.99637 23.3221 9.00259 23.2728 8.9991 23.2236C8.99561 23.1745 8.98248 23.1266 8.96045 23.0825L8.33383 21.8293ZM23.598 23.1108L23.1309 21.9431C23.0204 21.6642 22.8284 21.4251 22.58 21.257C22.3316 21.0888 22.0384 20.9994 21.7384 21.0003H16.6875C16.5383 21.0003 16.3953 20.9411 16.2898 20.8356C16.1843 20.7301 16.125 20.587 16.125 20.4378C16.125 20.2886 16.1843 20.1456 16.2898 20.0401C16.3953 19.9346 16.5383 19.8753 16.6875 19.8753H21.375C21.4538 19.8754 21.5306 19.8507 21.5945 19.8047C21.6585 19.7587 21.7063 19.6937 21.7313 19.619L23.6063 13.994C23.6377 13.8996 23.6304 13.7966 23.586 13.7077C23.5415 13.6187 23.4635 13.551 23.3692 13.5195C23.2748 13.4881 23.1718 13.4953 23.0828 13.5398C22.9939 13.5843 22.9262 13.6623 22.8947 13.7566L21.1046 19.1253H16.6875C16.412 19.125 16.1435 19.2114 15.9199 19.3724C15.6964 19.5334 15.5293 19.7607 15.4422 20.0221C15.3552 20.2835 15.3528 20.5656 15.4352 20.8284C15.5177 21.0913 15.6808 21.3215 15.9015 21.4863C15.8076 21.5893 15.7285 21.7048 15.6662 21.8294L15.0396 23.0816C15.0175 23.1256 15.0044 23.1736 15.0009 23.2227C14.9974 23.2718 15.0037 23.3212 15.0192 23.3679C15.0348 23.4146 15.0594 23.4578 15.0917 23.495C15.124 23.5322 15.1632 23.5627 15.2073 23.5847C15.2513 23.6067 15.2993 23.6199 15.3484 23.6234C15.3976 23.6269 15.4469 23.6206 15.4936 23.6051C15.5403 23.5895 15.5835 23.5649 15.6207 23.5326C15.6579 23.5003 15.6884 23.4611 15.7105 23.417L16.3371 22.1639C16.3991 22.0392 16.4948 21.9344 16.6133 21.8613C16.7318 21.7882 16.8685 21.7497 17.0078 21.7503H21.7382C21.8882 21.7498 22.0349 21.7946 22.1591 21.8787C22.2833 21.9628 22.3793 22.0824 22.4346 22.2219L22.9016 23.3896C22.9199 23.4353 22.9471 23.477 22.9815 23.5123C23.0159 23.5475 23.0569 23.5756 23.1022 23.595C23.1475 23.6144 23.1961 23.6247 23.2454 23.6253C23.2946 23.6258 23.3435 23.6167 23.3892 23.5984C23.435 23.5801 23.4766 23.553 23.5119 23.5186C23.5471 23.4841 23.5752 23.4431 23.5946 23.3979C23.614 23.3526 23.6243 23.3039 23.6249 23.2547C23.6254 23.2054 23.6163 23.1565 23.598 23.1108Z" fill="black"/>
<path d="M13.4732 21.2357C13.4454 21.1661 13.3973 21.1065 13.3353 21.0645C13.2732 21.0224 13.2 21 13.125 21V18.375H17.8125C18.1109 18.375 18.397 18.2565 18.608 18.0455C18.819 17.8345 18.9375 17.5484 18.9375 17.25C18.9375 16.9516 18.819 16.6655 18.608 16.4545C18.397 16.2435 18.1109 16.125 17.8125 16.125H12.375V9.07819L19.0015 6.75H23.25C23.3314 6.74999 23.4105 6.72352 23.4755 6.67458C23.5405 6.62565 23.5879 6.55689 23.6104 6.4787C23.6329 6.40051 23.6293 6.31712 23.6003 6.24112C23.5712 6.16512 23.5183 6.10063 23.4493 6.05737C22.522 5.475 14.3218 0.375 12 0.375C9.67821 0.375 1.47808 5.475 0.550897 6.05737C0.481995 6.10062 0.429024 6.1651 0.399973 6.24108C0.370922 6.31706 0.367366 6.40043 0.389843 6.47861C0.412319 6.55679 0.459609 6.62555 0.524578 6.6745C0.589548 6.72345 0.668674 6.74995 0.750022 6.75H4.81258L11.625 9.08063V16.125H6.18752C5.88915 16.125 5.60301 16.2435 5.39203 16.4545C5.18105 16.6655 5.06252 16.9516 5.06252 17.25C5.06252 17.5484 5.18105 17.8345 5.39203 18.0455C5.60301 18.2565 5.88915 18.375 6.18752 18.375H10.875V21C10.8001 21 10.7269 21.0224 10.6648 21.0645C10.6027 21.1065 10.5547 21.1661 10.5268 21.2357L9.77683 23.1107C9.75407 23.1676 9.74559 23.2292 9.75215 23.2901C9.75871 23.3511 9.78011 23.4095 9.81447 23.4602C9.84882 23.511 9.8951 23.5525 9.94924 23.5813C10.0034 23.61 10.0637 23.625 10.125 23.625H13.875C13.9363 23.625 13.9967 23.61 14.0508 23.5813C14.1049 23.5525 14.1512 23.511 14.1856 23.4602C14.2199 23.4095 14.2413 23.3511 14.2479 23.2901C14.2545 23.2292 14.246 23.1676 14.2232 23.1107L13.4732 21.2357ZM13.8071 6.75L12.375 7.99125V6.75H13.8071ZM11.625 7.99125L10.1929 6.75H11.625V7.99125ZM13.7344 7.80562L14.9531 6.75H16.7395L13.7344 7.80562ZM12 1.125C13.5563 1.125 18.9426 4.19212 21.9255 6H2.07452C5.05727 4.19212 10.4426 1.125 12 1.125ZM7.1299 6.75H9.04746L10.2983 7.83394L7.1299 6.75ZM5.81252 17.25C5.81252 17.1505 5.85203 17.0552 5.92236 16.9848C5.99268 16.9145 6.08807 16.875 6.18752 16.875H17.8125C17.912 16.875 18.0074 16.9145 18.0777 16.9848C18.148 17.0552 18.1875 17.1505 18.1875 17.25C18.1875 17.3495 18.148 17.4448 18.0777 17.5152C18.0074 17.5855 17.912 17.625 17.8125 17.625H6.18752C6.08807 17.625 5.99268 17.5855 5.92236 17.5152C5.85203 17.4448 5.81252 17.3495 5.81252 17.25ZM11.625 18.375H12.375V21H11.625V18.375ZM10.6789 22.875L11.1289 21.75H12.8711L13.3211 22.875H10.6789Z" fill="black"/>
<path d="M12.3751 1.875C12.3751 1.77554 12.3356 1.68016 12.2652 1.60984C12.1949 1.53951 12.0995 1.5 12.0001 1.5C11.8336 1.5 11.3273 1.5 9.40395 2.39794C9.31381 2.44001 9.24409 2.51616 9.2101 2.60964C9.17612 2.70312 9.18066 2.80627 9.22273 2.89641C9.2648 2.98654 9.34095 3.05627 9.43443 3.09025C9.52791 3.12424 9.63106 3.11969 9.7212 3.07762C11.3209 2.33062 11.8478 2.25 12.0001 2.25C12.0995 2.25 12.1949 2.21049 12.2652 2.14016C12.3356 2.06984 12.3751 1.97446 12.3751 1.875ZM8.26882 2.95088C8.09095 3.04062 7.9097 3.13338 7.72507 3.22913C7.63673 3.27487 7.57018 3.35384 7.54006 3.44866C7.50995 3.54348 7.51873 3.64638 7.56448 3.73472C7.61023 3.82306 7.6892 3.88961 7.78401 3.91973C7.87883 3.94984 7.98173 3.94106 8.07007 3.89531C8.2527 3.80069 8.43182 3.709 8.60745 3.62025C8.6514 3.59802 8.69054 3.56734 8.72264 3.52998C8.75473 3.49262 8.77916 3.4493 8.79452 3.4025C8.80987 3.3557 8.81586 3.30633 8.81214 3.25722C8.80842 3.2081 8.79506 3.1602 8.77282 3.11625C8.75059 3.0723 8.71991 3.03316 8.68255 3.00106C8.64519 2.96896 8.60187 2.94454 8.55507 2.92918C8.50827 2.91382 8.4589 2.90784 8.40979 2.91156C8.36067 2.91528 8.31277 2.92864 8.26882 2.95088Z" fill="black"/>
</g>
<defs>
<clipPath id="clip0_268_2805">
<rect width="24" height="24" fill="white"/>
</clipPath>
</defs>
</svg>
