<svg width="24" height="24" viewBox="0 0 24 24" fill="none" xmlns="http://www.w3.org/2000/svg">
<g clip-path="url(#clip0_266_2217)">
<path d="M23.8454 15.3305C23.685 15.2216 23.4661 15.2636 23.3566 15.4237C23.3271 15.4669 22.6189 16.4808 21.3183 16.4808C20.0177 16.4808 19.3095 15.4669 19.2807 15.4249C19.1511 15.2197 18.8253 15.2199 18.6959 15.4252C18.6888 15.4358 17.9725 16.4808 16.6602 16.4808C15.5603 16.4808 14.8842 15.7559 14.6842 15.5066V10.0482H23.6481C23.8427 10.0482 24.0004 9.89048 24.0004 9.69591C24.0004 9.50133 23.8427 9.34364 23.6481 9.34364H20.8154V6.7763C20.8154 4.44717 18.943 2.5342 16.6416 2.51194C15.5093 2.50055 14.4415 2.9347 13.6353 3.73312C13.245 4.1197 12.9404 4.56867 12.7291 5.05706C12.078 3.57427 10.6137 2.52839 8.91553 2.51194C8.90156 2.5118 8.88759 2.51174 8.87362 2.51175C7.75682 2.51175 6.70551 2.94455 5.90924 3.73312C5.1029 4.53173 4.65876 5.595 4.65876 6.72703V9.34369H0.379354C0.184776 9.34369 0.0270888 9.50137 0.0270888 9.69595C0.0270888 9.89053 0.184776 10.0482 0.379354 10.0482H4.65876V11.4393C4.65876 11.6339 4.81645 11.7915 5.01103 11.7915C5.2056 11.7915 5.36329 11.6339 5.36329 11.4393V6.72703C5.36329 5.78442 5.73323 4.89895 6.40504 4.23366C7.07662 3.56859 7.96504 3.20522 8.90878 3.21642C10.8254 3.23494 12.3848 4.83192 12.3848 6.7763V9.34364H11.4944V6.72703C11.4944 5.30672 10.3394 4.13137 8.9196 4.10705C8.9046 4.10681 8.88979 4.10667 8.87484 4.10667C8.19496 4.10667 7.55076 4.37259 7.0566 4.85836C6.54632 5.35997 6.25368 6.05573 6.25368 6.76725V16.2216C5.78409 15.9857 5.4831 15.6528 5.36324 15.5026V12.8482C5.36324 12.6537 5.20556 12.496 5.01098 12.496C4.8164 12.496 4.65871 12.6537 4.65871 12.8482V15.5062C4.45809 15.7563 3.78206 16.4808 2.68256 16.4808C1.38192 16.4808 0.673729 15.4669 0.644948 15.4249C0.592368 15.3485 0.51175 15.2959 0.420605 15.2785C0.32946 15.2611 0.235147 15.2804 0.158151 15.3322C0.0811541 15.384 0.0276919 15.4641 0.00937525 15.555C-0.00894143 15.646 0.00936663 15.7405 0.0603232 15.818C0.0978232 15.8738 0.998948 17.1853 2.68251 17.1853C3.83353 17.1853 4.61878 16.5724 5.01238 16.1667C5.40599 16.5724 6.19129 17.1853 7.34226 17.1853C8.493 17.1853 9.27735 16.5727 9.67064 16.1669C10.0643 16.5726 10.8495 17.1853 12.0003 17.1853C13.1513 17.1853 13.9365 16.5724 14.3301 16.1667C14.7238 16.5724 15.5091 17.1853 16.66 17.1853C17.8108 17.1853 18.5951 16.5727 18.9884 16.1669C19.3821 16.5726 20.1673 17.1853 21.318 17.1853C23.0016 17.1853 23.9027 15.8738 23.9402 15.818C24.0487 15.657 24.006 15.4394 23.8454 15.3305ZM6.95821 12.496H12.3848V13.4823H6.95821V12.496ZM12.3848 11.7915H6.95821V10.0482H12.3848V11.7915ZM7.55053 5.36081C7.91971 4.99791 8.40149 4.80286 8.90751 4.81148C9.94551 4.8293 10.79 5.68861 10.79 6.72708V9.34373H6.95826V6.7673C6.95821 6.24342 7.17412 5.7308 7.55053 5.36081ZM9.96285 15.4249C9.83343 15.2208 9.50915 15.2206 9.37879 15.4241C9.34935 15.4672 8.64276 16.4808 7.3424 16.4808C7.20782 16.4808 7.07999 16.4694 6.95821 16.4499V14.1868H12.3848V16.4499C12.2577 16.4704 12.1292 16.4807 12.0004 16.4808C10.6998 16.4808 9.99159 15.4669 9.96285 15.4249ZM13.0893 16.2214V6.72703C13.0893 5.78442 13.4593 4.89895 14.1311 4.23366C14.8027 3.56859 15.6912 3.20522 16.6348 3.21642C18.5515 3.23494 20.1109 4.83192 20.1109 6.7763V9.34364H19.2205V8.56059C19.2205 8.36602 19.0628 8.20833 18.8682 8.20833C18.6736 8.20833 18.5159 8.36602 18.5159 8.56059V9.34364H14.6842V6.7672C14.6842 6.24338 14.9001 5.73075 15.2765 5.36072C15.6457 4.99781 16.1266 4.80277 16.6335 4.81139C17.6715 4.8292 18.5159 5.68852 18.5159 6.72698V7.15158C18.5159 7.34616 18.6736 7.50384 18.8682 7.50384C19.0628 7.50384 19.2205 7.34616 19.2205 7.15158V6.72698C19.2205 5.30667 18.0654 4.13133 16.6456 4.107C16.6306 4.10677 16.6158 4.10662 16.6009 4.10662C15.921 4.10662 15.2768 4.37255 14.7826 4.85831C14.2724 5.35992 13.9797 6.05569 13.9797 6.7672V15.5021C13.8595 15.6529 13.5585 15.9857 13.0893 16.2214ZM9.67228 20.7838C8.37164 20.7838 7.66345 19.7699 7.63467 19.7279C7.50534 19.5239 7.18129 19.5237 7.05079 19.7268C7.02131 19.77 6.31307 20.7838 5.01248 20.7838C3.71189 20.7838 3.00365 19.77 2.97487 19.728C2.94906 19.6896 2.91594 19.6566 2.87741 19.631C2.83887 19.6055 2.79567 19.5877 2.75028 19.5788C2.70488 19.5699 2.65818 19.5701 2.61283 19.5792C2.56749 19.5884 2.5244 19.6064 2.48601 19.6322C2.44762 19.658 2.41469 19.6911 2.3891 19.7296C2.36351 19.7682 2.34577 19.8114 2.33687 19.8568C2.32798 19.9021 2.32812 19.9488 2.33727 19.9942C2.34643 20.0395 2.36443 20.0826 2.39024 20.121C2.42774 20.1768 3.32882 21.4883 5.01243 21.4883C6.16345 21.4883 6.9487 20.8754 7.34231 20.4697C7.73592 20.8754 8.52121 21.4883 9.67223 21.4883C9.86681 21.4883 10.0245 21.3306 10.0245 21.136C10.0245 20.9415 9.86685 20.7838 9.67228 20.7838ZM21.5152 19.6333C21.3546 19.5246 21.1359 19.5668 21.0265 19.7271C20.997 19.7702 20.2905 20.7838 18.9901 20.7838C17.6894 20.7838 16.9813 19.7699 16.9525 19.7279C16.823 19.5228 16.4973 19.5228 16.3679 19.7279C16.3607 19.7385 15.6427 20.7838 14.3302 20.7838C13.0296 20.7838 12.3214 19.7699 12.2926 19.7279C12.1632 19.5238 11.8389 19.5236 11.7086 19.7271C11.7058 19.7311 11.4215 20.1424 10.8971 20.4484C10.8572 20.4717 10.8222 20.5027 10.7942 20.5395C10.7662 20.5764 10.7458 20.6184 10.734 20.6631C10.7222 20.7079 10.7194 20.7545 10.7257 20.8003C10.7319 20.8462 10.7472 20.8903 10.7705 20.9303C10.7938 20.9702 10.8248 21.0052 10.8616 21.0332C10.8985 21.0612 10.9404 21.0816 10.9852 21.0934C11.0299 21.1051 11.0766 21.108 11.1224 21.1017C11.1682 21.0955 11.2124 21.0802 11.2523 21.0569C11.5759 20.868 11.8261 20.6484 12.0001 20.4694C12.3936 20.875 13.1789 21.4883 14.3302 21.4883C15.4813 21.4883 16.2665 20.8754 16.6601 20.4697C17.0537 20.8754 17.839 21.4883 18.99 21.4883C20.6738 21.4883 21.5732 20.1765 21.6107 20.1207C21.7189 19.9595 21.6759 19.742 21.5152 19.6333Z" fill="black"/>
</g>
<defs>
<clipPath id="clip0_266_2217">
<rect width="24" height="24" fill="white"/>
</clipPath>
</defs>
</svg>
