<svg width="25" height="25" viewBox="0 0 25 25" fill="none" xmlns="http://www.w3.org/2000/svg">
<path d="M10.9364 6.16181C11.9244 6.16181 12.7282 5.35481 12.7282 4.36331C12.6439 1.98281 9.22816 1.98331 9.14441 4.36331C9.14466 5.35506 9.94841 6.16181 10.9364 6.16181ZM10.9364 3.31756C12.3309 3.36156 12.3307 5.36531 10.9364 5.40906C9.54191 5.36506 9.54241 3.36131 10.9364 3.31756ZM7.05691 14.4673C7.00766 12.9038 4.76091 12.9043 4.71191 14.4673C4.76116 16.0311 7.00791 16.0306 7.05691 14.4673ZM5.88441 14.8901C5.32091 14.8801 5.32091 14.0548 5.88441 14.0451C6.44791 14.0548 6.44766 14.8801 5.88441 14.8901ZM12.5414 11.7073C12.4702 11.6183 12.3624 11.5666 12.2484 11.5666H9.71041C9.60616 11.5666 9.50666 11.6098 9.43566 11.6863C9.36466 11.7628 9.32891 11.8651 9.33641 11.9691L9.69966 16.9028L6.73516 21.8531C6.49091 22.2761 7.11566 22.6601 7.37866 22.2383L10.4042 17.1863C10.4439 17.1201 10.4619 17.0433 10.4564 16.9663L10.1142 12.3166H12.0682L15.8759 17.0813L14.6117 21.9516C14.4939 22.4251 15.2042 22.6191 15.3374 22.1401L16.6489 17.0881C16.6787 16.9736 16.6527 16.8521 16.5789 16.7598L12.5414 11.7073Z" fill="black"/>
<path d="M16.6168 10.0008C17.7181 10.0008 19.2053 9.10428 19.6768 8.63278C21.5268 6.63803 18.7706 3.87653 16.7723 5.72828C16.2116 6.28903 15.0553 8.28353 15.5156 9.35928L14.6453 10.2295L12.8156 9.45428L12.7283 6.87753C12.7216 6.67553 12.5558 6.51528 12.3536 6.51528H9.51982C9.21057 6.51153 9.06757 6.85878 9.17807 7.11853L10.6723 10.4293C10.7128 10.5188 10.7868 10.589 10.8783 10.6245L13.3656 11.5913C13.2708 12.0368 13.8113 12.2245 14.0703 11.8653C14.2621 11.9535 14.4996 11.864 14.5773 11.66C14.6156 11.5613 14.6091 11.4565 14.5678 11.3675L14.8178 11.1175L16.7671 11.9435C16.9531 12.0235 17.1778 11.9373 17.2588 11.7445C17.3396 11.5538 17.2506 11.3335 17.0598 11.2528L15.3901 10.5453L16.0451 9.89028C16.2166 9.96353 16.4083 10.0008 16.6168 10.0008ZM13.8858 10.989L11.2926 9.98103L10.0671 7.26528H11.9911L12.0741 9.71878C12.0791 9.86453 12.1681 9.99453 12.3026 10.0515L14.0731 10.8018L13.8858 10.989ZM17.3026 6.25878C18.5503 5.07528 20.3303 6.85528 19.1466 8.10278C18.3346 8.91478 16.5801 9.47628 16.2541 9.15128C15.9283 8.82553 16.4906 7.07078 17.3026 6.25878Z" fill="black"/>
</svg>
