<svg width="24" height="24" viewBox="0 0 24 24" fill="none" xmlns="http://www.w3.org/2000/svg">
<g clip-path="url(#clip0_266_2544)">
<path d="M14.9491 4.86735C16.291 4.86735 17.3827 3.7756 17.3827 2.43367C17.3827 1.09174 16.291 0 14.9491 0C13.6072 0 12.5155 1.09174 12.5155 2.43362C12.5155 3.7756 13.6072 4.86735 14.9491 4.86735ZM14.9491 0.414869C16.0622 0.414869 16.9678 1.3205 16.9678 2.43362C16.9678 3.54679 16.0622 4.45243 14.9491 4.45243C13.8359 4.45243 12.9304 3.54679 12.9304 2.43362C12.9303 1.3205 13.8359 0.414869 14.9491 0.414869Z" fill="black"/>
<path d="M21.9926 10.4251L17.5759 6.23773C16.8909 5.5635 15.7752 5.13281 14.9491 5.13281C14.1432 5.13281 13.0618 5.54265 12.3733 6.18863C12.372 6.1898 12.3705 6.19058 12.3692 6.1918L7.90431 10.4249C7.41637 10.8863 7.39465 11.6587 7.85594 12.1467C8.09515 12.3998 8.41797 12.5274 8.74142 12.5274C9.04183 12.5274 9.34288 12.4172 9.57794 12.195L11.7025 10.1818L11.7025 22.515C11.7025 23.334 12.3688 24.0002 13.1878 24.0002C14.0067 24.0002 14.673 23.334 14.673 22.515V16.218C14.8633 16.2375 15.0351 16.2375 15.2253 16.2181V22.5151C15.2253 23.334 15.8916 24.0002 16.7106 24.0002C17.5296 24.0002 18.1959 23.334 18.1959 22.5151L18.1958 10.1821L20.319 12.1952C20.554 12.4173 20.8549 12.5274 21.1554 12.5274C21.4788 12.5274 21.8017 12.3998 22.0409 12.1467C22.5021 11.6587 22.4804 10.8863 21.9926 10.4251ZM9.2928 11.8937C8.97111 12.1978 8.4617 12.1835 8.15748 11.8617C7.85331 11.54 7.86765 11.0306 8.18959 10.7261L11.7129 7.35993C11.7062 7.41577 11.7025 7.47219 11.7025 7.52924V9.61028L9.2928 11.8937ZM17.0415 23.5328V18.1583C17.0415 18.0438 16.9487 17.9509 16.8341 17.9509C16.7195 17.9509 16.6266 18.0438 16.6266 18.1583V23.5818C16.0755 23.5388 15.6402 23.0769 15.6402 22.5151V15.9796C15.6402 15.9183 15.613 15.8601 15.566 15.8207C15.5283 15.7891 15.4811 15.7722 15.4328 15.7722C15.4207 15.7722 15.4086 15.7732 15.3965 15.7754C15.2382 15.8035 15.0877 15.8178 14.9492 15.8178C14.8108 15.8178 14.6602 15.8035 14.5019 15.7753C14.4412 15.7646 14.3793 15.7811 14.3323 15.8206C14.2852 15.86 14.2581 15.9182 14.2581 15.9796V22.515C14.2581 23.0828 13.8136 23.5486 13.2543 23.5831C13.2543 22.8104 12.8394 22.8667 12.8394 23.5268C12.4198 23.3819 12.1174 22.9832 12.1174 22.515L12.1174 7.5292C12.1174 6.45449 13.8568 5.54763 14.9492 5.54763C16.0416 5.54763 17.7809 6.45449 17.7809 7.5292L17.781 22.515C17.7809 22.9898 17.4702 23.3931 17.0415 23.5328ZM21.7394 11.8617C21.4352 12.1835 20.9259 12.1979 20.6042 11.8939L18.1958 9.61047V7.52924C18.1958 7.48029 18.1929 7.43177 18.188 7.3837L21.7074 10.7263C22.0291 11.0306 22.0435 11.54 21.7394 11.8617Z" fill="black"/>
<path d="M10.275 14.1855H8.58196C8.47239 14.1855 8.38165 14.2708 8.37492 14.3802L7.93813 21.4418H4.17317L3.73638 14.3802C3.7296 14.2708 3.63891 14.1855 3.52934 14.1855H1.83633C1.77835 14.1855 1.72295 14.2099 1.68366 14.2526C1.64437 14.2953 1.6248 14.3525 1.62963 14.4103L2.35516 23.0828C2.36419 23.1903 2.454 23.2729 2.56186 23.2729H9.54944C9.6573 23.2729 9.74716 23.1903 9.75614 23.0828L10.4817 14.4103C10.4865 14.3525 10.4669 14.2953 10.4276 14.2526C10.3884 14.2099 10.333 14.1855 10.275 14.1855ZM9.35864 22.858H2.75266L2.06182 14.6004H3.3343L3.77109 21.662C3.77787 21.7714 3.86856 21.8566 3.97813 21.8566H8.13312C8.24269 21.8566 8.33343 21.7714 8.34016 21.662L8.77695 14.6004H10.0494L9.35864 22.858Z" fill="black"/>
<path d="M4.72969 15.387L6.5844 15.8751C6.60207 15.8798 6.61988 15.882 6.63736 15.882C6.72755 15.882 6.81033 15.8227 6.83649 15.7321L7.71899 12.678C7.73822 12.6115 7.723 12.5398 7.67843 12.4868C7.63382 12.4339 7.56554 12.4066 7.49701 12.4142L5.87502 12.5926L5.32559 12.057C5.26941 12.0022 5.18717 11.9838 5.11308 12.0094C5.03894 12.0351 4.98559 12.1003 4.97519 12.178L4.57692 15.1589C4.56306 15.2626 4.62856 15.3604 4.72969 15.387ZM5.33169 12.6423L5.65553 12.958C5.6999 13.0013 5.76144 13.0225 5.82304 13.0157L7.23447 12.8604L6.4942 15.4224L5.01239 15.0325L5.33169 12.6423Z" fill="black"/>
</g>
<defs>
<clipPath id="clip0_266_2544">
<rect width="24" height="24" fill="white"/>
</clipPath>
</defs>
</svg>
