<svg width="24" height="24" viewBox="0 0 24 24" fill="none" xmlns="http://www.w3.org/2000/svg">
<g clip-path="url(#clip0_268_2789)">
<path d="M22.8151 19.6571C22.831 19.5535 22.8387 19.4538 22.8387 19.3548C22.8387 18.0739 21.7971 17.0323 20.5161 17.0323C20.2161 17.0323 19.9304 17.091 19.6673 17.1952C19.3904 16.8225 19.0118 16.5476 18.5806 16.3955V12.1015C19.1488 12.7483 19.9769 13.1613 20.9032 13.1613C22.6108 13.1613 24 11.7721 24 10.0645C24.0004 9.56468 23.8796 9.07219 23.6479 8.62931C23.4162 8.18643 23.0804 7.80638 22.6695 7.52177C22.7813 7.22057 22.8386 6.9019 22.8387 6.58065C22.8387 5.46508 22.1439 4.47015 21.134 4.06452C21.2378 3.75243 21.2906 3.42566 21.2903 3.09677C21.2903 1.38919 19.9011 0 18.1935 0C16.486 0 15.0968 1.38919 15.0968 3.09677C15.0968 3.42847 15.1495 3.75242 15.2531 4.06452C14.2432 4.47015 13.5484 5.46508 13.5484 6.58065C13.5485 6.9019 13.6058 7.22057 13.7175 7.52177C13.3066 7.80638 12.9709 8.18643 12.7392 8.62931C12.5075 9.07219 12.3866 9.56468 12.3871 10.0645C12.3871 11.7721 13.7763 13.1613 15.4839 13.1613C16.4102 13.1613 17.2383 12.7483 17.8065 12.1015V16.2581C17.0447 16.2581 16.3696 16.6281 15.946 17.1963C15.6766 17.0907 15.3894 17.0323 15.0968 17.0323C14.3075 17.0323 13.5849 17.4419 13.1613 18.0836V16.2581H14.7097V13.9355H13.1613V13.001L11.6129 11.4526L10.0645 13.001V13.9355H9.29032V13.001L7.74194 11.4526L6.96774 12.2268V8.90323H8.12903C9.62279 8.90323 10.8387 7.68731 10.8387 6.19355V5.80645H8.90323C8.14529 5.80645 7.46013 6.12 6.96774 6.62356V5.03226H8.12903C9.62279 5.03226 10.8387 3.81634 10.8387 2.32258V1.93548H8.90323C8.63032 1.93548 8.36284 1.97802 8.10387 2.05853L6.58065 0.154403L5.05742 2.05853C4.79845 1.97802 4.53097 1.93548 4.25806 1.93548H2.32258V2.32258C2.32258 3.81634 3.5385 5.03226 5.03226 5.03226H6.19355V8.55905C5.70116 8.05548 5.016 7.74194 4.25806 7.74194H2.32258V8.12903C2.32258 9.62279 3.5385 10.8387 5.03226 10.8387H6.19355V13.9355H5.41935V13.001L3.87097 11.4526L2.32258 13.001V13.9355H0.774194V16.2581H2.32258V18.5806H0.774194V20.9032H2.32258V23.2258H1.54839V24H21.6774C22.9584 24 24 22.9584 24 21.6774C24 20.8257 23.5445 20.064 22.8151 19.6571ZM15.4839 12.3871C14.2029 12.3871 13.1613 11.3455 13.1613 10.0645C13.1613 9.20603 13.6327 8.42047 14.3916 8.01523L14.7333 7.83281L14.5505 7.4911C14.3993 7.20852 14.3226 6.90198 14.3226 6.58065C14.3226 5.67281 14.9664 4.87708 15.8535 4.68808L16.344 4.58356L16.1191 4.13579C15.9545 3.80782 15.871 3.45871 15.871 3.09677C15.871 1.81582 16.9126 0.774194 18.1935 0.774194C19.4745 0.774194 20.5161 1.81582 20.5161 3.09677C20.5161 3.45871 20.4326 3.80782 20.268 4.13613L20.043 4.5839L20.5335 4.68842C21.4207 4.87713 22.0645 5.67285 22.0645 6.58065C22.0645 6.90194 21.9878 7.20856 21.8366 7.49148L21.6538 7.83324L21.9955 8.01566C22.7544 8.42042 23.2258 9.20594 23.2258 10.0645C23.2258 11.3455 22.1842 12.3871 20.9032 12.3871C19.9292 12.3871 19.0951 11.7843 18.7506 10.9328L20.5439 9.73732L21.891 10.411L22.2375 9.71845L20.4878 8.84371L18.5829 10.1137C18.5825 10.097 18.5806 10.0812 18.5806 10.0645V7.92813L19.025 7.57239L19.8554 8.40271L20.4027 7.85535L19.6336 7.08624L20.371 6.49635L19.8871 5.89171L18.5806 6.93639V5.23945L19.5697 4.58013L19.1403 3.936L18.5806 4.30906V3.27677L17.2471 2.38766L16.8177 3.03179L17.8065 3.69102V8.48472L16.5469 7.47711L15.8059 6.36576L15.1618 6.79519L15.7599 7.69244L14.8231 8.62916L15.3705 9.17652L16.2975 8.24942L17.8065 9.47497V10.0645C17.8065 11.3455 16.7648 12.3871 15.4839 12.3871ZM8.90323 6.58065H10.0254C9.84547 7.46274 9.06392 8.12903 8.12903 8.12903H7.00689C7.1864 7.24694 7.96834 6.58065 8.90323 6.58065ZM10.0254 2.70968C9.84924 3.57402 9.0945 4.22671 8.18477 4.25298C8.39235 3.95773 8.51613 3.5999 8.51613 3.21242C8.51613 3.06155 8.49097 2.91281 8.45414 2.76765C8.601 2.73218 8.75071 2.70968 8.90323 2.70968H10.0254ZM5.64881 2.55905L6.58065 1.39398L7.51287 2.55944C7.66096 2.74488 7.74172 2.9751 7.74194 3.21242C7.74194 3.78895 7.27282 4.25806 6.69629 4.25806H6.465C5.88842 4.25806 5.41935 3.78895 5.41935 3.21242C5.41935 2.976 5.50064 2.74369 5.64881 2.55905ZM3.13597 2.70968H4.25806C4.41058 2.70968 4.56029 2.73218 4.70758 2.76774C4.67032 2.9129 4.64516 3.0616 4.64516 3.21242C4.64516 3.5999 4.76898 3.95773 4.97613 4.25298C4.06679 4.22671 3.31214 3.57402 3.13597 2.70968ZM5.03226 10.0645C4.09742 10.0645 3.31548 9.39823 3.13592 8.51613H4.25806C5.1929 8.51613 5.97484 9.18242 6.1544 10.0645H5.03226ZM13.9355 14.7097V15.4839H13.1613V14.7097H13.9355ZM11.6129 12.5474L12.3871 13.3215V17.8412C12.2608 17.82 12.132 17.8065 12 17.8065C11.5808 17.8065 11.1837 17.921 10.8387 18.1208V13.3216L11.6129 12.5474ZM10.0645 18.8555C9.95961 19.0139 9.87532 19.1857 9.81145 19.3696C9.63053 19.3892 9.45648 19.4315 9.29032 19.4908V16.2581H10.0645V18.8555ZM10.0645 14.7097V15.4839H9.29032V14.7097H10.0645ZM8.51613 13.3215V19.951C8.04227 20.3764 7.74194 20.9915 7.74194 21.6774C7.74194 22.2728 7.96877 22.8143 8.33806 23.2258H6.96774V13.3215L7.74194 12.5474L8.51613 13.3215ZM6.19355 18.5806H5.41935V16.2581H6.19355V18.5806ZM6.19355 19.3548V20.129H5.41935V19.3548H6.19355ZM6.19355 20.9032V23.2258H5.41935V20.9032H6.19355ZM6.19355 14.7097V15.4839H5.41935V14.7097H6.19355ZM1.54839 15.4839V14.7097H2.32258V15.4839H1.54839ZM1.54839 20.129V19.3548H2.32258V20.129H1.54839ZM3.09677 13.3215L3.87097 12.5474L4.64516 13.3215V23.2258H3.09677V13.3215ZM21.6774 23.2258H10.0645C9.21058 23.2258 8.51613 22.5314 8.51613 21.6774C8.51613 20.8235 9.21058 20.129 10.0645 20.129C10.9185 20.129 11.6129 20.8235 11.6129 21.6774H12.3871C12.3871 20.5908 11.6361 19.6784 10.6263 19.4265C10.8859 18.9209 11.4097 18.5806 12 18.5806C12.8539 18.5806 13.5484 19.2751 13.5484 20.129H14.3226C14.3226 19.5433 14.1031 19.0095 13.7442 18.6003C14.0145 18.1178 14.5324 17.8065 15.0968 17.8065C15.2655 17.8065 15.4311 17.8371 15.5888 17.8896C15.5191 18.1133 15.4837 18.3463 15.4839 18.5806H16.2581C16.2581 17.7267 16.9525 17.0323 17.8065 17.0323C18.2767 17.0323 18.7095 17.2451 18.9999 17.5993C18.5071 18.0255 18.1935 18.6538 18.1935 19.3548H18.9677C18.9677 18.5009 19.6622 17.8065 20.5161 17.8065C21.3701 17.8065 22.0645 18.5009 22.0645 19.3548C22.0645 19.4787 22.0435 19.6115 21.9991 19.7718L21.9046 20.1101L22.2326 20.2366C22.836 20.4696 23.2258 21.0352 23.2258 21.6774C23.2258 22.5314 22.5314 23.2258 21.6774 23.2258ZM0 23.2258H0.774194V24H0V23.2258Z" fill="black"/>
<path d="M21.2903 13.9355H19.3549V14.3226C19.3549 15.3898 20.2232 16.2581 21.2903 16.2581H23.2258V15.871C23.2258 14.8039 22.3575 13.9355 21.2903 13.9355ZM21.2903 15.4839C20.7855 15.4839 20.3551 15.1603 20.1952 14.7097H21.2903C21.7952 14.7097 22.2256 15.0334 22.3855 15.4839H21.2903Z" fill="black"/>
</g>
<defs>
<clipPath id="clip0_268_2789">
<rect width="24" height="24" fill="white"/>
</clipPath>
</defs>
</svg>
