<svg width="24" height="24" viewBox="0 0 24 24" fill="none" xmlns="http://www.w3.org/2000/svg">
<path fill-rule="evenodd" clip-rule="evenodd" d="M1.5 22.875H22.5C22.707 22.875 22.875 22.707 22.875 22.5V7.5C22.875 7.36538 22.803 7.24125 22.686 7.1745L19.875 5.568V2.25C19.875 2.043 19.707 1.875 19.5 1.875H16.125C15.918 1.875 15.75 2.043 15.75 2.25V3.21112L12.186 1.1745C12.0709 1.1085 11.9291 1.1085 11.814 1.1745L1.314 7.1745C1.197 7.24125 1.125 7.36538 1.125 7.5V22.5C1.125 22.707 1.293 22.875 1.5 22.875ZM3 22.125V9.05363H1.875V22.125H3ZM3.75 8.89612V22.125H7.875V17.6209L6.55538 16.5945C6.35738 16.7692 6.09713 16.875 5.8125 16.875C5.1915 16.875 4.6875 16.371 4.6875 15.75C4.6875 15.129 5.1915 14.625 5.8125 14.625C6.4335 14.625 6.9375 15.129 6.9375 15.75C6.9375 15.8115 6.93262 15.8715 6.92325 15.9304L8.48025 17.1416C8.57175 17.2125 8.625 17.3216 8.625 17.4375V22.125H9.75V13.6553L8.73487 12.6401C8.58825 12.7106 8.42362 12.75 8.25 12.75C7.629 12.75 7.125 12.246 7.125 11.625C7.125 11.004 7.629 10.5 8.25 10.5C8.871 10.5 9.375 11.004 9.375 11.625C9.375 11.7986 9.33563 11.9633 9.26513 12.1099L10.3901 13.2349C10.4606 13.305 10.5 13.4006 10.5 13.5V22.125H11.625V11.1859C11.1881 11.0314 10.875 10.6144 10.875 10.125C10.875 9.504 11.379 9 12 9C12.621 9 13.125 9.504 13.125 10.125C13.125 10.6144 12.8119 11.0314 12.375 11.1859V22.125H13.5V13.5C13.5 13.4006 13.5394 13.305 13.6099 13.2349L14.7349 12.1099C14.6644 11.9633 14.625 11.7986 14.625 11.625C14.625 11.004 15.129 10.5 15.75 10.5C16.371 10.5 16.875 11.004 16.875 11.625C16.875 12.246 16.371 12.75 15.75 12.75C15.5764 12.75 15.4117 12.7106 15.2651 12.6401L14.25 13.6553V22.125H15.375V17.4375C15.375 17.3216 15.4283 17.2125 15.5198 17.1416L17.0767 15.9304C17.0674 15.8715 17.0625 15.8115 17.0625 15.75C17.0625 15.129 17.5665 14.625 18.1875 14.625C18.8085 14.625 19.3125 15.129 19.3125 15.75C19.3125 16.371 18.8085 16.875 18.1875 16.875C17.9029 16.875 17.6426 16.7692 17.4446 16.5945L16.125 17.6209V22.125H20.25V8.89612L12 4.182L3.75 8.89612ZM22.125 9.05363H21V22.125H22.125V9.05363ZM5.8125 15.375C6.0195 15.375 6.1875 15.543 6.1875 15.75C6.1875 15.957 6.0195 16.125 5.8125 16.125C5.6055 16.125 5.4375 15.957 5.4375 15.75C5.4375 15.543 5.6055 15.375 5.8125 15.375ZM18.1875 15.375C18.3945 15.375 18.5625 15.543 18.5625 15.75C18.5625 15.957 18.3945 16.125 18.1875 16.125C17.9805 16.125 17.8125 15.957 17.8125 15.75C17.8125 15.543 17.9805 15.375 18.1875 15.375ZM8.25 11.25C8.457 11.25 8.625 11.418 8.625 11.625C8.625 11.832 8.457 12 8.25 12C8.043 12 7.875 11.832 7.875 11.625C7.875 11.418 8.043 11.25 8.25 11.25ZM15.75 11.25C15.957 11.25 16.125 11.418 16.125 11.625C16.125 11.832 15.957 12 15.75 12C15.543 12 15.375 11.832 15.375 11.625C15.375 11.418 15.543 11.25 15.75 11.25ZM12 9.75C12.207 9.75 12.375 9.918 12.375 10.125C12.375 10.332 12.207 10.5 12 10.5C11.793 10.5 11.625 10.332 11.625 10.125C11.625 9.918 11.793 9.75 12 9.75ZM16.5 3.63937L17.061 3.96C17.2406 4.06275 17.3032 4.29225 17.2005 4.47188C17.0977 4.6515 16.8686 4.71412 16.689 4.61137L12 1.932L1.875 7.7175V8.30363H3.27525L11.814 3.4245C11.9291 3.3585 12.0709 3.3585 12.186 3.4245L20.7248 8.30363H22.125V7.7175L19.314 6.11138C19.1681 6.02813 19.0995 5.86125 19.1336 5.70525C19.128 5.67937 19.125 5.65275 19.125 5.625V2.625H16.5V3.63937Z" fill="black"/>
</svg>
