<svg width="23" height="24" viewBox="0 0 23 24" fill="none" xmlns="http://www.w3.org/2000/svg">
<path d="M17.3296 11.5569C19.5952 9.24175 19.976 5.94027 18.1801 4.18287C16.3843 2.42546 13.0918 2.87761 10.8262 5.19278C8.56063 7.50795 8.17983 10.8094 9.97569 12.5668C11.7715 14.3242 15.064 13.8721 17.3296 11.5569Z" stroke="#212121" stroke-width="0.564644" stroke-linecap="round" stroke-linejoin="round"/>
<path d="M17.2337 11.6543C17.0154 11.8693 16.7844 12.071 16.542 12.2584C16.4601 12.322 16.3769 12.3827 16.2936 12.4419C15.7324 12.8411 15.1135 13.1525 14.4585 13.3651C13.7124 13.6124 12.9205 13.69 12.1406 13.5924C11.2872 13.4918 10.494 13.1017 9.89334 12.4871C9.32201 11.8795 8.96508 11.1017 8.87698 10.2723C8.78906 9.48042 8.87677 8.6789 9.13389 7.92479C9.37015 7.21408 9.72058 6.54659 10.1714 5.94854C10.2011 5.90901 10.2321 5.86949 10.2618 5.82855C10.4658 5.56707 10.6864 5.31905 10.9224 5.08604C11.2775 4.73677 11.6672 4.4246 12.0856 4.15438C12.1618 4.10498 12.238 4.05698 12.3157 4.01322C12.9075 3.65498 13.5527 3.39337 14.227 3.23825C15.0125 3.05131 15.8323 3.0649 16.6112 3.27777C17.2357 3.45287 17.8023 3.79099 18.2529 4.25743C18.7199 4.74935 19.0448 5.35866 19.193 6.02053C19.3648 6.81387 19.3435 7.63687 19.1309 8.42026C18.9692 9.04231 18.7171 9.63729 18.3828 10.1862C18.3079 10.3104 18.2289 10.4332 18.1442 10.5546C17.8766 10.9495 17.5717 11.3177 17.2337 11.6543Z" stroke="#212121" stroke-width="0.564644" stroke-linecap="round" stroke-linejoin="round"/>
<path d="M17.2333 11.6543C17.015 11.8693 16.784 12.071 16.5416 12.2584C16.4597 12.322 16.3764 12.3827 16.2931 12.4419C15.7319 12.8411 15.1131 13.1525 14.458 13.3651C13.7119 13.6124 12.9201 13.69 12.1402 13.5924C11.2867 13.4918 10.4936 13.1017 9.89289 12.4871C9.32156 11.8795 8.96463 11.1017 8.87653 10.2723C8.78861 9.48042 8.87632 8.6789 9.13344 7.92479C9.3697 7.21408 9.72013 6.54659 10.171 5.94854C10.2006 5.90901 10.2317 5.86949 10.2613 5.82855C10.4653 5.56707 10.686 5.31905 10.922 5.08604C11.277 4.73677 11.6667 4.4246 12.0851 4.15438C12.1613 4.10497 12.2376 4.05698 12.3152 4.01322C12.9071 3.65498 13.5523 3.39337 14.2265 3.23825C15.012 3.05131 15.8319 3.0649 16.6107 3.27777C17.2352 3.45287 17.8018 3.79099 18.2524 4.25743C18.7194 4.74935 19.0443 5.35866 19.1926 6.02053C19.3644 6.81387 19.3431 7.63687 19.1305 8.42026C18.9687 9.04231 18.7167 9.63728 18.3823 10.1862C18.3075 10.3104 18.2284 10.4332 18.1437 10.5546C17.8762 10.9495 17.5713 11.3177 17.2333 11.6543ZM2.74591 21.2236C1.34371 21.4758 0.786129 20.8961 1.07316 19.4845L6.29611 14.3434L7.96746 16.0825L2.74591 21.2236Z" stroke="#212121" stroke-width="0.564644" stroke-linecap="round" stroke-linejoin="round"/>
<path d="M9.05848 8.17578L6.26208 14.3078" stroke="#212121" stroke-width="0.564644" stroke-linecap="round" stroke-linejoin="round"/>
<path d="M14.1273 13.457L7.99524 16.1165" stroke="#212121" stroke-width="0.564644" stroke-linecap="round" stroke-linejoin="round"/>
<path d="M12.7058 21.2801C13.2281 20.3297 12.8976 19.145 11.9677 18.634C11.0378 18.123 9.86061 18.4792 9.33835 19.4296C8.81608 20.3799 9.14653 21.5646 10.0764 22.0756C11.0063 22.5866 12.1835 22.2304 12.7058 21.2801Z" stroke="#212121" stroke-width="0.564644" stroke-linecap="round" stroke-linejoin="round"/>
<path d="M1.47083 19.0898L3.17887 20.8007" stroke="#212121" stroke-width="0.564644" stroke-linecap="round" stroke-linejoin="round"/>
<path d="M3.18079 17.377L4.88742 19.0892" stroke="#212121" stroke-width="0.564644" stroke-linecap="round" stroke-linejoin="round"/>
<path d="M4.79932 15.7559L6.50595 17.4667" stroke="#212121" stroke-width="0.564644" stroke-linecap="round" stroke-linejoin="round"/>
</svg>
