<svg width="24" height="24" viewBox="0 0 24 24" fill="none" xmlns="http://www.w3.org/2000/svg">
<g clip-path="url(#clip0_266_2456)">
<path d="M19.3593 19.0906H0.785636V4.91064H4.09583C4.31275 4.91064 4.48865 4.73473 4.48865 4.51782C4.48865 4.3009 4.31275 4.125 4.09583 4.125H0.392818C0.175904 4.125 0 4.3009 0 4.51782V19.4834C0 19.7003 0.175904 19.8762 0.392818 19.8762H19.3593C19.5762 19.8762 19.7521 19.7003 19.7521 19.4834C19.7521 19.2665 19.5763 19.0906 19.3593 19.0906Z" fill="black"/>
<path d="M23.6072 4.125H5.59253C5.37561 4.125 5.19971 4.3009 5.19971 4.51782C5.19971 4.73473 5.37561 4.91064 5.59253 4.91064H23.2144V19.0906H20.7815C20.5646 19.0906 20.3887 19.2665 20.3887 19.4834C20.3887 19.7003 20.5646 19.8762 20.7815 19.8762H23.6072C23.8242 19.8762 24.0001 19.7003 24.0001 19.4834V4.51782C24 4.30083 23.8241 4.125 23.6072 4.125Z" fill="black"/>
<path d="M14.1086 15.918C13.8917 15.918 13.7158 16.0939 13.7158 16.3108C13.7158 16.5277 13.8917 16.7036 14.1086 16.7036H16.2427C16.4596 16.7036 16.6355 16.5277 16.6355 16.3108C16.6355 16.0939 16.4596 15.918 16.2427 15.918H14.1086Z" fill="black"/>
<path d="M21.2771 15.918H17.5536C17.3367 15.918 17.1608 16.0939 17.1608 16.3108C17.1608 16.5277 17.3367 16.7036 17.5536 16.7036H21.2771C21.494 16.7036 21.6699 16.5277 21.6699 16.3108C21.6699 16.0939 21.494 15.918 21.2771 15.918Z" fill="black"/>
<path d="M12.5565 16.7017H12.8913C13.1082 16.7017 13.2841 16.5257 13.2841 16.3088C13.2841 16.0919 13.1082 15.916 12.8913 15.916H12.5565C12.3396 15.916 12.1637 16.0919 12.1637 16.3088C12.1637 16.5258 12.3396 16.7017 12.5565 16.7017Z" fill="black"/>
<path d="M12.5565 13.8306H21.2772C21.4941 13.8306 21.67 13.6547 21.67 13.4377C21.67 13.2208 21.4941 13.0449 21.2772 13.0449H12.5565C12.3396 13.0449 12.1637 13.2208 12.1637 13.4377C12.1637 13.6547 12.3396 13.8306 12.5565 13.8306Z" fill="black"/>
<path d="M21.2772 10.1719H18.6782C18.4613 10.1719 18.2854 10.3478 18.2854 10.5647C18.2854 10.7816 18.4613 10.9575 18.6782 10.9575H21.2772C21.4941 10.9575 21.67 10.7816 21.67 10.5647C21.67 10.3478 21.4941 10.1719 21.2772 10.1719Z" fill="black"/>
<path d="M16.964 10.1719C16.7471 10.1719 16.5712 10.3478 16.5712 10.5647C16.5712 10.7816 16.7471 10.9575 16.964 10.9575H17.4123C17.6292 10.9575 17.8051 10.7816 17.8051 10.5647C17.8051 10.3478 17.6292 10.1719 17.4123 10.1719H16.964Z" fill="black"/>
<path d="M12.5565 10.9575H15.6928C15.9097 10.9575 16.0856 10.7816 16.0856 10.5647C16.0856 10.3478 15.9097 10.1719 15.6928 10.1719H12.5565C12.3396 10.1719 12.1637 10.3478 12.1637 10.5647C12.1637 10.7817 12.3396 10.9575 12.5565 10.9575Z" fill="black"/>
<path d="M21.2772 7.29883H12.5565C12.3396 7.29883 12.1637 7.47473 12.1637 7.69165C12.1637 7.90856 12.3396 8.08446 12.5565 8.08446H21.2772C21.4941 8.08446 21.67 7.90856 21.67 7.69165C21.67 7.47473 21.4941 7.29883 21.2772 7.29883Z" fill="black"/>
<path d="M4.51725 11.4176C3.44227 12.045 2.77283 13.1899 2.77283 14.4669V16.1427C2.77283 16.3596 2.94873 16.5355 3.16565 16.5355H9.45073C9.66765 16.5355 9.84355 16.3596 9.84355 16.1427V15.6093C9.84355 15.3924 9.66765 15.2165 9.45073 15.2165C9.23382 15.2165 9.05792 15.3924 9.05792 15.6093V15.7498H3.55846V14.4669C3.55846 13.3675 4.19734 12.3953 5.19494 11.9542C5.52742 12.1307 5.90626 12.2311 6.30819 12.2311C6.71083 12.2311 7.09021 12.1303 7.42316 11.9533C7.732 12.0902 8.01058 12.2812 8.25232 12.523C8.77179 13.0418 9.05784 13.7321 9.05784 14.4668C9.05784 14.6837 9.23374 14.8596 9.45065 14.8596C9.66757 14.8596 9.84347 14.6837 9.84347 14.4668C9.84347 13.522 9.47556 12.6342 8.80761 11.9672C8.59305 11.7527 8.35571 11.5692 8.0985 11.4181C8.46704 10.9984 8.69118 10.449 8.69118 9.84791C8.69118 8.53386 7.62217 7.46484 6.30811 7.46484C6.0912 7.46484 5.91529 7.64075 5.91529 7.85766C5.91529 8.07458 6.0912 8.25048 6.30811 8.25048C7.18889 8.25048 7.90554 8.96714 7.90554 9.84791C7.90554 10.7287 7.18889 11.4453 6.30811 11.4453C5.42726 11.4453 4.71068 10.7287 4.71068 9.84791C4.71068 9.42123 4.87684 9.02001 5.17852 8.71833C5.33196 8.56489 5.33196 8.31616 5.17852 8.1628C5.02509 8.00945 4.77643 8.00945 4.623 8.1628C4.17291 8.61289 3.92504 9.21139 3.92504 9.84791C3.92512 10.4488 4.1491 10.998 4.51725 11.4176Z" fill="black"/>
</g>
<defs>
<clipPath id="clip0_266_2456">
<rect width="24" height="24" fill="white"/>
</clipPath>
</defs>
</svg>
