<svg width="24" height="24" viewBox="0 0 24 24" fill="none" xmlns="http://www.w3.org/2000/svg">
<g clip-path="url(#clip0_266_2323)">
<path d="M20.4811 3.51544C15.7916 -1.17411 8.20072 -1.17472 3.51056 3.51544C-1.17899 8.20499 -1.17961 15.7959 3.51056 20.486C8.20011 25.1756 15.791 25.1762 20.4811 20.486C25.1707 15.7965 25.1713 8.20561 20.4811 3.51544ZM22.8499 9.87412C19.1232 7.84608 16.0145 4.86212 13.9797 1.11925C18.4525 1.92782 21.9843 5.42198 22.8499 9.87412ZM12.8424 0.973794C15.0223 5.29426 18.5808 8.76683 23.0111 11.0211C23.1064 12.1098 23.0436 13.188 22.8293 14.2346C16.8627 11.963 11.9246 7.44325 9.67244 1.18664C10.6712 0.973511 11.7373 0.890358 12.8424 0.973794ZM21.6476 17.4052C14.5337 15.2233 8.64373 9.87695 6.53917 2.37812C7.23494 1.98306 7.97785 1.66132 8.75748 1.42325C11.0579 7.89281 16.1671 12.7378 22.5987 15.1537C22.3641 15.945 22.0435 16.6991 21.6476 17.4052ZM15.5522 22.4762C9.06256 20.2373 3.7019 15.3651 1.48016 8.56735C1.84006 7.46278 2.36877 6.43497 3.03625 5.51422C5.23964 13.0617 11.1758 18.6029 18.5445 20.915C17.6419 21.5788 16.635 22.1093 15.5522 22.4762ZM1.07973 10.2223C3.40788 16.0471 8.08458 20.4875 13.966 22.8848C6.47286 24.2297 -0.142336 17.7964 1.07973 10.2223ZM19.4245 20.1961C11.9227 18.0569 5.78806 12.4278 3.76397 4.61304C4.34261 3.96862 4.99588 3.3929 5.71028 2.89892C7.92482 10.4233 13.8293 15.9101 21.1356 18.2314C20.6437 18.9521 20.0689 19.6118 19.4245 20.1961Z" fill="black"/>
</g>
<defs>
<clipPath id="clip0_266_2323">
<rect width="24" height="24" fill="white"/>
</clipPath>
</defs>
</svg>
