<svg width="24" height="24" viewBox="0 0 24 24" fill="none" xmlns="http://www.w3.org/2000/svg">
<g clip-path="url(#clip0_268_2832)">
<path d="M23.0156 22.7346H21.1706C21.1608 22.6661 21.1369 22.5991 21.0975 22.5372L20.6273 21.799H21.4327C21.7392 21.799 21.9886 21.5496 21.9886 21.243V20.703C21.9886 20.3965 21.7392 20.1471 21.4327 20.1471H19.5759L18.5803 18.5829H19.7077C20.0142 18.5829 20.2636 18.3335 20.2636 18.0269V17.4869C20.2636 17.1804 20.0142 16.931 19.7077 16.931H12.2995C11.993 16.931 11.7436 17.1804 11.7436 17.4869V18.0269C11.7436 18.3335 11.993 18.5829 12.2995 18.5829H13.4269L12.4313 20.1471H10.5745C10.268 20.1471 10.0186 20.3965 10.0186 20.703V21.243C10.0186 21.5496 10.268 21.799 10.5745 21.799H11.3798L10.9097 22.5372C10.8703 22.5991 10.8464 22.6661 10.837 22.7346H7.37625V15.7788C7.92469 16.4458 8.77641 16.8949 9.63937 16.8949C11.0395 16.8949 12.1786 15.7558 12.1786 14.3557C12.1786 13.4505 11.7005 12.625 10.9364 12.1718C11.1455 11.8024 11.2552 11.388 11.2552 10.9554C11.2552 9.85848 10.5403 8.90833 9.51656 8.59145C9.55224 8.42253 9.57015 8.25035 9.57 8.0777C9.57 6.71317 8.45953 5.6027 7.095 5.6027C5.73047 5.6027 4.62 6.71317 4.62 8.0777C4.62 8.25161 4.63781 8.42364 4.67344 8.59145C3.64969 8.90833 2.93484 9.85848 2.93484 10.9554C2.93484 11.3875 3.04406 11.8024 3.25359 12.1718C2.87476 12.3966 2.56099 12.7162 2.34319 13.0992C2.12538 13.4821 2.01103 13.9151 2.01141 14.3557C2.01141 15.7558 3.15047 16.8949 4.55063 16.8949C5.41359 16.8949 6.26531 16.4454 6.81375 15.7788V22.7346H0.984375C0.829219 22.7346 0.703125 22.8607 0.703125 23.0158C0.703125 23.171 0.829219 23.2971 0.984375 23.2971H23.0156C23.1708 23.2971 23.2969 23.171 23.2969 23.0158C23.2969 22.8607 23.1708 22.7346 23.0156 22.7346ZM4.55063 16.3324C3.46078 16.3324 2.57391 15.4455 2.57391 14.3557C2.57369 13.9687 2.68706 13.5902 2.89996 13.267C3.11286 12.9439 3.41592 12.6904 3.77156 12.5379C3.85125 12.5036 3.91031 12.4347 3.93234 12.3513C3.95438 12.2674 3.93703 12.1783 3.88453 12.1094C3.63094 11.7752 3.49734 11.3758 3.49734 10.9554C3.49734 10.0272 4.15922 9.23551 5.07094 9.07286C5.15203 9.05833 5.22234 9.00911 5.26406 8.93833C5.30578 8.86754 5.31422 8.78176 5.28703 8.70395C5.21739 8.50251 5.1819 8.29084 5.18203 8.0777C5.18203 7.02301 6.03984 6.1652 7.09453 6.1652C8.14922 6.1652 9.00703 7.02301 9.00703 8.0777C9.00703 8.29239 8.97188 8.50333 8.9025 8.70395C8.87578 8.78176 8.88422 8.86708 8.92547 8.93833C8.94606 8.97334 8.97398 9.0035 9.00731 9.02672C9.04065 9.04994 9.07861 9.06568 9.11859 9.07286C10.0303 9.23598 10.6922 10.0277 10.6922 10.9554C10.6922 11.3763 10.5581 11.7752 10.305 12.1094C10.2792 12.1434 10.2614 12.1829 10.2531 12.2248C10.2448 12.2667 10.2462 12.31 10.2572 12.3513C10.2681 12.3925 10.2883 12.4307 10.3161 12.463C10.344 12.4954 10.3788 12.5209 10.418 12.5379C10.7737 12.6902 11.0769 12.9437 11.2899 13.2669C11.5029 13.5901 11.6163 13.9686 11.6161 14.3557C11.6161 15.4455 10.7292 16.3324 9.63937 16.3324C8.60953 16.3324 7.60031 15.5421 7.37625 14.5657V13.6811L8.86266 12.2468C8.91627 12.195 8.94712 12.124 8.94844 12.0495C8.94976 11.9749 8.92143 11.9029 8.86969 11.8493C8.84407 11.8227 8.81346 11.8014 8.7796 11.7866C8.74575 11.7719 8.70932 11.764 8.6724 11.7633C8.63547 11.7626 8.59879 11.7693 8.56443 11.7828C8.53008 11.7964 8.49873 11.8166 8.47219 11.8422L7.37625 12.8997V9.91661C7.37625 9.76145 7.25016 9.63536 7.095 9.63536C6.93984 9.63536 6.81375 9.76145 6.81375 9.91661V11.1363L6.0225 10.3732C5.99596 10.3475 5.96461 10.3273 5.93026 10.3138C5.8959 10.3002 5.85921 10.2936 5.82229 10.2942C5.78537 10.2949 5.74894 10.3028 5.71509 10.3176C5.68123 10.3323 5.65062 10.3536 5.625 10.3802C5.57325 10.4339 5.54493 10.5059 5.54625 10.5804C5.54756 10.6549 5.57842 10.7259 5.63203 10.7777L6.81375 11.9177V14.4527L6.0225 13.6896C5.99596 13.6639 5.96461 13.6437 5.93026 13.6302C5.8959 13.6166 5.85921 13.61 5.82229 13.6106C5.78537 13.6113 5.74894 13.6192 5.71509 13.634C5.68123 13.6487 5.65062 13.67 5.625 13.6966C5.57325 13.7503 5.54493 13.8223 5.54625 13.8968C5.54756 13.9713 5.57842 14.0423 5.63203 14.0941L6.62906 15.0565C6.23719 15.7933 5.40094 16.3324 4.55063 16.3324ZM20.5561 22.7346H19.9294L19.3341 21.7994H19.9608L20.5561 22.7346ZM18.667 21.799L19.2623 22.7341H12.7444L13.3397 21.799H18.667ZM18.9094 20.1471H18.2827L17.287 18.5829H17.9137L18.9094 20.1471ZM16.62 18.5833L17.6156 20.1475H14.3916L15.3872 18.5833H16.62ZM12.3061 17.494H19.7011V18.0208H12.3061V17.494ZM14.0934 18.5833H14.7202L13.7245 20.1475H13.0978L14.0934 18.5833ZM10.5806 20.7096H21.4266V21.2365H10.5806V20.7096ZM12.0464 21.799H12.6731L12.0778 22.7346H11.4511L12.0464 21.799ZM11.0212 1.08301C11.0134 1.00889 11.0352 0.934664 11.082 0.876593C11.1287 0.818522 11.1965 0.781334 11.2706 0.77317C11.8327 0.712701 12.3872 0.873014 12.7533 1.20254C12.8189 1.26161 12.878 1.32536 12.93 1.39286C12.982 1.32536 13.0411 1.26161 13.1067 1.20254C13.4733 0.873482 14.0273 0.71317 14.5894 0.77317C14.7436 0.789576 14.8556 0.928326 14.8387 1.08301C14.8223 1.23723 14.6836 1.34879 14.5289 1.33239C14.1291 1.28926 13.7278 1.39989 13.4822 1.62067C13.3022 1.78239 13.2108 1.99333 13.2108 2.24739C13.2108 2.40254 13.0847 2.52864 12.9295 2.52864C12.7744 2.52864 12.6483 2.40254 12.6483 2.24739C12.6483 1.99333 12.5569 1.78239 12.3769 1.62067C12.1313 1.39989 11.73 1.28973 11.3302 1.33239C11.1764 1.34973 11.0377 1.2377 11.0212 1.08301ZM15.0277 5.24833C15.5897 5.18833 16.1442 5.34817 16.5103 5.6777C16.5759 5.73676 16.635 5.80051 16.687 5.86801C16.7391 5.80051 16.7981 5.73676 16.8638 5.6777C17.2303 5.34864 17.7844 5.18833 18.3464 5.24833C18.5006 5.26473 18.6127 5.40348 18.5958 5.55817C18.5919 5.5949 18.5807 5.6305 18.563 5.66293C18.5453 5.69535 18.5214 5.72397 18.4926 5.74713C18.4638 5.7703 18.4307 5.78755 18.3953 5.79792C18.3598 5.80829 18.3227 5.81156 18.2859 5.80755C17.8861 5.76442 17.4848 5.87504 17.2392 6.09583C17.0592 6.25754 16.9678 6.46848 16.9678 6.72254C16.9678 6.8777 16.8417 7.00379 16.6866 7.00379C16.5314 7.00379 16.4053 6.8777 16.4053 6.72254C16.4053 6.46848 16.3139 6.25754 16.1339 6.09583C15.8883 5.87504 15.487 5.76489 15.0872 5.80755C14.933 5.82442 14.7942 5.71239 14.7773 5.55817C14.7698 5.48395 14.7918 5.40975 14.8387 5.35171C14.8856 5.29368 14.9535 5.25652 15.0277 5.24833ZM19.477 1.02536C19.4692 0.951158 19.4911 0.87687 19.5379 0.818786C19.5847 0.760702 19.6527 0.723563 19.7269 0.715514C20.2889 0.655514 20.8434 0.815826 21.2095 1.14489C21.2752 1.20395 21.3342 1.2677 21.3862 1.3352C21.4383 1.2677 21.4973 1.20395 21.563 1.14489C21.9295 0.815826 22.4836 0.655514 23.0456 0.715514C23.1998 0.73192 23.3119 0.87067 23.2955 1.02536C23.2791 1.17958 23.1403 1.29114 22.9856 1.2752C22.5858 1.23208 22.1845 1.3427 21.9389 1.56348C21.7589 1.7252 21.6675 1.93614 21.6675 2.1902C21.6675 2.34536 21.5414 2.47145 21.3862 2.47145C21.2311 2.47145 21.105 2.34536 21.105 2.1902C21.105 1.93614 21.0136 1.7252 20.8336 1.56348C20.588 1.3427 20.1867 1.23208 19.7869 1.2752C19.6327 1.29208 19.4939 1.18005 19.477 1.02536Z" fill="black"/>
</g>
<defs>
<clipPath id="clip0_268_2832">
<rect width="24" height="24" fill="white"/>
</clipPath>
</defs>
</svg>
