<svg width="24" height="24" viewBox="0 0 24 24" fill="none" xmlns="http://www.w3.org/2000/svg">
<path d="M3.63374 18.1351C3.60518 18.1752 3.56899 18.2094 3.52725 18.2355C3.4855 18.2617 3.43901 18.2793 3.39043 18.2875C3.34186 18.2957 3.29214 18.2942 3.24413 18.2832C3.19612 18.2722 3.15076 18.2518 3.11062 18.2232C3.07048 18.1947 3.03637 18.1585 3.01022 18.1167C2.98407 18.075 2.9664 18.0285 2.95821 17.9799C2.95003 17.9313 2.9515 17.8816 2.96253 17.8336C2.97355 17.7856 2.99393 17.7402 3.0225 17.7001C3.4575 17.0889 3.88875 16.8039 4.335 16.8226C4.62731 16.8521 4.89649 16.9948 5.085 17.2201C5.53874 17.6964 5.97375 17.5426 6.62625 17.1339C6.70929 17.0787 6.81086 17.0587 6.90862 17.0784C7.00637 17.0981 7.0923 17.1558 7.14749 17.2389C7.20269 17.3219 7.22264 17.4235 7.20295 17.5212C7.18326 17.619 7.12554 17.7049 7.0425 17.7601C6.14625 18.3939 5.19374 18.4501 4.57124 17.7601C4.42874 17.6251 4.36125 17.5689 4.28625 17.5689C4.21125 17.5689 4.00499 17.6251 3.63374 18.1351ZM7.91624 19.0839C7.88871 19.0429 7.85337 19.0078 7.81225 18.9806C7.77113 18.9534 7.72505 18.9345 7.67663 18.9251C7.62821 18.9157 7.57841 18.9159 7.53008 18.9258C7.48175 18.9357 7.43585 18.955 7.39499 18.9826C7.08662 19.2424 6.69156 19.3764 6.28875 19.3576C6.11959 19.3079 5.96848 19.2102 5.85374 19.0764C5.24999 18.3751 4.3875 18.6226 3.7725 19.5451C3.73246 19.6013 3.70872 19.6675 3.70389 19.7364C3.69906 19.8052 3.71333 19.8741 3.74513 19.9353C3.77692 19.9966 3.82501 20.0479 3.8841 20.0836C3.94318 20.1193 4.01097 20.138 4.08 20.1376C4.13949 20.1373 4.19806 20.1229 4.25088 20.0955C4.3037 20.0681 4.34924 20.0286 4.38374 19.9801C4.75874 19.4626 4.97249 19.4139 5.05499 19.4176C5.38874 19.5338 5.5875 19.9876 6.135 20.0776C6.43178 20.1142 6.73288 20.0912 7.02069 20.0101C7.3085 19.929 7.57726 19.7913 7.81124 19.6051C7.85247 19.5779 7.8879 19.5427 7.9155 19.5018C7.94311 19.4608 7.96234 19.4147 7.9721 19.3663C7.98186 19.3179 7.98195 19.268 7.97236 19.2195C7.96277 19.171 7.9437 19.1249 7.91624 19.0839ZM21.0412 9.9076C21.075 10.2531 20.9717 10.598 20.7535 10.8681C20.5354 11.1381 20.2199 11.3117 19.875 11.3514L16.8375 11.6439H16.8037C16.7319 11.6437 16.6616 11.6228 16.6012 11.5839L14.7262 10.3876V13.5751L16.92 15.9939C16.9622 16.0407 16.9918 16.0975 17.0062 16.1589L18.2025 21.2551C18.302 21.5848 18.2664 21.9405 18.1036 22.244C17.9408 22.5474 17.6641 22.7738 17.3344 22.8732C17.0047 22.9727 16.649 22.9371 16.3455 22.7743C16.0421 22.6115 15.8157 22.3348 15.7162 22.0051L14.3925 17.7001L13.3912 16.9951L12.5587 19.0014C12.5434 19.0396 12.5219 19.0751 12.495 19.1064L9.56624 22.4401C9.34214 22.68 9.03438 22.8245 8.70668 22.8437C8.37898 22.8629 8.05644 22.7553 7.80585 22.5433C7.55526 22.3313 7.39581 22.031 7.36051 21.7046C7.32522 21.3782 7.41678 21.0508 7.61624 20.7901L10.2037 17.6251L10.635 15.0639C10.4951 14.9573 10.3814 14.8201 10.3028 14.6628C10.2241 14.5055 10.1825 14.3322 10.1812 14.1564V10.6689L7.95749 14.4189C7.75511 14.7226 7.44517 14.9385 7.09005 15.0229C6.73493 15.1074 6.361 15.0542 6.04352 14.8741C5.72603 14.694 5.48856 14.4003 5.37891 14.0521C5.26925 13.7039 5.29554 13.3272 5.45249 12.9976L7.91624 8.1226C8.2696 7.42343 8.84268 6.85957 9.54749 6.5176C9.81999 6.3632 10.1078 6.23753 10.4062 6.1426H13.3575C13.5726 6.14944 13.7839 6.20137 13.9777 6.29504C14.1715 6.38871 14.3435 6.52202 14.4825 6.68635L17.55 8.8051L19.6125 8.6176C19.7927 8.6016 19.9742 8.62291 20.1458 8.68021C20.3174 8.7375 20.4753 8.82954 20.6097 8.95059C20.7441 9.07163 20.8522 9.21909 20.9271 9.38375C21.0019 9.54841 21.0421 9.72674 21.045 9.9076H21.0412ZM12.75 16.5489L11.3025 15.5326C11.2837 15.5551 10.9087 18.1164 10.8337 18.0076L8.18624 21.2663C8.09624 21.3743 8.05278 21.5135 8.06544 21.6535C8.0781 21.7934 8.14583 21.9226 8.25375 22.0126C8.36165 22.1026 8.5009 22.1461 8.64085 22.1334C8.7808 22.1207 8.90999 22.053 8.99999 21.9451L11.8875 18.6601L12.75 16.5489ZM14.0812 13.9764C14.0187 13.9076 13.984 13.818 13.9837 13.7251V7.5001C13.9837 7.33103 13.9166 7.16888 13.797 7.04932C13.6775 6.92977 13.5153 6.8626 13.3462 6.8626H10.5C9.74999 7.1926 8.95124 7.64635 8.595 8.4301L6.13125 13.3051C6.04793 13.4632 6.02921 13.6475 6.07903 13.8191C6.12884 13.9907 6.24331 14.1364 6.39833 14.2253C6.55335 14.3142 6.73683 14.3395 6.91014 14.2959C7.08345 14.2523 7.23307 14.1431 7.3275 13.9914L10.2412 9.11635C10.2832 9.0457 10.3471 8.99076 10.4233 8.96C10.4995 8.92923 10.5837 8.92434 10.6629 8.94606C10.7421 8.96779 10.812 9.01493 10.8619 9.08025C10.9117 9.14557 10.9387 9.22544 10.9387 9.3076V14.1414C10.9387 14.3439 11.1037 14.4751 11.2575 14.5689L14.9362 17.1601C15.0039 17.2076 15.054 17.2762 15.0787 17.3551L16.4475 21.7501C16.4689 21.8188 16.5037 21.8826 16.5497 21.9379C16.5958 21.9931 16.6523 22.0388 16.7161 22.0722C16.7798 22.1057 16.8495 22.1262 16.9211 22.1327C16.9928 22.1392 17.065 22.1315 17.1337 22.1101C17.2024 22.0887 17.2662 22.0539 17.3215 22.0079C17.3768 21.9618 17.4224 21.9053 17.4559 21.8415C17.4893 21.7778 17.5098 21.7081 17.5163 21.6365C17.5228 21.5648 17.5152 21.4925 17.4937 21.4239L16.3162 16.4289L14.0812 13.9764ZM20.295 9.91885C20.2975 9.83861 20.2829 9.75875 20.2521 9.68459C20.2214 9.61042 20.1752 9.54364 20.1167 9.48868C20.0582 9.43371 19.9887 9.39181 19.9127 9.36577C19.8368 9.33972 19.7562 9.33012 19.6762 9.3376L17.4787 9.53635C17.3913 9.54474 17.3037 9.52218 17.2312 9.4726L14.745 7.7551V9.49885L16.9125 10.8751L19.8187 10.5939C20.1112 10.5789 20.3062 10.2976 20.295 9.91885ZM10.7137 5.04385C8.62499 2.8351 11.7487 -0.284898 13.965 1.79635C16.0462 4.01635 12.93 7.1251 10.7137 5.05135V5.04385ZM11.25 4.51885C12.75 5.92885 14.85 3.8101 13.4437 2.32885C11.9512 0.918852 9.83624 3.0376 11.25 4.51885Z" fill="black"/>
</svg>
