<svg width="24" height="24" viewBox="0 0 24 24" fill="none" xmlns="http://www.w3.org/2000/svg">
<g clip-path="url(#clip0_266_2298)">
<path d="M12 0H6.8C6.69391 0 6.59217 0.0421427 6.51716 0.117157C6.44214 0.192172 6.4 0.293913 6.4 0.4V3.2H0.4C0.293913 3.2 0.192172 3.24214 0.117157 3.31716C0.0421427 3.39217 0 3.49391 0 3.6L0 23.6C0 23.7061 0.0421427 23.8078 0.117157 23.8828C0.192172 23.9579 0.293913 24 0.4 24H12C12.1061 24 12.2078 23.9579 12.2828 23.8828C12.3579 23.8078 12.4 23.7061 12.4 23.6V0.4C12.4 0.293913 12.3579 0.192172 12.2828 0.117157C12.2078 0.0421427 12.1061 0 12 0ZM11.6 20.8H7.2V20H11.6V20.8ZM0.8 6H6.4V18H0.8V6ZM11.6 4.4H7.2V3.2H11.6V4.4ZM0.8 18.8H6.4V20H0.8V18.8ZM7.2 19.2V5.2H11.6V19.2H7.2ZM11.6 0.8V2.4H7.2V0.8H11.6ZM6.4 4V5.2H0.8V4H6.4ZM0.8 20.8H6.4V23.2H0.8V20.8ZM7.2 23.2V21.6H11.6V23.2H7.2Z" fill="black"/>
<path d="M23.9871 21.8984L19.1871 3.49837C19.1738 3.44732 19.1506 3.3994 19.1187 3.35737C19.0869 3.31534 19.047 3.28003 19.0014 3.25349C18.9559 3.22695 18.9055 3.2097 18.8532 3.20272C18.8009 3.19575 18.7478 3.1992 18.6968 3.21287L12.6968 4.81287C12.5947 4.84007 12.5076 4.90656 12.4543 4.99783C12.4011 5.08911 12.3862 5.19773 12.4128 5.29997L17.2128 23.7C17.2261 23.751 17.2493 23.7989 17.2812 23.8409C17.3131 23.8829 17.353 23.9181 17.3986 23.9446C17.4441 23.9711 17.4945 23.9883 17.5468 23.9951C17.5991 24.002 17.6522 23.9985 17.7031 23.9847L23.7031 22.3847C23.805 22.3575 23.892 22.2911 23.9452 22.2C23.9984 22.1089 24.0134 22.0005 23.9871 21.8984ZM13.9248 7.92632L19.1519 6.53277L19.34 7.25267L14.1133 8.64837L13.9248 7.92632ZM19.542 8.02882L21.8619 16.9279L16.6367 18.322L14.3168 9.42242L19.542 8.02882ZM22.0656 17.7023L22.4752 19.272L17.248 20.6656L16.84 19.0964L22.0656 17.7023ZM18.5145 4.08917L18.95 5.75912L13.7228 7.15227L13.2877 5.48317L18.5145 4.08917ZM17.8856 23.1091L17.45 21.4392L22.6771 20.0452L23.1123 21.7144L17.8856 23.1091ZM5.19998 7.19917H1.99998C1.89389 7.19917 1.79215 7.24132 1.71713 7.31633C1.64212 7.39135 1.59998 7.49309 1.59998 7.59917V10.7992C1.59998 10.9053 1.64212 11.007 1.71713 11.082C1.79215 11.157 1.89389 11.1992 1.99998 11.1992H5.19998C5.30606 11.1992 5.4078 11.157 5.48282 11.082C5.55783 11.007 5.59998 10.9053 5.59998 10.7992V7.59917C5.59998 7.49309 5.55783 7.39135 5.48282 7.31633C5.4078 7.24132 5.30606 7.19917 5.19998 7.19917ZM4.79998 10.3992H2.39998V7.99917H4.79998V10.3992Z" fill="black"/>
</g>
<defs>
<clipPath id="clip0_266_2298">
<rect width="24" height="24" fill="white"/>
</clipPath>
</defs>
</svg>
