<svg width="24" height="24" viewBox="0 0 24 24" fill="none" xmlns="http://www.w3.org/2000/svg">
<path d="M15.045 12.7594C14.3674 12.6779 13.7144 12.4554 13.128 12.1062C12.9696 12.0125 12.8167 11.9099 12.6701 11.7987C12.6379 11.7743 12.6075 11.7469 12.576 11.7214C12.4604 11.6288 12.349 11.5309 12.2423 11.4282C12.2014 11.3892 12.1611 11.3496 12.1215 11.3093C12.0233 11.2081 11.9321 11.1019 11.8436 10.9936C11.8088 10.9508 11.7701 10.9099 11.7371 10.8664C11.634 10.7297 11.5383 10.5875 11.4506 10.4404C10.3133 8.53282 10.641 6.00082 12.2734 4.36882L12.4759 4.16632C12.6221 4.02007 12.6221 3.78007 12.4759 3.63382C12.4051 3.56382 12.3095 3.52472 12.21 3.52507C12.1163 3.52507 12.0225 3.56257 11.9475 3.63382L11.7536 3.8277C9.94763 5.6337 9.53475 8.39107 10.6613 10.5533L9.74775 12.1973L4.74638 17.1987C4.67596 17.1286 4.58063 17.0892 4.48125 17.0892C4.38188 17.0892 4.28655 17.1286 4.21613 17.1987L1.82963 19.5852C1.72481 19.6895 1.64171 19.8135 1.58513 19.9501C1.52855 20.0867 1.49962 20.2331 1.5 20.3809C1.5 20.6817 1.617 20.9644 1.82963 21.1763L2.35988 21.7069V21.7073C2.46435 21.8117 2.58838 21.8944 2.72486 21.9508C2.86134 22.0071 3.00759 22.036 3.15525 22.0358C3.44363 22.0358 3.73163 21.9263 3.95063 21.7069L6.33713 19.3204C6.37198 19.2857 6.39963 19.2443 6.4185 19.1988C6.43737 19.1533 6.44708 19.1046 6.44708 19.0553C6.44708 19.0061 6.43737 18.9573 6.4185 18.9118C6.39963 18.8663 6.37198 18.825 6.33713 18.7902L6.336 18.7891L7.54688 17.5782C7.61195 17.5071 7.64707 17.4136 7.64494 17.3173C7.6428 17.2209 7.60357 17.1291 7.53542 17.0609C7.46726 16.9928 7.37544 16.9535 7.27907 16.9514C7.18271 16.9493 7.08924 16.9844 7.01813 17.0494L5.80875 18.2588L5.46188 17.9142L5.277 17.7293L10.0496 12.9563L10.5784 13.4851L8.07525 15.9916C8.01018 16.0627 7.97506 16.1562 7.97719 16.2525C7.97933 16.3489 8.01856 16.4407 8.08671 16.5089C8.15487 16.577 8.2467 16.6163 8.34306 16.6184C8.43942 16.6205 8.5329 16.5854 8.604 16.5203L11.3336 13.7907L12.9754 12.8787C13.5929 13.2085 14.2668 13.4197 14.9621 13.5012C15.1811 13.5267 15.375 13.3632 15.375 13.1434V13.1191C15.375 12.9316 15.231 12.7816 15.045 12.7594ZM5.54175 19.0549L3.42038 21.1763C3.35001 21.2466 3.25461 21.286 3.15518 21.2859C3.05574 21.2859 2.9604 21.2463 2.89013 21.1759L2.35988 20.6453C2.32487 20.6107 2.29707 20.5695 2.2781 20.524C2.25913 20.4786 2.24936 20.4298 2.24936 20.3806C2.24936 20.3313 2.25913 20.2826 2.2781 20.2371C2.29707 20.1917 2.32487 20.1505 2.35988 20.1158L4.48125 17.9944L5.54175 19.0549ZM11.1754 13.0216L10.6245 12.4707L10.515 12.3608L11.112 11.2861L11.1386 11.3191C11.1499 11.3341 11.1626 11.3483 11.1743 11.3629C11.2654 11.4803 11.3621 11.5939 11.463 11.7046C11.4803 11.7233 11.4945 11.7439 11.5121 11.7627C11.5298 11.7814 11.5489 11.7972 11.5665 11.8159C11.5916 11.8422 11.6149 11.8699 11.6408 11.8958C11.6959 11.9509 11.754 12.0019 11.811 12.0544C11.8425 12.0837 11.8733 12.1141 11.9055 12.1426C12.0173 12.2408 12.1316 12.3357 12.2505 12.4242L11.1754 13.0216ZM13.3163 3.25507C13.3988 3.25507 13.4813 3.22882 13.5525 3.18007C14.4 2.56132 15.4088 2.25007 16.4138 2.25007C17.6625 2.25007 18.9113 2.72632 19.86 3.67507C20.3134 4.1269 20.6728 4.66409 20.9174 5.2556C21.1619 5.84712 21.2869 6.48124 21.285 7.12132C21.285 8.42632 20.7788 9.64882 19.86 10.5713L19.065 11.3663C18.3505 12.0799 17.4319 12.5537 16.4363 12.7223C16.2589 12.7523 16.125 12.8993 16.125 13.0793V13.1082C16.1254 13.1613 16.1374 13.2136 16.1602 13.2616C16.183 13.3096 16.2159 13.352 16.2568 13.3859C16.2976 13.4198 16.3454 13.4443 16.3967 13.4578C16.4481 13.4713 16.5018 13.4735 16.554 13.4641C17.7068 13.273 18.7703 12.7241 19.5938 11.8951L20.3925 11.1001C21.7763 9.71632 22.3425 7.73632 21.8738 5.74132C21.7575 5.24632 21.5663 4.76632 21.3075 4.33132C19.5075 1.28632 15.6863 0.697572 13.1063 2.57257C12.9188 2.71132 12.8888 2.98132 13.0575 3.15007C13.1288 3.22132 13.2225 3.25507 13.3163 3.25507ZM12.4253 5.3067L12.4234 5.3082C11.9463 5.89103 11.6394 6.59423 11.5365 7.34032L11.5369 7.34257C11.4595 7.89157 11.4925 8.4505 11.634 8.98657C11.8215 9.68601 12.1898 10.3238 12.702 10.8357C13.2141 11.3476 13.852 11.7157 14.5515 11.9029C14.8969 11.9944 15.2569 12.0406 15.6158 12.0406C15.7935 12.0406 15.9701 12.0256 16.1449 12.0027H16.1456C16.1625 12.0027 16.1794 12.0016 16.1963 11.9993C16.9424 11.8965 17.6457 11.5894 18.2284 11.1121L18.2295 11.1106L18.231 11.1098C18.3353 11.0236 18.4361 10.9336 18.5351 10.8349L19.3305 10.0396C19.4288 9.9417 19.518 9.84082 19.6046 9.73695L19.6061 9.73432L19.608 9.73282C20.0836 9.15152 20.39 8.45056 20.4938 7.7067L20.4945 7.7037V7.70032C20.5718 7.1508 20.5386 6.59138 20.397 6.05482C20.2095 5.35534 19.8412 4.71753 19.3291 4.20553C18.8169 3.69353 18.179 3.32537 17.4795 3.13807C16.9438 2.9975 16.3855 2.96486 15.837 3.04207L15.8348 3.0417C15.0886 3.14456 14.3853 3.45161 13.8026 3.92895L13.8015 3.93045L13.8 3.9312C13.6958 4.01782 13.5938 4.10782 13.4959 4.20607L12.7005 5.00145C12.6019 5.0997 12.5119 5.20057 12.4256 5.3052C12.426 5.30557 12.4256 5.30595 12.4253 5.3067ZM12.981 10.0246C12.7354 9.71673 12.5454 9.36837 12.4196 8.9952L12.7013 8.71357L13.4966 9.50895L12.981 10.0246ZM17.4743 8.18332L16.6789 8.9787L15.8835 8.18332L16.2814 7.78545L16.6793 7.38757L17.0771 7.78545L17.4743 8.18332ZM17.2091 6.85732L18.0045 6.06195L18.4024 6.45982L18.8003 6.8577L18.0045 7.65345L17.6066 7.25557L17.2091 6.85732ZM15.7508 7.2552L15.3529 7.65307L14.5571 6.85732L14.955 6.45945L15.3529 6.06157L16.1483 6.85695L15.7508 7.2552ZM14.8226 8.18332L14.4248 8.5812L14.0269 8.97907L13.2315 8.1837L13.6294 7.78582L14.0273 7.38795L14.8226 8.18332ZM14.5406 11.1166C14.1675 10.991 13.8192 10.801 13.5116 10.5552L14.0269 10.0396L14.4248 10.4374L14.8226 10.8353L14.5406 11.1166ZM15.3529 10.3047L14.955 9.90682L14.5571 9.50895L14.955 9.11107L15.3529 8.7132L16.1483 9.50857L15.3529 10.3047ZM16.275 11.2268L15.8831 10.8349L16.6785 10.0396L17.4143 10.7753C17.0657 10.995 16.6794 11.1481 16.275 11.2268ZM18.0049 10.3047L17.2091 9.50932L18.0045 8.71395L18.4125 9.12195L18.8003 9.5097L18.0049 10.3047ZM19.2709 8.91907L18.873 8.52157L18.5348 8.18332L19.3305 7.38757L19.7224 7.77945C19.6436 8.18395 19.4905 8.57035 19.2709 8.91907ZM18.7856 5.28082L19.0504 5.01607C19.296 5.32387 19.486 5.67224 19.6118 6.04545L19.3301 6.32707L18.9323 5.9292L18.5344 5.53132L18.7856 5.28082ZM17.4908 3.92407C17.864 4.04986 18.2124 4.23998 18.5201 4.48582L18.0045 5.00145L17.6066 4.60357L17.2088 4.2057L17.4908 3.92407ZM16.281 5.13382L16.6789 4.73595L17.0768 5.13382L17.4746 5.5317L16.6793 6.32707L15.8839 5.5317L16.281 5.13382ZM15.7568 3.8142L15.8895 3.94695L16.1486 4.2057L15.7511 4.60357L15.3533 5.00145L14.6175 4.2657C14.9659 4.04574 15.3523 3.89263 15.7568 3.8142ZM14.0269 4.73632L14.8226 5.5317L14.4248 5.92957L14.0269 6.32745L13.2315 5.53207L14.0269 4.73632ZM12.7609 6.12157L13.4966 6.85732L13.0988 7.2552L12.7009 7.65307L12.309 7.2612C12.3881 6.85671 12.5413 6.47033 12.7609 6.12157ZM22.4666 18.6987L22.4663 18.6979L22.4119 18.4819C22.3204 18.1156 22.0583 17.8366 21.7091 17.7079C21.8719 17.3022 21.7898 16.8207 21.4613 16.4922C21.1328 16.1637 20.6513 16.0816 20.2455 16.2443C20.1169 15.8952 19.8379 15.6334 19.4715 15.5416L19.2555 15.4876C18.9998 15.4234 18.7296 15.4513 18.4923 15.5663C18.2551 15.6812 18.0658 15.876 17.9576 16.1164L16.3871 18.9158L15.8936 19.4097C15.7538 19.5486 15.643 19.7138 15.5675 19.8959C15.4921 20.0779 15.4536 20.2731 15.4541 20.4702C15.4541 20.8707 15.6101 21.2472 15.8936 21.5307L16.4239 22.0609C16.5629 22.2006 16.7282 22.3113 16.9102 22.3867C17.0922 22.462 17.2874 22.5006 17.4844 22.5001C17.6814 22.5006 17.8766 22.4621 18.0587 22.3867C18.2407 22.3112 18.406 22.2004 18.5449 22.0606L19.0388 21.5671L21.8381 19.9966C22.0788 19.8887 22.2738 19.6994 22.3887 19.4621C22.5036 19.2247 22.5312 18.9544 22.4666 18.6987ZM18.6203 16.4674C18.6269 16.4558 18.6328 16.4438 18.6379 16.4314C18.6731 16.3496 18.7363 16.2829 18.8161 16.2433C18.8959 16.2037 18.9871 16.1937 19.0736 16.2151L19.29 16.2694H19.2904C19.4816 16.3174 19.5431 16.4701 19.5608 16.5334C19.5784 16.5968 19.6039 16.7592 19.4644 16.8987L17.2193 19.1442L17.1548 19.0797L18.6203 16.4674ZM18.0146 21.5303C17.7311 21.8138 17.2376 21.8138 16.9541 21.5303L16.4239 21.0001C16.2821 20.8583 16.2041 20.6701 16.2041 20.4698C16.2041 20.2696 16.2821 20.0813 16.4239 19.9396L16.689 19.6741L16.9541 19.9396L18.0146 21.0001L18.2801 21.2652L18.0146 21.5303ZM18.2801 20.2043L17.7499 19.6741L20.4015 17.0224C20.4718 16.9521 20.5672 16.9126 20.6666 16.9126C20.7661 16.9126 20.8614 16.9521 20.9318 17.0224C21.0021 17.0928 21.0416 17.1881 21.0416 17.2876C21.0416 17.387 21.0021 17.4824 20.9318 17.5527L18.2801 20.2043ZM21.5228 19.3163C21.5104 19.3215 21.4984 19.3274 21.4868 19.3339L18.8749 20.7994L18.8104 20.7349L21.0559 18.4898C21.1023 18.4421 21.1608 18.4079 21.2251 18.3909C21.2895 18.374 21.3572 18.3748 21.4211 18.3934C21.4855 18.4105 21.544 18.4447 21.5905 18.4924C21.637 18.5401 21.6697 18.5994 21.6851 18.6642L21.7391 18.8802C21.7609 18.9667 21.751 19.0582 21.7113 19.1381C21.6717 19.2181 21.6048 19.2813 21.5228 19.3163Z" fill="black"/>
</svg>
