<svg width="24" height="24" viewBox="0 0 24 24" fill="none" xmlns="http://www.w3.org/2000/svg">
<path d="M12 23C5.935 23 1 18.065 1 12C1 5.935 5.935 1 12 1C18.065 1 23 5.935 23 12C23 18.065 18.065 23 12 23ZM12 2C6.485 2 2 6.485 2 12C2 17.515 6.485 22 12 22C17.515 22 22 17.515 22 12C22 6.485 17.515 2 12 2Z" fill="black"/>
<path d="M11.4997 22.9995C11.4747 22.9995 11.4497 22.9995 11.4197 22.9945C11.1447 22.9495 10.9597 22.6945 11.0047 22.4245C12.0397 15.8845 15.8797 12.0395 22.4197 11.0095C22.6897 10.9695 22.9497 11.1545 22.9897 11.4245C23.0347 11.6995 22.8447 11.9545 22.5747 11.9945C16.4247 12.9645 12.9597 16.4295 11.9897 22.5795C11.9547 22.8245 11.7397 22.9995 11.4997 22.9995ZM1.49965 12.9995C1.25965 12.9995 1.04465 12.8245 1.00465 12.5795C0.959653 12.3045 1.14965 12.0495 1.41965 12.0095C7.56965 11.0395 11.0347 7.57446 12.0047 1.42446C12.0497 1.14946 12.3047 0.969459 12.5747 1.00946C12.8497 1.05446 13.0347 1.30946 12.9897 1.57946C11.9547 8.11946 8.11465 11.9645 1.57465 12.9945C1.54965 12.9995 1.52465 12.9995 1.49965 12.9995ZM4.57465 19.9245C4.44465 19.9245 4.31965 19.8745 4.21965 19.7795C4.02465 19.5845 4.02465 19.2695 4.21965 19.0745L19.0697 4.22446C19.2647 4.02946 19.5797 4.02946 19.7747 4.22446C19.9697 4.41946 19.9697 4.73446 19.7747 4.92946L4.92465 19.7795C4.82965 19.8745 4.70465 19.9245 4.57465 19.9245Z" fill="black"/>
<path d="M19.4255 19.9244C19.2955 19.9244 19.1705 19.8744 19.0705 19.7794L4.22047 4.92937C4.02547 4.73437 4.02547 4.41938 4.22047 4.22437C4.41547 4.02938 4.73047 4.02938 4.92547 4.22437L19.7755 19.0744C19.9705 19.2694 19.9705 19.5844 19.7755 19.7794C19.6805 19.8744 19.5505 19.9244 19.4255 19.9244Z" fill="black"/>
</svg>
