<svg width="24" height="24" viewBox="0 0 24 24" fill="none" xmlns="http://www.w3.org/2000/svg">
<g clip-path="url(#clip0_266_2558)">
<path d="M22.7009 23.2256C23.492 22.5866 23.9999 21.6099 23.9999 20.516C23.9999 18.7257 22.6424 17.2481 20.9032 17.055C20.9032 13.3049 17.0323 13.9354 17.0323 13.9354H15.871V14.7095H16.8929L16.6509 15.4837H9.97125L10.3789 13.5482H11.6129V12.774H9.75026L8.8503 17.0491C8.74039 17.0386 8.62923 17.0321 8.51626 17.0321C6.72634 17.0321 5.24839 18.3897 5.05524 20.1289H3.4839V17.8063C3.4839 17.0867 2.98842 16.4859 2.32257 16.3129V7.74191H6.58066C7.22091 7.74191 7.74199 7.22091 7.74199 6.58058V1.16124C7.74191 0.520999 7.22091 0 6.58066 0H1.16133C0.520999 0 0 0.520999 0 1.16124V6.58058C0 7.22083 0.520999 7.74183 1.16133 7.74183H1.54846V16.3129C0.882619 16.4859 0.387137 17.0867 0.387137 17.8063V23.2256H0V23.9998H0.387137H3.4839H24V23.2256H22.7009ZM1.16133 6.96772C0.948022 6.96764 0.774191 6.79422 0.774191 6.58058V1.16124C0.774191 0.947527 0.948022 0.774108 1.16133 0.774108H6.58066C6.79397 0.774108 6.9678 0.947527 6.9678 1.16124V6.58058C6.9678 6.7943 6.79397 6.96772 6.58066 6.96772H1.16133ZM2.70971 23.2256H1.16133V18.9676H2.70971V23.2256ZM2.70971 18.1934H1.16133V17.8063C1.16133 17.3794 1.5085 17.0321 1.93552 17.0321C2.36246 17.0321 2.70971 17.3794 2.70971 17.8063V18.1934ZM18.5984 18.6038L19.7419 20.129H17.8374C17.9225 19.5382 18.1958 19.0074 18.5984 18.6038ZM17.1077 16.6167L18.1319 17.9825C17.5451 18.5348 17.1487 19.2858 17.055 20.1289H16.0103L17.1077 16.6167ZM16.409 16.258L15.2779 19.8778L10.4515 16.258H16.409ZM3.4839 23.2256V20.9031H5.05516C5.15929 21.8387 5.63504 22.6632 6.33144 23.2256H3.4839ZM5.83744 20.9032H5.89475C6.37628 20.9032 6.81296 21.2059 6.98209 21.6569L7.49499 23.0241C6.62088 22.6671 5.97601 21.8662 5.83744 20.9032ZM8.51593 23.2256C8.47489 23.2256 8.43542 23.2213 8.39479 23.2194L7.70656 21.385C7.42513 20.6337 6.69702 20.1289 5.89459 20.1289H5.83728C6.0263 18.8182 7.15394 17.8063 8.5161 17.8063C8.57457 17.8063 8.63146 17.8113 8.68911 17.8152L8.13747 20.4362L8.89498 20.5957L9.44695 17.9743C10.4828 18.3552 11.2256 19.3492 11.2256 20.5159C11.2256 22.0097 10.0101 23.2256 8.51593 23.2256ZM10.7009 23.2256C11.492 22.5865 11.9999 21.6098 11.9999 20.5159C11.9999 18.9765 10.995 17.6692 9.60765 17.2097L9.71987 16.6767L15.3548 20.903H17.0549C17.159 21.8386 17.6348 22.6631 18.3312 23.2256H10.7009ZM20.516 23.2257C19.1539 23.2257 18.0262 22.2139 17.8374 20.9032H20.9032V20.129H20.7096L19.2174 18.1389C19.6029 17.9272 20.0457 17.8064 20.5161 17.8064C22.0102 17.8063 23.2257 19.0221 23.2257 20.516C23.2257 22.0098 22.0102 23.2257 20.516 23.2257Z" fill="black"/>
<path d="M4.25812 1.54883H1.93555V6.19397H2.70974V4.64559H4.25812C5.11208 4.64559 5.8065 3.95117 5.8065 3.09721C5.8065 2.24325 5.112 1.54883 4.25812 1.54883ZM4.25812 3.8714H2.70974V2.32302H4.25812C4.68506 2.32302 5.03231 2.67027 5.03231 3.09721C5.03231 3.52415 4.68506 3.8714 4.25812 3.8714Z" fill="black"/>
</g>
<defs>
<clipPath id="clip0_266_2558">
<rect width="24" height="24" fill="white"/>
</clipPath>
</defs>
</svg>
