<svg width="24" height="24" viewBox="0 0 24 24" fill="none" xmlns="http://www.w3.org/2000/svg">
<path d="M6.10705 10.5733C6.16367 10.6888 7.5088 13.3311 10.9044 13.3311C10.9877 13.3311 11.0732 13.3292 11.159 13.3258C11.208 13.324 11.2561 13.3125 11.3006 13.2921C11.3451 13.2717 11.3851 13.2427 11.4184 13.2068C11.4517 13.1709 11.4776 13.1288 11.4946 13.0829C11.5116 13.037 11.5194 12.9881 11.5175 12.9392C11.5097 12.7333 11.3432 12.5676 11.1305 12.5811C8.0413 12.7003 6.82592 10.3435 6.7753 10.2422C6.73144 10.1536 6.65417 10.086 6.5605 10.0544C6.46682 10.0227 6.36441 10.0296 6.2758 10.0735C6.18718 10.1173 6.11962 10.1946 6.08797 10.2883C6.05632 10.3819 6.06319 10.4844 6.10705 10.573V10.5733ZM7.76455 4.22572L7.68955 4.33109C7.63683 4.41178 7.61739 4.50974 7.63528 4.60445C7.65318 4.69916 7.70703 4.78327 7.78556 4.83916C7.86409 4.89505 7.96119 4.91838 8.05654 4.90427C8.15188 4.89016 8.23807 4.8397 8.29705 4.76347L8.37205 4.65772C8.59879 4.33936 8.7119 3.95401 8.6932 3.56361C8.67449 3.17321 8.52506 2.80044 8.26892 2.50522C8.17664 2.3996 8.10786 2.27557 8.06713 2.14136C8.0264 2.00715 8.01466 1.86581 8.03267 1.72672C8.0683 1.44172 8.21755 1.19422 8.45192 1.03072L8.47555 1.01422L8.2633 0.707469L8.0263 0.417969C7.82586 0.558101 7.65702 0.738694 7.53068 0.948098C7.40435 1.1575 7.32331 1.39106 7.2928 1.63372C7.26266 1.87647 7.28377 2.12284 7.35475 2.35692C7.42574 2.591 7.54503 2.8076 7.70492 2.99272C8.00717 3.34184 8.03117 3.84922 7.76417 4.22609L7.76455 4.22572ZM10.7773 4.22609L10.7027 4.33147C10.6454 4.41208 10.6226 4.51212 10.6391 4.60959C10.6556 4.70707 10.7102 4.79398 10.7908 4.85122C10.8714 4.90846 10.9715 4.93133 11.0689 4.9148C11.1664 4.89827 11.2533 4.8437 11.3105 4.76309L11.3852 4.65809C11.6121 4.33973 11.7253 3.95429 11.7066 3.56379C11.6879 3.17329 11.5383 2.80044 11.282 2.50522C11.1898 2.39962 11.121 2.27558 11.0803 2.14136C11.0396 2.00713 11.028 1.86579 11.0462 1.72672C11.0818 1.44172 11.231 1.19422 11.4665 1.03034L11.4902 1.01384L11.2768 0.707844L11.0398 0.418344C10.8394 0.558493 10.6706 0.73909 10.5442 0.948491C10.4179 1.15789 10.3368 1.39145 10.3063 1.63409C10.2762 1.87684 10.2973 2.12321 10.3683 2.35729C10.4392 2.59138 10.5585 2.80797 10.7184 2.99309C11.0207 3.34222 11.0447 3.84959 10.7773 4.22684V4.22609ZM13.7904 4.22572L13.7154 4.33109C13.6627 4.41178 13.6433 4.50974 13.6612 4.60445C13.6791 4.69916 13.7329 4.78327 13.8114 4.83916C13.89 4.89505 13.9871 4.91838 14.0824 4.90427C14.1778 4.89016 14.2639 4.8397 14.3229 4.76347L14.3979 4.65772C14.6247 4.33936 14.7378 3.95401 14.7191 3.56361C14.7004 3.17321 14.5509 2.80044 14.2948 2.50522C14.2025 2.3996 14.1337 2.27557 14.093 2.14136C14.0523 2.00715 14.0405 1.86581 14.0585 1.72672C14.0942 1.44172 14.2434 1.19422 14.4789 1.03034L14.5025 1.01384L14.2892 0.707844L14.0522 0.418344C13.8517 0.558476 13.6829 0.739069 13.5566 0.948473C13.4302 1.15788 13.3492 1.39144 13.3187 1.63409C13.2885 1.87684 13.3096 2.12321 13.3806 2.35729C13.4516 2.59138 13.5709 2.80797 13.7308 2.99309C14.033 3.34222 14.057 3.84959 13.79 4.22647L13.7904 4.22572Z" fill="black"/>
<path d="M20.1688 7.13506H18.4513C18.508 6.99631 18.5406 6.84519 18.5406 6.68656C18.5403 6.36989 18.4144 6.06627 18.1904 5.84234C17.9665 5.61842 17.6629 5.49249 17.3462 5.49219H4.65321C4.39844 5.49198 4.15028 5.57332 3.94506 5.72432C3.73985 5.87531 3.58835 6.08802 3.51274 6.33132C3.43713 6.57462 3.44138 6.83574 3.52487 7.07645C3.60835 7.31716 3.76669 7.52483 3.97671 7.66906C3.99884 10.8809 6.18771 13.5809 9.15134 14.3909L7.47396 18.3292L7.47284 18.3318L5.42159 23.1476C5.38331 23.2384 5.3826 23.3408 5.4196 23.4322C5.45661 23.5236 5.52832 23.5966 5.61904 23.6352C5.70976 23.6738 5.81209 23.675 5.90363 23.6383C5.99518 23.6017 6.06847 23.5303 6.10746 23.4397L8.06309 18.8486H13.5726L14.1148 20.4142C13.8764 20.5628 13.6797 20.7695 13.5431 21.0149C13.4064 21.2604 13.3344 21.5365 13.3337 21.8174C13.3337 22.7336 14.0792 23.4791 14.9953 23.4791C15.9115 23.4791 16.657 22.7336 16.657 21.8174C16.657 20.9013 15.9115 20.1558 14.9953 20.1558C14.9353 20.1558 14.8787 20.1674 14.8206 20.1734L14.2378 18.4908C14.2378 18.4852 14.2408 18.4807 14.2408 18.4751C14.2395 18.3884 14.2076 18.305 14.1508 18.2396L12.82 14.3973C15.7318 13.6143 17.8967 11.0077 18.0118 7.87981H19.7961V9.01906C19.7961 9.11792 19.8354 9.21273 19.9053 9.28264C19.9752 9.35254 20.07 9.39181 20.1688 9.39181C20.2677 9.39181 20.3625 9.35254 20.4324 9.28264C20.5023 9.21273 20.5416 9.11792 20.5416 9.01906V7.50706C20.5416 7.4581 20.532 7.40961 20.5133 7.36436C20.4946 7.31911 20.4671 7.278 20.4325 7.24338C20.3979 7.20876 20.3568 7.1813 20.3115 7.16259C20.2663 7.14387 20.2178 7.13426 20.1688 7.13431V7.13506ZM15.9111 21.8178C15.9111 22.3229 15.5001 22.7336 14.995 22.7336C14.4898 22.7336 14.0792 22.3229 14.0792 21.8178C14.0792 21.4728 14.2731 21.1758 14.5551 21.0194C14.5675 21.0206 14.5787 21.0251 14.5911 21.0251C14.6326 21.0251 14.6737 21.0183 14.713 21.0048C14.7647 20.986 14.8116 20.9559 14.8502 20.9167C14.8975 20.9092 14.9451 20.9021 14.9946 20.9021C15.2374 20.9023 15.4703 20.9988 15.642 21.1705C15.8138 21.3422 15.9108 21.575 15.9111 21.8178ZM4.65321 6.23806H17.3462C17.5937 6.23806 17.7951 6.43944 17.7951 6.68656C17.7951 6.93369 17.5937 7.13506 17.3462 7.13506H4.65321C4.40571 7.13506 4.20434 6.93369 4.20434 6.68656C4.20434 6.43944 4.40571 6.23806 4.65321 6.23806ZM13.3142 18.1031H8.38071L9.89384 14.5503C10.255 14.6077 10.6225 14.6459 10.9997 14.6459C11.3695 14.6459 11.7302 14.6088 12.0846 14.5533L13.3142 18.1027V18.1031ZM10.9997 13.9004C7.62434 13.9004 4.86209 11.2233 4.72521 7.88094H17.2742C17.1373 11.2237 14.3755 13.9004 10.9997 13.9004Z" fill="black"/>
</svg>
