<svg width="24" height="24" viewBox="0 0 24 24" fill="none" xmlns="http://www.w3.org/2000/svg">
<g clip-path="url(#clip0_266_2230)">
<path d="M23.75 0H5.07502C4.92502 0 4.82502 0.1 4.82502 0.25V22.225H3.90002C3.75002 22.225 3.65002 22.325 3.65002 22.475V23.75C3.65002 23.9 3.75002 24 3.90002 24H23.75C23.9 24 24 23.9 24 23.75V0.25C24 0.1 23.9 0 23.75 0ZM5.32502 3.65C5.32502 3.325 5.57502 3.075 5.90002 3.075H15.775C16.1 3.075 16.35 3.325 16.35 3.65V20.925H5.32502V3.65ZM16.35 2.75C16.175 2.65 15.975 2.575 15.775 2.575H14.4V0.5H16.35V2.75ZM13.9 2.575H11.95V0.5H13.9V2.575ZM11.45 2.575H9.50002V0.5H11.45V2.575ZM9.00002 2.575H7.05002V0.5H9.00002V2.575ZM16.85 0.5H18.8V23.5H16.85V0.5ZM19.325 0.5H21.275V23.5H19.325V0.5ZM5.32502 0.5H6.52502V2.575C5.92502 2.575 5.65002 2.525 5.32502 2.75V0.5ZM5.32502 21.425H16.35V22.225H5.32502V21.425ZM4.15002 23.5V22.725H16.35V23.5H4.15002ZM23.5 23.5H21.775V0.5H23.5V23.5Z" fill="black"/>
<path d="M15.375 20.1004C15.525 20.1004 15.625 20.0004 15.625 19.8504V4.15039C15.625 4.00039 15.525 3.90039 15.375 3.90039H6.5C6.35 3.90039 6.25 4.00039 6.25 4.15039V19.8504C6.25 20.0004 6.35 20.1004 6.5 20.1004H15.375ZM6.75 19.6004V12.8504H15.125V19.6004H6.75ZM15.125 12.3504H6.75V11.6504H15.125V12.3504ZM6.75 4.40039H15.125V11.1504H6.75V4.40039Z" fill="black"/>
<path d="M14.0001 13.576C13.5751 13.576 13.2501 13.901 13.2501 14.326V14.726C13.2501 15.376 14.0251 15.726 14.5001 15.301C14.8001 15.026 14.7501 14.726 14.7501 14.351C14.7501 13.926 14.4251 13.576 14.0001 13.576ZM14.2501 14.726C14.2501 14.876 14.1501 14.976 14.0001 14.976C13.8501 14.976 13.7501 14.876 13.7501 14.726V14.326C13.7501 14.176 13.8501 14.076 14.0001 14.076C14.1501 14.076 14.2501 14.176 14.2501 14.326V14.726ZM9.40005 7.97596C9.55005 7.97596 9.47505 8.00096 11.0251 6.45096C11.1251 6.35096 11.1251 6.20096 11.0251 6.10096C10.9251 6.00096 10.7751 6.00096 10.6751 6.10096L9.22505 7.55096C9.05005 7.70096 9.17505 7.97596 9.40005 7.97596ZM9.57505 8.82596C9.47505 8.92596 9.45005 9.07596 9.55005 9.17596C9.65005 9.30096 9.82505 9.30096 9.92505 9.17596L12.3001 6.80096C12.4001 6.70096 12.3751 6.52596 12.2751 6.45096C12.1751 6.37596 12.0501 6.37596 11.9501 6.45096L9.57505 8.82596ZM10.8751 9.20096C10.7251 9.35096 10.8251 9.62596 11.0501 9.62596C11.2001 9.62596 11.1001 9.67596 12.6751 8.10096C12.7751 8.00096 12.7751 7.85096 12.6751 7.75096C12.6251 7.70096 12.4501 7.60096 12.3251 7.75096L10.8751 9.20096ZM9.57505 16.226L11.0001 14.801C11.1001 14.701 11.1001 14.551 11.0001 14.451C10.9001 14.351 10.7501 14.351 10.6501 14.451L9.20005 15.901C9.10005 16.001 9.10005 16.151 9.20005 16.251C9.32505 16.351 9.50005 16.351 9.57505 16.226ZM12.3001 15.176C12.4001 15.076 12.4001 14.926 12.3001 14.826C12.2001 14.726 12.0501 14.726 11.9501 14.826L9.57505 17.176C9.47505 17.251 9.45005 17.426 9.55005 17.526C9.65005 17.651 9.82505 17.651 9.92505 17.551L12.3001 15.176ZM12.3001 16.101L10.8501 17.551C10.7501 17.651 10.7501 17.801 10.8501 17.901C10.9501 18.001 11.1001 18.001 11.2001 17.901L12.6501 16.451C12.7501 16.351 12.7501 16.201 12.6501 16.101C12.5501 16.001 12.4001 16.001 12.3001 16.101ZM3.70005 16.676V4.80096C3.67505 4.05096 3.02505 3.45096 2.27505 3.50096C1.57505 3.52596 1.00005 4.10096 0.975052 4.80096V16.676C-0.0749476 17.426 -0.299948 18.901 0.450052 19.926C1.20005 20.976 2.67505 21.201 3.70005 20.451C4.97505 19.526 5.00005 17.601 3.70005 16.676ZM3.55005 19.926C2.77505 20.576 1.62505 20.476 0.975052 19.701C0.325052 18.926 0.425052 17.776 1.20005 17.126C1.35005 17.001 1.47505 16.976 1.47505 16.801V4.80096C1.50005 4.32596 1.90005 3.95096 2.40005 3.97596C2.85005 4.00096 3.20005 4.35096 3.22505 4.80096V16.801C3.22505 16.876 3.27505 16.976 3.35005 17.001C4.35005 17.651 4.47505 19.126 3.55005 19.926Z" fill="black"/>
<path d="M2.5751 15.2508H2.8751C3.0251 15.2508 3.1251 15.1508 3.1251 15.0008C3.1251 14.8508 3.0251 14.7508 2.8751 14.7508H2.5751V12.8508H2.8751C3.0251 12.8508 3.1251 12.7508 3.1251 12.6008C3.1251 12.4508 3.0251 12.3508 2.8751 12.3508H2.5751V10.4508H2.8751C3.0251 10.4508 3.1251 10.3508 3.1251 10.2008C3.1251 10.0508 3.0251 9.95078 2.8751 9.95078H2.5751V8.05078H2.8751C3.0251 8.05078 3.1251 7.95078 3.1251 7.80078C3.1251 7.65078 3.0251 7.55078 2.8751 7.55078H2.5751V5.05078C2.5751 4.90078 2.4751 4.80078 2.3251 4.80078C2.1751 4.80078 2.0751 4.90078 2.0751 5.05078V7.55078H1.8001C1.6501 7.55078 1.5501 7.65078 1.5501 7.80078C1.5501 7.95078 1.6501 8.05078 1.8001 8.05078H2.1001V9.95078H1.8001C1.6501 9.95078 1.5501 10.0508 1.5501 10.2008C1.5501 10.3508 1.6501 10.4508 1.8001 10.4508H2.1001V12.3508H1.8001C1.6501 12.3508 1.5501 12.4508 1.5501 12.6008C1.5501 12.7508 1.6501 12.8508 1.8001 12.8508H2.1001V14.7508H1.8001C1.6501 14.7508 1.5501 14.8508 1.5501 15.0008C1.5501 15.1508 1.6501 15.2508 1.8001 15.2508H2.1001V17.3508C1.4251 17.5008 0.975095 18.1508 1.1251 18.8258C1.2751 19.5008 1.9251 19.9508 2.6001 19.8008C3.2751 19.6508 3.7251 19.0008 3.5751 18.3258C3.4751 17.8258 3.1001 17.4508 2.6001 17.3508C2.5751 17.3758 2.5751 17.1508 2.5751 15.2508ZM2.3251 19.3258C1.9001 19.3258 1.5751 19.0008 1.5751 18.5758C1.5751 18.1508 1.9001 17.8258 2.3251 17.8258C2.7501 17.8258 3.0751 18.1508 3.0751 18.5758C3.0751 19.0008 2.7501 19.3258 2.3251 19.3258Z" fill="black"/>
</g>
<defs>
<clipPath id="clip0_266_2230">
<rect width="24" height="24" fill="white"/>
</clipPath>
</defs>
</svg>
