<svg width="24" height="24" viewBox="0 0 24 24" fill="none" xmlns="http://www.w3.org/2000/svg">
<g clip-path="url(#clip0_266_2447)">
<path d="M23.9617 11.247C23.8873 11.0179 23.7149 10.8393 23.4886 10.7569L6.64478 4.6263C6.34923 4.51877 6.02945 4.53269 5.7444 4.66563C5.45935 4.79857 5.24317 5.03454 5.13559 5.33004L4.45013 7.21334C4.30374 7.61572 4.51192 8.06225 4.91434 8.20869L4.93782 8.21726L4.24379 10.124C4.13621 10.4196 4.15018 10.7393 4.28312 11.0244C4.41606 11.3094 4.65198 11.5256 4.94753 11.6332L10.0207 13.4797V15.2225C9.96611 15.2598 9.91535 15.3034 9.87115 15.3543C9.83533 15.3957 9.80444 15.4403 9.77847 15.4874H2.35486V15.0615C2.35486 14.4122 1.82668 13.884 1.17741 13.884H0.375798C0.168235 13.8841 0 14.0524 0 14.2599V19.0698C0 19.2773 0.168235 19.4456 0.375798 19.4456H1.17746C1.82672 19.4456 2.35491 18.9174 2.35491 18.2682V17.8423H9.97624C10.1354 18.3113 10.5826 18.6439 11.0919 18.6439H12.1063C12.6885 18.6439 13.1896 18.2093 13.2719 17.633L13.509 15.973C13.5409 15.75 13.4745 15.5245 13.3269 15.3543C13.2827 15.3033 13.2319 15.2597 13.1773 15.2225V14.6287L18.5072 16.5686C18.6387 16.6165 18.7748 16.6403 18.9107 16.6403C19.0803 16.6403 19.2493 16.6032 19.4076 16.5293C19.6926 16.3964 19.9088 16.1605 20.0164 15.8649L20.162 15.4648L20.6448 15.6405C20.7322 15.6723 20.8221 15.6876 20.9109 15.6876C21.1632 15.6876 21.4062 15.5642 21.554 15.3454L23.8665 11.9216C24.0013 11.7219 24.036 11.476 23.9617 11.247ZM1.60332 18.2682C1.60332 18.503 1.41225 18.6941 1.17741 18.6941H0.751548V14.6357H1.17741C1.41225 14.6357 1.60332 14.8267 1.60332 15.0616V18.2682ZM2.35486 17.0908V16.239H9.72705L9.84869 17.0908H2.35486ZM12.765 15.8667L12.5279 17.5267C12.4981 17.7352 12.3169 17.8924 12.1062 17.8924H11.0918C10.8812 17.8924 10.7 17.7352 10.6702 17.5267L10.433 15.8667C10.4326 15.8636 10.4314 15.8554 10.4389 15.8468C10.4464 15.8382 10.4547 15.8382 10.4578 15.8382H12.7401C12.7433 15.8382 12.7516 15.8382 12.759 15.8468C12.7665 15.8554 12.7654 15.8636 12.765 15.8667ZM10.7723 15.0866V13.7533L12.4257 14.3551V15.0866H10.7723ZM23.2437 11.5008L20.9312 14.9246C20.9248 14.9341 20.9128 14.938 20.9019 14.9341L18.5594 14.0815C18.3644 14.0106 18.1487 14.1111 18.0778 14.3061C18.0068 14.5011 18.1074 14.7168 18.3024 14.7877L19.4559 15.2076L19.3102 15.6077C19.2714 15.7147 19.1931 15.8 19.09 15.8481C18.9869 15.8962 18.8712 15.9012 18.7643 15.8623L5.20459 10.927C5.09771 10.8881 5.01235 10.8099 4.96431 10.7068C4.91626 10.6036 4.9112 10.488 4.95015 10.3811L5.64418 8.47428L8.47736 9.50549C8.81725 9.62919 9.12635 9.81416 9.39607 10.0553L11.6935 12.1096C12.0348 12.4148 12.426 12.6489 12.8561 12.8055L14.7897 13.5092C14.9847 13.5801 15.2003 13.4796 15.2713 13.2846C15.3423 13.0896 15.2417 12.8739 15.0467 12.8029L13.1131 12.0992C12.7732 11.9755 12.4641 11.7905 12.1944 11.5494L9.89697 9.49508C9.55568 9.18997 9.1645 8.95588 8.73438 8.79927L5.17149 7.50247C5.15851 7.49773 5.15176 7.48334 5.1565 7.47036L5.84195 5.58706C5.88081 5.48018 5.95904 5.39482 6.06217 5.34677C6.16529 5.29868 6.28093 5.29362 6.38786 5.33252L23.2317 11.4631C23.2351 11.4644 23.2432 11.4673 23.247 11.479C23.2506 11.4906 23.2458 11.4978 23.2437 11.5008Z" fill="black"/>
<path d="M17.0526 13.5325L16.5376 13.345C16.3426 13.274 16.1269 13.3746 16.056 13.5697C15.985 13.7647 16.0856 13.9803 16.2806 14.0513L16.7956 14.2388C16.838 14.2542 16.8815 14.2615 16.9241 14.2615C17.0776 14.2615 17.2217 14.1668 17.2772 14.0141C17.3482 13.8191 17.2476 13.6035 17.0526 13.5325Z" fill="black"/>
</g>
<defs>
<clipPath id="clip0_266_2447">
<rect width="24" height="24" fill="white"/>
</clipPath>
</defs>
</svg>
