<svg width="24" height="24" viewBox="0 0 24 24" fill="none" xmlns="http://www.w3.org/2000/svg">
<g clip-path="url(#clip0_266_2309)">
<g clip-path="url(#clip1_266_2309)">
<path fill-rule="evenodd" clip-rule="evenodd" d="M8.79563 14.5189H14.3601V18.9427C14.3601 19.4889 14.8034 19.9317 15.3496 19.9317C15.6093 19.9317 15.9143 19.9317 16.2151 19.9317C16.6722 19.9317 17.1108 19.7501 17.4335 19.427C17.7501 19.1108 17.9304 18.6842 17.9379 18.2378H18.9123C19.8155 18.2378 20.5481 17.5052 20.5481 16.6014V14.9986H21.2471C21.6665 14.9986 22.0687 14.8321 22.3648 14.5357C22.6615 14.2392 22.828 13.8371 22.828 13.4178C22.828 12.5602 22.828 11.4398 22.828 10.5822C22.828 10.163 22.6615 9.76087 22.3648 9.46442C22.0687 9.16797 21.6665 9.00138 21.2471 9.00138H20.5481V7.39866C20.5481 6.49492 19.8155 5.76229 18.9123 5.76229H17.9379C17.9304 5.31583 17.7501 4.88932 17.4335 4.57306C17.1108 4.24989 16.6722 4.06836 16.2151 4.06836H15.3496C14.8034 4.06836 14.3601 4.51118 14.3601 5.05742V9.48107H8.79563V5.05742C8.79563 4.51118 8.35296 4.06836 7.8068 4.06836C7.54708 4.06836 7.24211 4.06836 6.94127 4.06836C6.48419 4.06836 6.04563 4.24989 5.72287 4.57306C5.40627 4.88932 5.22537 5.31583 5.21852 5.76229H4.24404C3.34016 5.76229 2.60761 6.49492 2.60761 7.39866V9.00138H1.90932C1.48993 9.00138 1.08765 9.16797 0.79093 9.46442C0.494891 9.76087 0.328369 10.163 0.328369 10.5822C0.328369 11.4398 0.328369 12.5602 0.328369 13.4178C0.328369 13.8371 0.494891 14.2392 0.79093 14.5357C1.08765 14.8321 1.48993 14.9986 1.90932 14.9986H2.60761V16.6014C2.60761 17.5052 3.34016 18.2378 4.24404 18.2378H5.21852C5.22537 18.6842 5.40627 19.1108 5.72287 19.427C6.04563 19.7501 6.48419 19.9317 6.94127 19.9317H7.8068C8.35296 19.9317 8.79563 19.4889 8.79563 18.9427V14.5189ZM8.22479 5.05742V18.9427C8.22479 19.1735 8.03774 19.3606 7.8068 19.3606H6.94127C6.63564 19.3606 6.34237 19.2392 6.1265 19.0232C5.91064 18.8072 5.78932 18.5142 5.78932 18.2087C5.78932 15.2919 5.78932 8.70822 5.78932 5.79141C5.78932 5.48592 5.91064 5.19289 6.1265 4.97683C6.34237 4.76083 6.63564 4.63947 6.94127 4.63947H7.8068C8.03774 4.63947 8.22479 4.82655 8.22479 5.05742ZM14.9316 5.05742C14.9316 4.82655 15.1187 4.63947 15.3496 4.63947H16.2151C16.5207 4.63947 16.814 4.76083 17.0299 4.97683C17.2458 5.19289 17.3671 5.48592 17.3671 5.79141C17.3671 8.70822 17.3671 15.2919 17.3671 18.2087C17.3671 18.5142 17.2458 18.8072 17.0299 19.0232C16.814 19.2392 16.5207 19.3606 16.2151 19.3606H15.3496C15.1187 19.3606 14.9316 19.1735 14.9316 18.9427V5.05742ZM5.21781 6.33333H4.24404C3.65607 6.33333 3.17912 6.81028 3.17912 7.39866V16.6014C3.17912 17.1897 3.65607 17.6667 4.24404 17.6667H5.21781V6.33333ZM17.9386 6.33333V17.6667H18.9123C19.5003 17.6667 19.9773 17.1897 19.9773 16.6014V7.39866C19.9773 6.81028 19.5003 6.33333 18.9123 6.33333H17.9386ZM2.60761 9.57248H1.90932C1.64138 9.57248 1.38437 9.67884 1.19524 9.86818C1.00541 10.0576 0.899209 10.3144 0.899209 10.5822C0.899209 11.4398 0.899209 12.5602 0.899209 13.4178C0.899209 13.6856 1.00541 13.9425 1.19524 14.1318C1.38437 14.3212 1.64138 14.4276 1.90932 14.4276H2.60761V9.57248ZM20.5481 9.57248V14.4276H21.2471C21.515 14.4276 21.772 14.3212 21.9611 14.1318C22.1503 13.9425 22.2572 13.6856 22.2572 13.4178V10.5822C22.2572 10.3144 22.1503 10.0576 21.9611 9.86818C21.772 9.67884 21.515 9.57248 21.2471 9.57248H20.5481ZM14.3601 13.9479V10.0522H8.79563V13.9479H14.3601Z" fill="black"/>
</g>
</g>
<defs>
<clipPath id="clip0_266_2309">
<rect width="24" height="24" fill="white"/>
</clipPath>
<clipPath id="clip1_266_2309">
<rect width="24" height="24" fill="white" transform="translate(-0.420898)"/>
</clipPath>
</defs>
</svg>
