<svg width="24" height="24" viewBox="0 0 24 24" fill="none" xmlns="http://www.w3.org/2000/svg">
<path d="M12.8867 3.89572C12.1092 2.90822 10.7217 2.81322 9.34174 2.85572C8.69924 2.87572 7.94924 2.92072 7.28174 3.10322C6.50924 3.31322 5.95175 3.67072 5.57675 4.19572C5.05175 4.93072 5.00175 5.83572 4.99425 6.85572L4.89925 18.3732C4.63925 18.4532 4.38925 18.5657 4.16175 18.7282C3.39675 19.2707 3.43175 20.1732 3.46175 20.9707C3.46675 21.0707 3.54674 21.1507 3.64674 21.1507C3.94424 21.1532 4.24675 21.1532 4.55175 21.1532C6.04675 21.1532 7.62175 21.1307 9.15424 21.1107C10.9967 21.0857 12.9042 21.0582 14.6542 21.0707C14.6542 21.0707 14.6542 21.0707 14.6567 21.0707C14.7067 21.0707 14.7542 21.0507 14.7892 21.0157C14.8242 20.9807 14.8442 20.9332 14.8442 20.8832C14.8442 20.8107 14.8442 20.7382 14.8442 20.6707C14.8442 19.4807 14.8467 18.8257 14.0292 18.3957C13.8017 18.2757 13.5592 18.2107 13.3117 18.1757L13.4567 8.20822C13.9592 8.22072 14.2367 8.32072 14.5742 8.58572C15.0042 8.92822 14.9792 9.57572 14.9517 10.2057C14.9492 10.2807 14.9467 10.3532 14.9442 10.4257C14.9242 11.0532 14.9117 11.4307 14.8992 11.7982C14.8867 12.1607 14.8742 12.5332 14.8542 13.1457C14.8292 13.9782 14.7992 14.9207 15.1567 15.7632C15.5042 16.5807 16.2767 17.1057 17.0917 17.1057C17.1742 17.1057 17.2567 17.1007 17.3417 17.0882C18.1017 16.9882 18.7242 16.4807 19.0042 15.7332C19.2692 15.0257 19.2692 14.2457 19.2692 13.5582C19.2692 12.3557 19.2692 11.5907 19.2692 10.8782C19.2692 10.0332 19.2692 9.25822 19.2692 7.91572C19.6467 7.85072 20.0042 7.63322 20.2292 7.31822C20.5692 6.84572 20.6092 5.97572 20.5017 5.37072C20.4867 5.28072 20.4092 5.21572 20.3192 5.21572C20.1417 5.21322 19.9692 5.21322 19.7992 5.21322L19.7767 4.20572C19.7742 4.10322 19.6892 4.02072 19.5842 4.02322C19.4817 4.02572 19.3992 4.11072 19.4017 4.21572L19.4242 5.21572C19.1692 5.21822 18.9142 5.22072 18.6467 5.22822L18.6292 4.27822C18.6267 4.17572 18.5417 4.09322 18.4392 4.09322C18.3367 4.09572 18.2542 4.18072 18.2542 4.28322L18.2717 5.23822C18.0992 5.24572 17.9217 5.25322 17.7342 5.26072C17.6367 5.26572 17.5592 5.34572 17.5567 5.44322C17.5367 6.14572 17.5617 6.92572 17.9067 7.37822C18.1417 7.68572 18.5067 7.88572 18.8942 7.92572C18.8942 9.26072 18.8942 10.0332 18.8942 10.8757C18.8942 11.5882 18.8942 12.3532 18.8942 13.5557C18.8942 14.2432 18.8942 14.9557 18.6517 15.5982C18.4192 16.2132 17.9117 16.6307 17.2917 16.7132C16.5542 16.8107 15.8192 16.3582 15.5017 15.6132C15.1767 14.8482 15.2042 13.9482 15.2292 13.1557C15.2492 12.5432 15.2617 12.1707 15.2742 11.8082C15.2867 11.4407 15.3017 11.0632 15.3192 10.4357C15.3217 10.3657 15.3242 10.2932 15.3267 10.2207C15.3542 9.53322 15.3867 8.75322 14.8067 8.29322C14.4042 7.97322 14.0492 7.84822 13.4617 7.83322L13.4792 6.58322C13.4942 5.58072 13.4592 4.62322 12.8867 3.89572ZM5.36674 6.85822C5.37424 5.90322 5.41924 5.06072 5.87924 4.41322C6.60424 3.40072 8.05174 3.27072 9.35174 3.23072C10.6367 3.19072 11.9167 3.27072 12.5917 4.12572C13.0867 4.75572 13.1167 5.64072 13.1042 6.57072L13.0842 8.01572L12.9367 18.1357C12.7367 18.1282 12.5417 18.1307 12.3617 18.1357C11.4017 18.1557 10.4267 18.1557 9.48174 18.1532C8.53424 18.1532 7.55675 18.1507 6.59175 18.1707C6.18425 18.1782 5.72424 18.1882 5.27174 18.2757L5.36674 6.85822ZM13.8517 18.7257C14.4667 19.0507 14.4667 19.4907 14.4667 20.6682C14.4667 20.6757 14.4667 20.6832 14.4667 20.6932C12.7642 20.6832 10.9267 20.7107 9.14924 20.7357C7.36924 20.7607 5.53174 20.7857 3.82925 20.7782C3.80675 19.9707 3.85675 19.4057 4.37675 19.0357C5.01175 18.5857 5.89174 18.5657 6.59924 18.5532C7.55924 18.5332 8.53675 18.5332 9.47925 18.5357C10.4267 18.5357 11.4042 18.5382 12.3667 18.5182C12.5992 18.5132 12.8467 18.5082 13.0917 18.5307C13.0967 18.5307 13.1042 18.5332 13.1092 18.5332C13.3717 18.5507 13.6267 18.6082 13.8517 18.7257ZM18.1992 7.15072C17.9292 6.79572 17.9117 6.06322 17.9217 5.62572C18.1092 5.61822 18.2867 5.61072 18.4567 5.60572H18.4592H18.4617C19.0517 5.58572 19.5767 5.58322 20.1492 5.58572C20.2117 6.10572 20.1567 6.76572 19.9192 7.09572C19.7217 7.36822 19.3967 7.54572 19.0667 7.55572C18.7317 7.56822 18.3992 7.41322 18.1992 7.15072ZM7.77174 15.6907C8.20174 16.0207 8.73174 16.1857 9.24924 16.1857C9.78174 16.1857 10.3017 16.0132 10.6892 15.6682C11.4317 15.0107 11.5842 13.9582 11.6417 12.9207C11.7417 11.0707 11.7267 9.19822 11.5967 7.35072C11.5442 6.60072 11.4542 5.81822 11.0017 5.20572C10.6267 4.69822 10.0267 4.37072 9.39674 4.33072C8.76674 4.28822 8.12925 4.53572 7.69175 4.99072C6.97675 5.73072 6.89424 6.83072 6.86924 7.89572C6.85424 8.55322 6.83174 9.13822 6.80924 9.76072C6.77924 10.5757 6.74925 11.4207 6.72925 12.5007C6.71175 13.7407 6.77424 14.9207 7.77174 15.6907ZM7.10924 12.5032C7.12924 11.4282 7.15925 10.5857 7.18924 9.77072C7.21175 9.14822 7.23424 8.56072 7.24924 7.90072C7.27424 6.86822 7.34675 5.89072 7.96674 5.24822C8.30174 4.90072 8.78174 4.70072 9.26425 4.70072C9.30174 4.70072 9.33924 4.70072 9.37674 4.70322C9.89674 4.73822 10.3942 5.00822 10.7042 5.42822C11.0967 5.96072 11.1792 6.68322 11.2267 7.37572C11.3567 9.20822 11.3717 11.0657 11.2717 12.8982C11.2192 13.8557 11.0817 14.8207 10.4442 15.3857C10.1367 15.6582 9.71674 15.8082 9.25924 15.8082C9.25424 15.8082 9.24924 15.8082 9.24674 15.8082C8.79174 15.8057 8.34925 15.6582 8.00425 15.3907C7.13925 14.7282 7.08674 13.6907 7.10924 12.5032ZM8.09924 10.8432C8.20174 10.8432 8.29424 10.8382 8.38674 10.8357C8.51424 10.8332 8.63924 10.8282 8.78424 10.8282C8.69424 11.0482 8.59925 11.2982 8.50174 11.5557C8.41674 11.7782 8.32924 12.0082 8.23424 12.2457C8.17424 12.3932 8.22924 12.5557 8.36424 12.6407C8.41924 12.6757 8.47924 12.6907 8.53674 12.6907C8.62424 12.6907 8.71174 12.6532 8.77424 12.5832C9.50424 11.7832 10.0117 11.1907 10.8092 10.2407C10.8917 10.1432 10.9092 10.0082 10.8542 9.89322C10.7992 9.77822 10.6842 9.70572 10.5567 9.70822C10.4367 9.71072 10.3367 9.71322 10.2442 9.71322C10.0467 9.71822 9.89425 9.72072 9.67924 9.71322C9.70925 9.52822 9.77424 9.14572 9.92174 8.36072C9.94924 8.20822 9.86924 8.05822 9.72424 8.00072C9.57924 7.94072 9.41924 7.99072 9.33174 8.12072C8.93924 8.70572 8.22175 9.77072 7.82925 10.3232C7.75675 10.4232 7.74924 10.5532 7.80674 10.6632C7.86424 10.7757 7.97674 10.8432 8.09924 10.8432ZM9.50924 8.53822C9.45174 8.84822 9.40424 9.11072 9.36924 9.31822C9.33924 9.48322 9.31924 9.61572 9.30424 9.70822C9.27924 9.87822 9.26924 9.94322 9.32424 10.0157C9.35674 10.0582 9.40924 10.0857 9.46174 10.0882C9.80424 10.1057 9.99175 10.1032 10.2542 10.0957C10.3167 10.0932 10.3817 10.0932 10.4542 10.0907C9.76675 10.9082 9.29424 11.4607 8.68424 12.1357C8.74174 11.9857 8.79924 11.8382 8.85425 11.6932C8.99174 11.3307 9.12175 10.9907 9.23924 10.7257C9.26425 10.6682 9.25924 10.6032 9.22674 10.5507C9.19424 10.4982 9.13674 10.4657 9.07424 10.4632C8.95924 10.4582 8.85674 10.4582 8.76425 10.4582C8.61925 10.4582 8.49675 10.4607 8.37674 10.4657C8.31924 10.4682 8.25674 10.4682 8.19674 10.4707C8.55174 9.95572 9.12174 9.11322 9.50924 8.53822Z" fill="#222222"/>
</svg>
