<svg width="24" height="24" viewBox="0 0 24 24" fill="none" xmlns="http://www.w3.org/2000/svg">
<g clip-path="url(#clip0_266_2254)">
<path fill-rule="evenodd" clip-rule="evenodd" d="M22.6406 24H1.17188C0.984375 24 0.84375 23.8594 0.84375 23.6719V11.4375C0.84375 11.25 0.984375 11.1094 1.17188 11.1094H22.6406C22.8281 11.1094 22.9688 11.25 22.9688 11.4375V23.6719C22.9688 23.8594 22.8281 24 22.6406 24ZM1.5 23.3438H22.3125V11.7656H1.5V23.3438Z" fill="black"/>
<path fill-rule="evenodd" clip-rule="evenodd" d="M22.6406 11.7656H1.17188C0.984375 11.7656 0.84375 11.625 0.84375 11.4375V7.125C0.84375 6.9375 0.984375 6.79688 1.17188 6.79688H22.6406C22.8281 6.79688 22.9688 6.9375 22.9688 7.125V11.4375C22.9688 11.625 22.8281 11.7656 22.6406 11.7656ZM1.5 11.1094H22.3125V7.45312H1.5V11.1094Z" fill="black"/>
<path fill-rule="evenodd" clip-rule="evenodd" d="M3.51562 11.7656C3.32812 11.7656 3.1875 11.625 3.1875 11.4375V7.125C3.1875 6.9375 3.32812 6.79688 3.51562 6.79688C3.70312 6.79688 3.84375 6.9375 3.84375 7.125V11.4375C3.84375 11.625 3.70312 11.7656 3.51562 11.7656ZM6.89062 11.7656C6.70312 11.7656 6.5625 11.625 6.5625 11.4375V7.125C6.5625 6.9375 6.70312 6.79688 6.89062 6.79688C7.07812 6.79688 7.21875 6.9375 7.21875 7.125V11.4375C7.21875 11.625 7.07812 11.7656 6.89062 11.7656ZM10.2188 11.7656C10.0312 11.7656 9.89062 11.625 9.89062 11.4375V7.125C9.89062 6.9375 10.0312 6.79688 10.2188 6.79688C10.4062 6.79688 10.5469 6.9375 10.5469 7.125V11.4375C10.5469 11.625 10.4062 11.7656 10.2188 11.7656ZM13.5469 11.7656C13.3594 11.7656 13.2188 11.625 13.2188 11.4375V7.125C13.2188 6.9375 13.3594 6.79688 13.5469 6.79688C13.7344 6.79688 13.875 6.9375 13.875 7.125V11.4375C13.875 11.625 13.7344 11.7656 13.5469 11.7656ZM16.9219 11.7656C16.7344 11.7656 16.5938 11.625 16.5938 11.4375V7.125C16.5938 6.9375 16.7344 6.79688 16.9219 6.79688C17.1094 6.79688 17.25 6.9375 17.25 7.125V11.4375C17.25 11.625 17.1094 11.7656 16.9219 11.7656ZM20.25 11.7656C20.0625 11.7656 19.9219 11.625 19.9219 11.4375V7.125C19.9219 6.9375 20.0625 6.79688 20.25 6.79688C20.4375 6.79688 20.5781 6.9375 20.5781 7.125V11.4375C20.5781 11.625 20.4375 11.7656 20.25 11.7656ZM18.1875 15.4219H5.57812C5.39062 15.4219 5.25 15.2812 5.25 15.0938V13.7812C5.25 13.5938 5.39062 13.4531 5.57812 13.4531H18.1875C18.375 13.4531 18.5156 13.5938 18.5156 13.7812V15.0938C18.5156 15.2812 18.3281 15.4219 18.1875 15.4219ZM5.90625 14.7656H17.8594V14.1094H5.90625V14.7656Z" fill="black"/>
<path fill-rule="evenodd" clip-rule="evenodd" d="M17.3438 21.6094H6.42188C6.23438 21.6094 6.09375 21.4688 6.09375 21.2812V15.0938C6.09375 14.9062 6.23438 14.7656 6.42188 14.7656H17.3438C17.5312 14.7656 17.6719 14.9062 17.6719 15.0938V21.2812C17.6719 21.4688 17.5312 21.6094 17.3438 21.6094ZM6.75 20.9531H17.0156V15.4219H6.75V20.9531Z" fill="black"/>
<path fill-rule="evenodd" clip-rule="evenodd" d="M11.9062 21.6562C11.7188 21.6562 11.5781 21.5156 11.5781 21.3281V15.0938C11.5781 14.9062 11.7188 14.7656 11.9062 14.7656C12.0938 14.7656 12.2344 14.9062 12.2344 15.0938V21.3281C12.2344 21.5156 12.0938 21.6562 11.9062 21.6562ZM11.9062 11.7656H4.73438C4.54688 11.7656 4.40625 11.625 4.40625 11.4375V2.25C4.40625 2.0625 4.54688 1.92188 4.73438 1.92188H11.9062C12.0938 1.92188 12.2344 2.0625 12.2344 2.25V11.4375C12.2344 11.625 12.0938 11.7656 11.9062 11.7656ZM5.0625 11.1094H11.5781V2.57812H5.0625V11.1094Z" fill="black"/>
<path fill-rule="evenodd" clip-rule="evenodd" d="M15.2344 11.7656H11.8594C11.6719 11.7656 11.5312 11.625 11.5312 11.4375V5.34375C11.5312 5.25 11.5781 5.15625 11.625 5.10938C11.6719 5.0625 11.7656 5.01562 11.8594 5.01562L14.2969 5.0625C14.4844 5.0625 14.5781 5.20312 14.625 5.34375L15.5625 11.3906C15.5625 11.4844 15.5625 11.5781 15.4688 11.6719C15.4219 11.7188 15.3281 11.7656 15.2344 11.7656ZM12.1875 11.1094H14.8594L14.0156 5.71875L12.1875 5.67188V11.1094ZM22.8281 4.40625H13.7812C13.6406 4.40625 13.5 4.3125 13.4531 4.17188C13.4062 4.07812 13.4531 3.9375 13.5938 3.84375L18.0938 0.09375C18.1875 -0.046875 18.375 -0.046875 18.4688 0.09375L23.0156 3.84375C23.1562 3.9375 23.2031 4.07812 23.1562 4.17188C23.1094 4.3125 22.9688 4.40625 22.8281 4.40625ZM14.6719 3.75H21.9375L18.2812 0.75L14.6719 3.75Z" fill="black"/>
<path fill-rule="evenodd" clip-rule="evenodd" d="M18.2812 11.7656C18.0938 11.7656 17.9531 11.625 17.9531 11.4375V4.07812C17.9531 3.89062 18.0938 3.75 18.2812 3.75C18.4688 3.75 18.6094 3.89062 18.6094 4.07812V11.4375C18.6094 11.625 18.4688 11.7656 18.2812 11.7656Z" fill="black"/>
</g>
<defs>
<clipPath id="clip0_266_2254">
<rect width="24" height="24" fill="white"/>
</clipPath>
</defs>
</svg>
