<svg width="24" height="24" viewBox="0 0 24 24" fill="none" xmlns="http://www.w3.org/2000/svg">
<path d="M8.90456 22.6256C8.86568 22.6166 8.82542 22.6154 8.78607 22.622C8.74672 22.6286 8.70908 22.643 8.67529 22.6642C8.6415 22.6854 8.61224 22.7131 8.58919 22.7457C8.56613 22.7783 8.54974 22.8151 8.54095 22.854C8.50631 23.0053 8.37563 23.1109 8.22267 23.1109H6.75075C6.59255 23.1109 6.45666 22.9968 6.42797 22.8412L6.39881 22.6785C6.36919 22.5139 6.21262 22.4026 6.04636 22.4332C6.00711 22.4403 5.96963 22.455 5.93606 22.4765C5.90249 22.498 5.87349 22.5259 5.85072 22.5586C5.82794 22.5914 5.81184 22.6283 5.80333 22.6672C5.79482 22.7062 5.79406 22.7464 5.80111 22.7857L5.8305 22.95C5.91305 23.395 6.29986 23.718 6.75075 23.718H8.22267C8.66048 23.718 9.03478 23.4182 9.13294 22.9892C9.15083 22.9107 9.13683 22.8283 9.09401 22.7601C9.05119 22.6919 8.98305 22.6435 8.90456 22.6256ZM17.9529 22.4358C17.7897 22.4062 17.6299 22.5153 17.6 22.6801L17.571 22.8393C17.557 22.9154 17.5167 22.9843 17.4572 23.0339C17.3976 23.0835 17.3226 23.1107 17.2452 23.1108H15.7759C15.6226 23.1108 15.4879 23.0038 15.4554 22.8563C15.4194 22.6927 15.2569 22.59 15.0938 22.6251C15.0548 22.6336 15.0179 22.6498 14.9852 22.6726C14.9526 22.6954 14.9247 22.7244 14.9032 22.758C14.8817 22.7916 14.8671 22.8291 14.8601 22.8684C14.8531 22.9076 14.8539 22.9478 14.8625 22.9868C14.9557 23.4106 15.3399 23.718 15.7759 23.718H17.2452C17.6972 23.718 18.0853 23.3952 18.168 22.949L18.1972 22.7887C18.2044 22.7495 18.2037 22.7093 18.1953 22.6703C18.1869 22.6313 18.1709 22.5944 18.1482 22.5616C18.1255 22.5288 18.0966 22.5009 18.0631 22.4793C18.0296 22.4577 17.9921 22.4429 17.9529 22.4358ZM15.6437 0.864024C15.6804 0.848427 15.7137 0.825754 15.7416 0.797299C15.7696 0.768844 15.7916 0.735164 15.8065 0.698185C15.8214 0.661206 15.8289 0.621651 15.8285 0.581781C15.8281 0.541911 15.8199 0.502507 15.8043 0.46582C15.7386 0.311649 15.5602 0.240258 15.4061 0.305274C14.6604 0.622852 14.1531 1.35049 14.1725 2.07462C14.1906 2.73776 14.5821 3.24223 14.9607 3.73034C15.284 4.14673 15.637 4.5941 15.6532 5.12398C15.6611 5.39126 15.5676 5.64246 15.4033 5.79588C15.3741 5.82307 15.3506 5.85574 15.3341 5.89201C15.3175 5.92829 15.3083 5.96747 15.3069 6.00731C15.3055 6.04715 15.312 6.08687 15.326 6.12421C15.3399 6.16155 15.3611 6.19578 15.3883 6.22493C15.4155 6.25408 15.4482 6.2776 15.4844 6.29412C15.5207 6.31065 15.5599 6.31988 15.5997 6.32127C15.6396 6.32265 15.6793 6.31618 15.7166 6.30222C15.754 6.28825 15.7882 6.26707 15.8174 6.23988C16.1117 5.96501 16.273 5.55185 16.26 5.10616C16.2391 4.40098 15.834 3.86501 15.4403 3.35791C15.107 2.9284 14.7921 2.52255 14.7797 2.0584C14.7667 1.57723 15.1219 1.08626 15.6437 0.864024ZM12.4264 0.864024C12.4631 0.848427 12.4964 0.825754 12.5243 0.797299C12.5522 0.768844 12.5743 0.735164 12.5892 0.698185C12.6041 0.661206 12.6116 0.621651 12.6112 0.581781C12.6108 0.541911 12.6026 0.502507 12.587 0.46582C12.5553 0.39187 12.4956 0.33347 12.421 0.303386C12.3464 0.273302 12.2629 0.273981 12.1888 0.305274C11.4431 0.622852 10.9358 1.35049 10.9552 2.07462C10.9732 2.73776 11.3648 3.24223 11.7434 3.73034C12.0667 4.14673 12.4197 4.5941 12.4359 5.12398C12.4438 5.39126 12.3503 5.64246 12.186 5.79588C12.1568 5.82307 12.1333 5.85574 12.1168 5.89201C12.1002 5.92829 12.091 5.96747 12.0896 6.00731C12.0882 6.04715 12.0947 6.08687 12.1087 6.12421C12.1226 6.16155 12.1438 6.19578 12.171 6.22493C12.1982 6.25408 12.2309 6.2776 12.2671 6.29412C12.3034 6.31065 12.3426 6.31988 12.3824 6.32127C12.4223 6.32265 12.462 6.31618 12.4993 6.30222C12.5367 6.28825 12.5709 6.26707 12.6 6.23988C12.8944 5.96501 13.0557 5.55185 13.0426 5.10616C13.0218 4.40098 12.6166 3.86501 12.2229 3.35791C11.8897 2.9284 11.5747 2.52255 11.5624 2.0584C11.5493 1.57723 11.9046 1.08626 12.4264 0.864024ZM9.20911 0.864024C9.36352 0.798305 9.43537 0.619945 9.36966 0.46582C9.30394 0.311695 9.12586 0.240258 8.97145 0.305274C8.22577 0.622852 7.71844 1.35049 7.73789 2.07462C7.75594 2.73776 8.14748 3.24223 8.52605 3.73034C8.84939 4.14673 9.20236 4.5941 9.21863 5.12398C9.22645 5.39126 9.13298 5.64246 8.96864 5.79588C8.93949 5.82307 8.91597 5.85574 8.89945 5.89201C8.88292 5.92829 8.87369 5.96747 8.8723 6.00731C8.87092 6.04715 8.87739 6.08687 8.89135 6.12421C8.90532 6.16155 8.9265 6.19578 8.95369 6.22493C8.98088 6.25408 9.01354 6.2776 9.04982 6.29412C9.0861 6.31065 9.12527 6.31988 9.16511 6.32127C9.20495 6.32265 9.24468 6.31618 9.28202 6.30222C9.31936 6.28825 9.35358 6.26707 9.38273 6.23988C9.67706 5.96501 9.83836 5.55185 9.82533 5.10616C9.80447 4.40098 9.39933 3.86501 9.00563 3.35791C8.67239 2.9284 8.35744 2.52255 8.34506 2.0584C8.33203 1.57723 8.6873 1.08626 9.20911 0.864024ZM19.126 8.08605C18.3841 8.08605 17.7541 8.57041 17.5329 9.23923L15.9706 9.24682C15.7517 8.57402 15.1195 8.08605 14.3748 8.08605C13.6254 8.08605 12.9895 8.57974 12.7744 9.25882L11.2263 9.26604C11.0135 8.58312 10.3754 8.08605 9.62344 8.08605C8.86701 8.08605 8.22637 8.58912 8.01722 9.27809L6.48019 9.2854C6.27333 8.59273 5.63114 8.08605 4.87209 8.08605C3.94641 8.08605 3.19336 8.8391 3.19336 9.76479V20.4532C3.19336 21.3789 3.94641 22.1319 4.87209 22.1319C5.79778 22.1319 6.55083 21.3789 6.55083 20.4532V20.3485L7.9447 20.3433V20.4532C7.9447 21.3789 8.69775 22.1319 9.62344 22.1319C10.5489 22.1319 11.3019 21.3789 11.3019 20.4532V20.3286L12.696 20.3218V20.4532C12.696 21.3789 13.4491 22.1319 14.3748 22.1319C15.3002 22.1319 16.0533 21.3789 16.0533 20.4532V20.3092L17.4474 20.3025V20.4532C17.4474 21.3789 18.2004 22.1319 19.1259 22.1319C20.0516 22.1319 20.8046 21.3789 20.8046 20.4532V9.76484C20.8047 8.8391 20.0517 8.08605 19.126 8.08605ZM4.87205 21.5248C4.28123 21.5248 3.80048 21.044 3.80048 20.4532V9.76484C3.80048 9.17402 4.28123 8.69327 4.87205 8.69327C5.39667 8.69327 5.83256 9.07291 5.92406 9.57152C5.92364 9.57846 5.92008 9.58441 5.92013 9.59145L5.94361 15.2171V20.4532C5.94361 21.044 5.46286 21.5248 4.87205 21.5248ZM6.56977 19.7412L6.55078 15.2131V9.89234L7.94466 9.88568V19.7362C7.8832 19.735 6.9135 19.7396 6.56977 19.7412ZM10.6948 20.4532C10.6948 21.044 10.2142 21.5248 9.62344 21.5248C9.03262 21.5248 8.55187 21.044 8.55187 20.4532V9.76484C8.55187 9.17402 9.03262 8.69327 9.62344 8.69327C10.2142 8.69327 10.6948 9.17402 10.6948 9.76484V20.4532ZM11.3019 19.7215V9.87293L12.696 9.86641V19.7147L11.3019 19.7215ZM14.3748 21.5248C13.784 21.5248 13.3033 21.044 13.3033 20.4532V9.76484C13.3033 9.17402 13.784 8.69327 14.3748 8.69327C14.9656 8.69327 15.4462 9.17402 15.4462 9.76484V20.4532C15.4462 21.044 14.9656 21.5248 14.3748 21.5248ZM16.0533 19.7021V9.85362L17.4261 9.84687L17.4474 14.9408V19.6953L16.0533 19.7021ZM20.1975 20.4532C20.1975 21.044 19.7168 21.5248 19.126 21.5248C18.5352 21.5248 18.0547 21.044 18.0547 20.4532V9.76484C18.0547 9.17402 18.5352 8.69327 19.126 8.69327C19.7168 8.69327 20.1975 9.17402 20.1975 9.76484V20.4532Z" fill="black"/>
</svg>
