<svg width="24" height="24" viewBox="0 0 24 24" fill="none" xmlns="http://www.w3.org/2000/svg">
<g clip-path="url(#clip0_266_2627)">
<path fill-rule="evenodd" clip-rule="evenodd" d="M14.3596 11.3652C14.4461 11.3857 14.5349 11.4064 14.6252 11.4275C14.9734 11.5088 15.3457 11.5957 15.7093 11.6967C16.2396 11.8441 16.6922 12.0065 16.9699 12.1886C17.5952 12.5983 17.8615 13.014 17.8615 13.4089V15.863H12.8968L14.3596 11.3652ZM12.1014 15.863L13.7117 10.9114L13.7237 10.8871C13.8388 10.6532 14.1006 10.5256 14.3574 10.5881C14.4865 10.6195 14.6287 10.6527 14.7788 10.6878C15.1335 10.7706 15.5329 10.8639 15.9122 10.9693C16.4469 11.1179 17.0005 11.3052 17.3852 11.5574C18.0936 12.0216 18.6181 12.6361 18.6181 13.4089V16.6181H4.99976V13.4089C4.99976 12.6361 5.52427 12.0216 6.23264 11.5574C6.61735 11.3052 7.17097 11.1179 7.7056 10.9693C8.08487 10.8639 8.48434 10.7706 8.83903 10.6878C8.98917 10.6527 9.13125 10.6195 9.2604 10.5881C9.51722 10.5256 9.77903 10.6532 9.89418 10.8871L9.90405 10.9072L11.6509 15.863H12.1014ZM10.8489 15.863L9.26308 11.364C9.17498 11.3849 9.08465 11.406 8.99261 11.4275C8.64436 11.5088 8.27216 11.5957 7.90852 11.6968C7.37823 11.8441 6.92565 12.0065 6.64791 12.1886C6.0227 12.5983 5.75633 13.014 5.75633 13.4089V15.863H10.8489Z" fill="black"/>
<path fill-rule="evenodd" clip-rule="evenodd" d="M11.8243 3.75657C10.3618 3.75657 9.17625 4.94212 9.17625 6.40458C9.17625 7.86704 10.3618 9.05259 11.8243 9.05259C13.2867 9.05259 14.4723 7.86704 14.4723 6.40458C14.4723 4.94212 13.2867 3.75657 11.8243 3.75657ZM8.41968 6.40458C8.41968 4.52427 9.94395 3 11.8243 3C13.7046 3 15.2288 4.52427 15.2288 6.40458C15.2288 8.28489 13.7046 9.80916 11.8243 9.80916C9.94395 9.80916 8.41968 8.28489 8.41968 6.40458Z" fill="black"/>
<g clip-path="url(#clip1_266_2627)">
<path d="M20.1917 17.6875L14.9022 17.6876C14.8426 17.6876 14.7858 17.7132 14.7467 17.7581L13.5003 19.1825L12.0325 18.9728C11.9659 18.8704 11.8896 18.7732 11.8032 18.6827C11.4279 18.2897 10.9219 18.0732 10.3785 18.0732C9.71857 18.0732 9.10031 18.4081 8.737 18.9548L7.71263 18.9548C7.59852 18.9548 7.506 19.0473 7.50602 19.1614C7.50602 19.2755 7.59854 19.3681 7.71263 19.368L8.85184 19.368C8.92561 19.3681 8.99376 19.3287 9.03066 19.2649C9.3085 18.7847 9.82501 18.4864 10.3786 18.4864C10.8079 18.4865 11.2078 18.6575 11.5044 18.9681C11.7225 19.1965 11.8623 19.4777 11.9132 19.7818L11.4863 19.833C11.4077 19.605 11.2022 19.4346 10.9631 19.4017C10.7323 19.3699 10.4979 19.4679 10.3576 19.6537C10.2182 19.8381 10.1883 20.0899 10.281 20.3018C10.3717 20.509 10.57 20.6578 10.7946 20.6856C11.0964 20.7229 11.3917 20.5381 11.4884 20.249L11.9276 20.1963C11.8523 20.966 11.2077 21.5755 10.4265 21.5989C9.6667 21.6217 9.00514 21.099 8.85347 20.3562C8.83501 20.2658 8.75884 20.1986 8.66687 20.1915L7.77509 20.1229L7.77509 20.043C7.77509 19.9289 7.68257 19.8364 7.56847 19.8364L6.9073 19.8364C6.79584 19.8364 6.70216 19.9288 6.70072 20.0403L6.45276 20.0212L6.45276 19.8226C6.45276 19.7085 6.36023 19.616 6.24614 19.616L5.58495 19.616C5.51588 19.616 5.45137 19.6505 5.41303 19.7081L5.27821 19.9103L4.24877 19.6602L4.24875 19.5747C4.24879 19.4608 4.34144 19.3681 4.45539 19.3681L6.7777 19.368C6.89181 19.368 6.98433 19.2755 6.98431 19.1614C6.98431 19.0473 6.89179 18.9548 6.7777 18.9548L4.45535 18.9548C4.11355 18.9548 3.83547 19.2329 3.83547 19.5747L3.83547 19.8226C3.83547 19.918 3.90069 20.0009 3.99332 20.0234L5.32109 20.3459C5.40547 20.3664 5.49361 20.3319 5.54179 20.2598L5.69547 20.0293L6.03945 20.0293L6.03945 20.2126C6.03945 20.3206 6.12256 20.4103 6.23023 20.4186L6.89144 20.4695C7.02069 20.4794 7.11399 20.373 7.1139 20.2497L7.36186 20.2497L7.36186 20.3143C7.36186 20.4223 7.44497 20.5121 7.55263 20.5203L8.48623 20.5921C8.73341 21.4502 9.5307 22.0392 10.4389 22.012C10.9561 21.9965 11.4259 21.7781 11.7701 21.4338C12.1042 21.0997 12.3199 20.6469 12.3455 20.1462L13.4016 20.0194L14.7467 21.5566C14.7859 21.6015 14.8426 21.6272 14.9022 21.6272L18.2331 21.6272C18.3472 21.6272 18.4397 21.5347 18.4397 21.4206C18.4397 21.3065 18.3472 21.2139 18.2331 21.214L14.9959 21.214L13.8986 19.9598L14.5567 19.8808C14.5953 20.0271 14.6719 20.1612 14.7817 20.2711C14.9825 20.4718 15.2739 20.562 15.5531 20.511C15.8276 20.4609 16.0666 20.2745 16.1837 20.0214C16.293 19.785 16.2887 19.5041 16.1724 19.2712C16.0628 19.0515 15.8603 18.8845 15.6233 18.82C15.3253 18.7388 14.9999 18.8255 14.7817 19.0437C14.664 19.1614 14.5846 19.307 14.549 19.4655L13.7141 19.5657L14.9959 18.1009L19.9851 18.1009L19.9851 21.214L19.1682 21.214C19.054 21.214 18.9615 21.3065 18.9615 21.4206C18.9615 21.5347 19.054 21.6273 19.1681 21.6272L20.1917 21.6272C20.3043 21.6272 20.3984 21.5332 20.3984 21.4206L20.3984 17.8942C20.3984 17.78 20.3059 17.6875 20.1917 17.6875ZM11.0588 19.8991C10.9377 19.9648 10.9146 20.1349 11.0148 20.2302C10.8633 20.3443 10.6403 20.2318 10.6403 20.043C10.6403 19.9437 10.7057 19.8529 10.7997 19.8211C10.893 19.7896 10.9982 19.8217 11.0588 19.8991ZM13.1544 19.6329L12.3244 19.7325C12.3077 19.6262 12.282 19.5223 12.2485 19.4211L13.1804 19.5542C13.1663 19.5787 13.1577 19.6055 13.1544 19.6329ZM14.9749 19.8306L15.0781 19.8182C15.1899 19.8048 15.2721 19.7002 15.2586 19.5885C15.245 19.4752 15.1421 19.3944 15.0288 19.4079L15.0143 19.4097C15.0314 19.3834 15.0513 19.3587 15.074 19.3359C15.2851 19.1248 15.6493 19.1777 15.7934 19.438C15.9301 19.6849 15.8002 20.0026 15.5335 20.0899C15.3732 20.1423 15.1929 20.0978 15.0739 19.9788C15.0308 19.9357 14.9974 19.8854 14.9749 19.8306Z" fill="black"/>
</g>
</g>
<defs>
<clipPath id="clip0_266_2627">
<rect width="24" height="24" fill="white"/>
</clipPath>
<clipPath id="clip1_266_2627">
<rect width="13.6253" height="13.6253" fill="white" transform="translate(12.6345 10) rotate(45)"/>
</clipPath>
</defs>
</svg>
