<svg width="24" height="24" viewBox="0 0 24 24" fill="none" xmlns="http://www.w3.org/2000/svg">
<g clip-path="url(#clip0_268_2909)">
<path d="M7.79384 20.4834C7.94091 20.6633 8.12619 20.8082 8.33624 20.9075C8.54628 21.0069 8.77582 21.0583 9.00818 21.0579H14.501C14.7334 21.0583 14.9629 21.0069 15.173 20.9075C15.383 20.8082 15.5683 20.6633 15.7153 20.4834C15.863 20.3039 15.9689 20.0939 16.0253 19.8685C16.0817 19.643 16.0871 19.4079 16.0413 19.18L15.3555 15.7406C15.3381 15.6537 15.2886 15.5765 15.2168 15.5245C14.3754 14.9159 13.1985 14.3654 11.5525 15.5217C11.5383 15.5317 11.5248 15.5427 11.5122 15.5546C10.5975 16.425 9.7392 16.4218 8.72909 15.544C8.68262 15.5036 8.62637 15.4761 8.56595 15.4643C8.50553 15.4525 8.44306 15.4567 8.38481 15.4766C8.32655 15.4965 8.27454 15.5314 8.23398 15.5777C8.19343 15.624 8.16574 15.6802 8.1537 15.7405L7.46787 19.18C7.42204 19.4078 7.42752 19.643 7.4839 19.8684C7.54029 20.0939 7.64616 20.3039 7.79384 20.4834ZM8.1574 19.3176L8.73336 16.4293C9.84453 17.1574 10.9567 17.0417 11.9772 16.0826C13.114 15.2928 13.8965 15.4707 14.6934 16.0158L15.3517 19.3176C15.3771 19.4434 15.374 19.5733 15.3429 19.6978C15.3117 19.8223 15.2533 19.9383 15.1717 20.0374C15.0905 20.1368 14.9881 20.2168 14.8721 20.2717C14.7561 20.3266 14.6293 20.355 14.501 20.3547H9.00818C8.74737 20.3547 8.50287 20.239 8.33745 20.0374C8.17203 19.8357 8.10645 19.5734 8.1574 19.3176Z" fill="black"/>
<path d="M21.0988 21.527H19.8922V5.19478C19.8914 4.48441 19.723 3.78425 19.4008 3.15117C18.7179 1.81322 17.3902 0.898922 15.9044 0.729V0.559781C15.9044 0.251109 15.6533 0 15.3446 0H11.0433C10.8491 0 10.6917 0.157359 10.6917 0.351562C10.6917 0.545766 10.8491 0.703125 11.0433 0.703125H15.2013V1.40081H8.30806V0.703125H9.68393C9.87809 0.703125 10.0355 0.545766 10.0355 0.351562C10.0355 0.157359 9.87809 0 9.68393 0H8.16471C7.85604 0 7.60493 0.251109 7.60493 0.559781V1.54416C7.60493 1.85283 7.85604 2.10389 8.16471 2.10389H8.51131L10.5279 6.06103C10.5573 6.1188 10.6021 6.1673 10.6574 6.20118C10.7127 6.23506 10.7763 6.25299 10.8411 6.25298H12.6682C12.733 6.25297 12.7966 6.23504 12.8519 6.20116C12.9072 6.16729 12.952 6.11879 12.9814 6.06103L14.9981 2.10389H15.3446C15.6533 2.10389 15.9044 1.85283 15.9044 1.54416V1.43709C17.1256 1.60327 18.2106 2.36602 18.7745 3.47081C19.0464 4.00485 19.1884 4.59548 19.1891 5.19473V21.5269H16.3339C16.4372 21.4343 16.5333 21.334 16.6215 21.2269C17.1444 20.5893 17.3519 19.7599 17.1906 18.9512L16.0655 13.3088C16.4643 13.266 16.7758 12.9276 16.7758 12.5176V11.4154C16.7758 11.0733 16.5586 10.7819 16.2551 10.6695L17.0591 8.23092C17.0765 8.17811 17.0811 8.12192 17.0726 8.06697C17.0641 8.01202 17.0426 7.95988 17.01 7.91482C16.9774 7.86977 16.9346 7.83308 16.8851 7.80778C16.8356 7.78249 16.7808 7.7693 16.7252 7.7693H6.78415C6.72854 7.7693 6.67373 7.78249 6.62421 7.80778C6.57469 7.83308 6.53188 7.86977 6.49929 7.91482C6.4667 7.95988 6.44526 8.01202 6.43674 8.06697C6.42822 8.12192 6.43285 8.17811 6.45026 8.23092L7.25421 10.6695C7.05973 10.7418 6.90097 10.8868 6.81152 11.074H5.60201C5.48475 11.0737 5.36859 11.0966 5.26026 11.1415C5.15193 11.1864 5.05357 11.2523 4.97088 11.3354L2.52476 13.7815C2.17681 14.1295 2.17681 14.6957 2.52476 15.0438C2.60745 15.1269 2.70581 15.1928 2.81414 15.2377C2.92247 15.2826 3.03863 15.3055 3.15588 15.3052C3.27314 15.3055 3.38929 15.2825 3.49762 15.2377C3.60595 15.1928 3.70431 15.1269 3.78701 15.0438L5.97167 12.8591H6.81152C6.92796 13.1029 7.16402 13.2787 7.44382 13.3088L7.20181 14.5225C7.18417 14.6137 7.20333 14.7082 7.25512 14.7853C7.30691 14.8624 7.38711 14.9159 7.4782 14.934C7.5693 14.9522 7.66388 14.9336 7.74129 14.8822C7.8187 14.8309 7.87264 14.751 7.89134 14.66L8.15979 13.3136H15.3494L16.501 19.0888C16.621 19.6901 16.4667 20.3069 16.0778 20.781C15.6889 21.2551 15.1142 21.527 14.501 21.527H9.00818C8.39501 21.527 7.82032 21.2551 7.43145 20.781C7.04257 20.307 6.88831 19.6902 7.00821 19.0888L7.62546 15.9934C7.63489 15.9479 7.63522 15.9011 7.62646 15.8555C7.61769 15.81 7.59999 15.7666 7.57438 15.7279C7.54877 15.6892 7.51576 15.656 7.47724 15.6301C7.43873 15.6043 7.39547 15.5863 7.34997 15.5772C7.30447 15.5681 7.25762 15.5681 7.21213 15.5773C7.16664 15.5864 7.12341 15.6044 7.08492 15.6303C7.04643 15.6562 7.01345 15.6895 6.98788 15.7282C6.96231 15.7669 6.94465 15.8103 6.93593 15.8559L6.31868 18.9513C6.15743 19.76 6.36485 20.5894 6.88784 21.227C6.976 21.3341 7.0721 21.4344 7.17532 21.527H5.22162C4.87015 21.527 4.58421 21.813 4.58421 22.1645V23.3626C4.58421 23.7141 4.87015 24.0001 5.22162 24.0001H17.0891C17.2833 24.0001 17.4407 23.8427 17.4407 23.6485C17.4407 23.4543 17.2833 23.297 17.0891 23.297H5.28729V22.2302H21.0331V23.2969H18.4484C18.2542 23.2969 18.0969 23.4542 18.0969 23.6484C18.0969 23.8426 18.2542 24 18.4484 24H21.0988C21.4503 24 21.7362 23.714 21.7362 23.3625V22.1644C21.7362 21.813 21.4503 21.527 21.0988 21.527ZM12.4527 5.54986H11.0565L9.30045 2.10394H14.2088L12.4527 5.54986ZM16.2391 8.47247L15.5312 10.6196H7.97806L7.2702 8.47247H16.2391ZM5.82602 12.156C5.73279 12.156 5.64338 12.193 5.57745 12.2589L3.28981 14.5466C3.25399 14.5824 3.20646 14.6021 3.15584 14.6021C3.10521 14.6021 3.05768 14.5824 3.02192 14.5466C2.98644 14.5111 2.96651 14.4629 2.96651 14.4127C2.96651 14.3625 2.98644 14.3143 3.02192 14.2787L5.46804 11.8326C5.48558 11.815 5.50645 11.801 5.52944 11.7914C5.55243 11.7819 5.57708 11.777 5.60196 11.7771H6.73348V12.156H5.82602V12.156ZM7.4366 11.4154C7.4366 11.3643 7.47823 11.3227 7.52937 11.3227H15.98C16.0311 11.3227 16.0728 11.3643 16.0728 11.4154V12.5177C16.0727 12.5423 16.063 12.5659 16.0456 12.5833C16.0282 12.6007 16.0046 12.6104 15.98 12.6105H7.52937C7.50478 12.6104 7.4812 12.6006 7.46381 12.5832C7.44643 12.5659 7.43664 12.5423 7.4366 12.5177V11.4154Z" fill="black"/>
<path d="M11.0503 12.3184H12.4591C12.6533 12.3184 12.8107 12.161 12.8107 11.9668C12.8107 11.7726 12.6533 11.6152 12.4591 11.6152H11.0503C10.8561 11.6152 10.6987 11.7726 10.6987 11.9668C10.6987 12.161 10.8561 12.3184 11.0503 12.3184Z" fill="black"/>
</g>
<defs>
<clipPath id="clip0_268_2909">
<rect width="24" height="24" fill="white"/>
</clipPath>
</defs>
</svg>
