<svg width="24" height="24" viewBox="0 0 24 24" fill="none" xmlns="http://www.w3.org/2000/svg">
<path d="M15.5481 15.2986C15.5834 15.3328 15.6117 15.3737 15.6313 15.4189C15.6509 15.464 15.6614 15.5126 15.6622 15.5619C15.663 15.6111 15.6541 15.66 15.636 15.7058C15.6179 15.7516 15.591 15.7934 15.5567 15.8288C15.5225 15.8642 15.4816 15.8925 15.4364 15.912C15.3912 15.9316 15.3426 15.9421 15.2934 15.9429C15.2441 15.9437 15.1952 15.9348 15.1494 15.9167C15.1036 15.8986 15.0619 15.8717 15.0265 15.8374C14.2108 15.0592 13.1267 14.625 11.9992 14.625C10.8718 14.625 9.78773 15.0592 8.97201 15.8374C8.93662 15.8717 8.89484 15.8986 8.84905 15.9167C8.80325 15.9348 8.75434 15.9437 8.7051 15.9429C8.65586 15.9421 8.60727 15.9316 8.56209 15.912C8.51691 15.8925 8.47603 15.8642 8.44178 15.8288C8.40753 15.7934 8.38059 15.7516 8.36249 15.7058C8.34439 15.66 8.33549 15.6111 8.33629 15.5619C8.33709 15.5126 8.34759 15.464 8.36717 15.4189C8.38676 15.3737 8.41505 15.3328 8.45043 15.2986C9.40601 14.3849 10.6772 13.875 11.9992 13.875C13.3213 13.875 14.5925 14.3849 15.5481 15.2986ZM11.9992 9.375C9.48073 9.36499 7.06043 10.3513 5.26622 12.1187C5.23112 12.1532 5.20315 12.1943 5.18394 12.2397C5.16472 12.285 5.15462 12.3337 5.15421 12.383C5.15381 12.4322 5.16311 12.481 5.18158 12.5267C5.20005 12.5723 5.22734 12.6139 5.26187 12.649C5.33162 12.7199 5.42668 12.7602 5.52613 12.761C5.57538 12.7614 5.62422 12.7521 5.66987 12.7337C5.71552 12.7152 5.75709 12.6879 5.79219 12.6534C7.45171 11.0324 9.67946 10.125 11.9992 10.125C14.319 10.125 16.5468 11.0324 18.2063 12.6534C18.2773 12.7227 18.3728 12.7612 18.4721 12.7602C18.5713 12.7592 18.6661 12.7189 18.7358 12.6482C18.8054 12.5774 18.8441 12.482 18.8434 12.3827C18.8428 12.2835 18.8028 12.1885 18.7323 12.1187C16.938 10.3513 14.5177 9.36499 11.9992 9.375ZM21.9125 8.93747C19.2697 6.33421 15.7089 4.875 11.9992 4.875C8.2896 4.875 4.72882 6.33421 2.086 8.93747C2.05084 8.97207 2.02284 9.01326 2.00362 9.0587C1.98441 9.10413 1.97434 9.15291 1.97401 9.20224C1.97367 9.25157 1.98307 9.30048 2.00167 9.34617C2.02027 9.39186 2.0477 9.43343 2.0824 9.4685C2.11709 9.50358 2.15836 9.53146 2.20385 9.55055C2.24933 9.56965 2.29814 9.57958 2.34747 9.57978C2.3968 9.57998 2.44568 9.57045 2.49132 9.55173C2.53696 9.533 2.57846 9.50546 2.61344 9.47067C5.11585 7.00631 8.4871 5.625 11.9992 5.625C15.5114 5.625 18.8826 7.00631 21.385 9.47067C21.42 9.50546 21.4615 9.533 21.5072 9.55173C21.5528 9.57045 21.6017 9.57998 21.651 9.57978C21.7003 9.57958 21.7492 9.56965 21.7946 9.55055C21.8401 9.53146 21.8814 9.50358 21.9161 9.4685C21.9508 9.43343 21.9782 9.39186 21.9968 9.34617C22.0154 9.30048 22.0248 9.25157 22.0245 9.20224C22.0241 9.15291 22.0141 9.10413 21.9949 9.0587C21.9756 9.01326 21.9476 8.97207 21.9125 8.93747ZM12 17.9997C11.8516 17.9997 11.7066 18.0437 11.5833 18.1261C11.46 18.2085 11.3638 18.3257 11.3071 18.4627C11.2503 18.5998 11.2354 18.7506 11.2644 18.896C11.2933 19.0415 11.3648 19.1752 11.4696 19.2801C11.5745 19.3849 11.7082 19.4564 11.8537 19.4853C11.9991 19.5143 12.1499 19.4994 12.287 19.4426C12.424 19.3859 12.5412 19.2897 12.6236 19.1664C12.706 19.0431 12.75 18.8981 12.75 18.7497C12.7497 18.5509 12.6707 18.3603 12.5301 18.2196C12.3894 18.079 12.1988 18 12 17.9997Z" fill="black"/>
</svg>
