<svg width="24" height="24" viewBox="0 0 24 24" fill="none" xmlns="http://www.w3.org/2000/svg">
<path fill-rule="evenodd" clip-rule="evenodd" d="M17.5 3H16.5V4H17V5V9.5C17 10.6633 16.3233 11.8266 15.7572 12.5964C15.35 13.15 15 13.5 15 13.5C15.3933 13.5 15.7602 13.6135 16.0695 13.8097C16.3423 13.9826 16.5703 14.2198 16.7324 14.5H17H17.5V13.5H20V14.5H18C19.6568 14.5 21 15.8431 21 17.5V18.5H20H19.5H18.5V17.5C18.5 17.2238 18.2761 17 18 17H17V17.2507V19C17 19.7403 16.5978 20.3866 16 20.7324V22H15V21H5V22H4V20.7324C3.4022 20.3866 3 19.7403 3 19V17.2508V16V15.5C3 14.7888 3.37123 14.1643 3.9305 13.8097C4.23981 13.6135 4.60664 13.5 5 13.5C5 13.5 4.64999 13.15 4.2428 12.5964C3.67666 11.8266 3 10.6633 3 9.5V5V4H3.5V3H2.5V2H17.5V3ZM16 16V16.6733C14.7778 17.2719 13.5555 17.048 12.3333 16C12.0555 16.2381 11.7778 16.4336 11.5 16.5867V14.5H12.5V11.5H11.5V14.5H10.5V11.5H9.5V14.5H8.5V11.5H7.5V14.5H8.5V16.5867C8.2222 16.4336 7.94445 16.2381 7.66665 16C6.44445 17.0476 5.2222 17.2721 4 16.6734V15.5C4 14.9477 4.44771 14.5 5 14.5H7.4142L6.5 13.5858V11.5H5.5V12.5669C5.48305 12.5475 5.46525 12.527 5.44675 12.5054C5.2786 12.3093 5.0546 12.0291 4.83205 11.6953C4.36525 10.9951 4 10.1994 4 9.5V9H16V9.5C16 10.1994 15.6347 10.9951 15.1679 11.6953C14.9454 12.0291 14.7214 12.3093 14.5532 12.5054C14.5347 12.527 14.5169 12.5475 14.5 12.5669V11.5H13.5V13.5858L12.5858 14.5H15C15.5523 14.5 16 14.9477 16 15.5V16ZM9.5 14.5H10.5V16.9541C10.1666 17.0153 9.83335 17.0153 9.5 16.9541V14.5ZM19.5 17.5C19.5 16.6715 18.8284 16 18 16H17V15.5H18C19.1045 15.5 20 16.3954 20 17.5H19.5ZM4 17.7593V19C4 19.5523 4.44771 20 5 20H15C15.5523 20 16 19.5523 16 19V17.7591C15.5714 17.9154 15.1266 17.9999 14.6668 18C13.8377 18.0001 13.0575 17.7258 12.3332 17.2509C11.6091 17.7256 10.829 18 10 18C9.171 18 8.39085 17.7256 7.66665 17.2508C6.94245 17.7256 6.16235 18 5.33335 18C4.87344 18 4.4286 17.9155 4 17.7593ZM4.5 3H15.5V4H4.5V3ZM16 8H4V5H16V8ZM19.75 21.5C20.1642 21.5 20.5 21.093 20.5 20.5909C20.5 19.7954 19.75 19 19.75 19C19.75 19 19 19.7954 19 20.5909C19 21.093 19.3358 21.5 19.75 21.5Z" fill="#333333"/>
</svg>
