<svg width="24" height="24" viewBox="0 0 24 24" fill="none" xmlns="http://www.w3.org/2000/svg">
<path d="M18.4 4.0004H5.6C4.13 4.0004 2.7044 5.3624 1.5856 7.8356C0.5924 10.03 0 12.7836 0 15.2004C0 16.2468 0.0848 17.198 0.252 18.0264C0.4792 19.17 1.4988 20.0004 2.6764 20.0004C3.13666 20.0011 3.58783 19.8723 3.9784 19.6288C4.3725 19.3869 4.6891 19.0373 4.8908 18.6212C4.9676 18.4652 5.0516 18.29 5.1416 18.1024C5.5404 17.2704 6.0644 16.1764 6.5904 15.5128C7.1832 16.0851 7.976 16.4035 8.8 16.4C9.9624 16.4 11.002 15.7932 11.5704 14.8H12.4296C12.998 15.7932 14.0376 16.4 15.2 16.4C16.024 16.4036 16.8169 16.0853 17.4096 15.5128C17.9356 16.176 18.4596 17.2704 18.8584 18.1024C18.9484 18.29 19.0324 18.4652 19.1088 18.6208C19.3108 19.0358 19.6258 19.3853 20.0176 19.6293C20.4094 19.8733 20.8621 20.0018 21.3236 20C21.8921 20.0002 22.4435 19.8054 22.8856 19.448C23.3312 19.0905 23.6365 18.5872 23.7476 18.0268C23.9148 17.1976 23.9996 16.2464 23.9996 15.2C23.9996 12.7832 23.4072 10.0296 22.414 7.8352C21.2952 5.362 19.8696 4 18.3996 4L18.4 4.0004ZM22.9632 17.8708C22.8903 18.2482 22.6847 18.587 22.3836 18.826C22.0837 19.0685 21.7097 19.2008 21.324 19.2008C21.012 19.2019 20.7059 19.115 20.4411 18.95C20.1762 18.785 19.9633 18.5486 19.8268 18.268C19.7512 18.1144 19.6684 17.9424 19.5804 17.758C19.0848 16.7228 18.4056 15.3052 17.682 14.6256C17.6078 14.5559 17.5098 14.5172 17.408 14.5172C17.3976 14.5172 17.3864 14.5172 17.376 14.5184C17.2636 14.5276 17.16 14.584 17.0908 14.6736C16.8686 14.9637 16.5823 15.1984 16.2543 15.3593C15.9262 15.5203 15.5654 15.6031 15.2 15.6012C14.7455 15.6039 14.2998 15.4762 13.9158 15.2331C13.5318 14.9901 13.2256 14.6419 13.0336 14.23C13.0012 14.1615 12.95 14.1037 12.886 14.0632C12.822 14.0227 12.7478 14.0012 12.672 14.0012H11.3284C11.2526 14.0012 11.1784 14.0227 11.1144 14.0632C11.0504 14.1037 10.9992 14.1615 10.9668 14.23C10.7747 14.6419 10.4685 14.99 10.0845 15.233C9.70051 15.4761 9.25484 15.6038 8.8004 15.6012C8.43503 15.6029 8.07422 15.5201 7.7462 15.3592C7.41818 15.1983 7.13184 14.9636 6.9096 14.6736C6.8754 14.6294 6.83239 14.5928 6.7833 14.5661C6.7342 14.5393 6.68009 14.5231 6.6244 14.5184C6.56873 14.5142 6.51279 14.5216 6.46011 14.5401C6.40744 14.5586 6.35919 14.5879 6.3184 14.626C5.5944 15.3056 4.9156 16.7232 4.42 17.7584C4.3316 17.9428 4.2492 18.1152 4.172 18.2716C4.03559 18.5519 3.82185 18.7873 3.556 18.95C3.29218 19.1146 2.98736 19.2017 2.6764 19.2012C1.8796 19.2012 1.19 18.642 1.0364 17.8704C0.8792 17.0928 0.8 16.1948 0.8 15.2012C0.8 9.6976 3.4844 4.8012 5.6 4.8012H18.4C20.5156 4.8012 23.2 9.6976 23.2 15.2012C23.2 16.1944 23.1208 17.0928 22.9632 17.8716V17.8708Z" fill="black"/>
<path d="M8.8001 11.5996C7.9177 11.5996 7.2001 12.3172 7.2001 13.1996C7.2001 14.082 7.9177 14.7996 8.8001 14.7996C9.6825 14.7996 10.4001 14.082 10.4001 13.1996C10.4001 12.3172 9.6825 11.5996 8.8001 11.5996ZM8.8001 13.9996C8.3589 13.9996 8.0001 13.6408 8.0001 13.1996C8.0001 12.7584 8.3589 12.3996 8.8001 12.3996C9.2413 12.3996 9.6001 12.7584 9.6001 13.1996C9.6001 13.6408 9.2413 13.9996 8.8001 13.9996ZM15.2001 11.5996C14.3177 11.5996 13.6001 12.3172 13.6001 13.1996C13.6001 14.082 14.3177 14.7996 15.2001 14.7996C16.0825 14.7996 16.8001 14.082 16.8001 13.1996C16.8001 12.3172 16.0825 11.5996 15.2001 11.5996ZM15.2001 13.9996C14.7589 13.9996 14.4001 13.6408 14.4001 13.1996C14.4001 12.7584 14.7589 12.3996 15.2001 12.3996C15.6413 12.3996 16.0001 12.7584 16.0001 13.1996C16.0001 13.6408 15.6413 13.9996 15.2001 13.9996ZM7.2001 9.59961H7.6001C8.0413 9.59961 8.4001 9.24081 8.4001 8.79961V7.99961C8.4001 7.55841 8.0413 7.19961 7.6001 7.19961H7.2001V6.79961C7.2001 6.35841 6.8413 5.99961 6.4001 5.99961H5.6001C5.1589 5.99961 4.8001 6.35841 4.8001 6.79961V7.19961H4.4001C3.9589 7.19961 3.6001 7.55841 3.6001 7.99961V8.79961C3.6001 9.24081 3.9589 9.59961 4.4001 9.59961H4.8001V9.99961C4.8001 10.4408 5.1589 10.7996 5.6001 10.7996H6.4001C6.8413 10.7996 7.2001 10.4408 7.2001 9.99961V9.59961ZM6.8001 8.79961C6.69401 8.79961 6.59227 8.84175 6.51725 8.91677C6.44224 8.99178 6.4001 9.09352 6.4001 9.19961V9.99961H5.6001V9.19961C5.6001 9.09352 5.55795 8.99178 5.48294 8.91677C5.40793 8.84175 5.30618 8.79961 5.2001 8.79961H4.4001V7.99961H5.2001C5.30618 7.99961 5.40793 7.95747 5.48294 7.88245C5.55795 7.80744 5.6001 7.7057 5.6001 7.59961V6.79961H6.4001V7.59961C6.4001 7.7057 6.44224 7.80744 6.51725 7.88245C6.59227 7.95747 6.69401 7.99961 6.8001 7.99961L7.6001 7.99881V8.79961H6.8001ZM18.7961 6.80441C18.69 6.80441 18.5883 6.84655 18.5133 6.92157C18.4382 6.99658 18.3961 7.09832 18.3961 7.20441C18.3961 7.3105 18.4382 7.41224 18.5133 7.48725C18.5883 7.56227 18.69 7.60441 18.7961 7.60441H18.7997C19.0209 7.60441 19.1981 7.42561 19.1981 7.20441C19.1981 6.98321 19.0173 6.80441 18.7961 6.80441ZM18.7961 9.19961C18.69 9.19961 18.5883 9.24175 18.5133 9.31677C18.4382 9.39178 18.3961 9.49352 18.3961 9.59961C18.3961 9.7057 18.4382 9.80744 18.5133 9.88245C18.5883 9.95747 18.69 9.99961 18.7961 9.99961H18.7997C19.0209 9.99961 19.1981 9.82081 19.1981 9.59961C19.1981 9.37841 19.0173 9.19961 18.7961 9.19961ZM17.6001 8.00161C17.4959 8.0049 17.3971 8.04859 17.3246 8.12343C17.2521 8.19828 17.2116 8.2984 17.2116 8.40261C17.2116 8.50682 17.2521 8.60694 17.3246 8.68179C17.3971 8.75663 17.4959 8.80032 17.6001 8.80361C17.7062 8.80361 17.8079 8.76147 17.8829 8.68645C17.958 8.61144 18.0001 8.5097 18.0001 8.40361V8.40001C18.0001 8.34756 17.9897 8.29562 17.9696 8.24718C17.9495 8.19874 17.92 8.15475 17.8828 8.11773C17.8457 8.08072 17.8016 8.0514 17.7531 8.03148C17.7045 8.01155 17.6526 8.0014 17.6001 8.00161ZM19.5953 8.40361C19.5953 8.5097 19.6374 8.61144 19.7125 8.68645C19.7875 8.76147 19.8892 8.80361 19.9953 8.80361C20.1014 8.80361 20.2031 8.76147 20.2781 8.68645C20.3532 8.61144 20.3953 8.5097 20.3953 8.40361V8.40001C20.3953 8.17881 20.2165 8.00161 19.9953 8.00161C19.7741 8.00161 19.5953 8.18241 19.5953 8.40361ZM13.2001 5.59961H10.8001C10.694 5.59961 10.5923 5.64175 10.5173 5.71677C10.4422 5.79178 10.4001 5.89352 10.4001 5.99961C10.4001 6.1057 10.4422 6.20744 10.5173 6.28245C10.5923 6.35747 10.694 6.39961 10.8001 6.39961H13.2001C13.3062 6.39961 13.4079 6.35747 13.4829 6.28245C13.558 6.20744 13.6001 6.1057 13.6001 5.99961C13.6001 5.89352 13.558 5.79178 13.4829 5.71677C13.4079 5.64175 13.3062 5.59961 13.2001 5.59961ZM12.4001 9.59961H11.6001C11.494 9.59961 11.3923 9.64175 11.3173 9.71677C11.2422 9.79178 11.2001 9.89352 11.2001 9.99961C11.2001 10.1057 11.2422 10.2074 11.3173 10.2825C11.3923 10.3575 11.494 10.3996 11.6001 10.3996H12.4001C12.5062 10.3996 12.6079 10.3575 12.6829 10.2825C12.758 10.2074 12.8001 10.1057 12.8001 9.99961C12.8001 9.89352 12.758 9.79178 12.6829 9.71677C12.6079 9.64175 12.5062 9.59961 12.4001 9.59961ZM12.4001 11.1996H11.6001C11.494 11.1996 11.3923 11.2418 11.3173 11.3168C11.2422 11.3918 11.2001 11.4935 11.2001 11.5996C11.2001 11.7057 11.2422 11.8074 11.3173 11.8825C11.3923 11.9575 11.494 11.9996 11.6001 11.9996H12.4001C12.5062 11.9996 12.6079 11.9575 12.6829 11.8825C12.758 11.8074 12.8001 11.7057 12.8001 11.5996C12.8001 11.4935 12.758 11.3918 12.6829 11.3168C12.6079 11.2418 12.5062 11.1996 12.4001 11.1996Z" fill="black"/>
</svg>
