<svg width="24" height="24" viewBox="0 0 24 24" fill="none" xmlns="http://www.w3.org/2000/svg">
<g clip-path="url(#clip0_266_2222)">
<path d="M10.518 13.457C10.3413 12.2222 9.27934 11.2729 7.99567 11.2729C7.67031 11.2725 7.34789 11.3346 7.04594 11.4558C6.9325 11.5014 6.80317 11.4546 6.74805 11.3455C6.50823 10.8706 6.0159 10.5449 5.44755 10.5449C4.81919 10.5449 4.28378 10.9429 4.07973 11.5007C4.0427 11.602 3.93836 11.6602 3.83115 11.6482C3.76351 11.6407 3.6955 11.6369 3.62744 11.6369C2.62225 11.6369 1.80737 12.4518 1.80737 13.457M16.368 3.99273C16.368 2.78645 17.3459 1.80859 18.5521 1.80859C19.7583 1.80859 20.7362 2.78645 20.7362 3.99269V13.4571" stroke="black" stroke-width="0.703125" stroke-miterlimit="10" stroke-linecap="round" stroke-linejoin="round"/>
<path d="M22.1923 8.41345V3.99169C22.1923 1.98131 20.5625 0.351609 18.5522 0.351562C16.5418 0.351562 14.9121 1.98131 14.9121 3.99169M22.1923 13.456L22.1923 10.101M4.71408 21.0342L2.74477 23.3973C2.67927 23.4759 2.5973 23.5391 2.50466 23.5825C2.41201 23.6259 2.31096 23.6484 2.20866 23.6484C1.68989 23.6484 1.35244 23.1025 1.58447 22.6385L3.01674 19.7739M19.2857 21.0342L21.2551 23.3973C21.3205 23.4759 21.4025 23.5391 21.4952 23.5825C21.5878 23.6259 21.6889 23.6484 21.7912 23.6484C22.3099 23.6484 22.6474 23.1025 22.4153 22.6385L20.9831 19.7739" stroke="black" stroke-width="0.703125" stroke-miterlimit="10" stroke-linecap="round" stroke-linejoin="round"/>
<path d="M1.80759 15.6401V16.5425C1.80759 19.2608 4.01119 21.4643 6.72947 21.4643H17.2705C19.9888 21.4643 22.1924 19.2608 22.1924 16.5425V15.6401M4.03739 15.6401H1.52344C0.876234 15.6401 0.351562 15.1155 0.351562 14.4683V14.1592C0.351562 13.7708 0.666375 13.456 1.05469 13.456H22.9453C23.3336 13.456 23.6484 13.7708 23.6484 14.1592V14.4683C23.6484 15.1155 23.1238 15.6401 22.4766 15.6401H5.67802M18.5522 6.17578V5.53852C18.5522 4.68422 17.8597 3.99173 17.0055 3.99173H14.2748C13.4205 3.99173 12.7281 4.68427 12.7281 5.53852V6.17578M15.8508 6.17578H19.2803M12 6.17578H14.2102M18.5522 1.80759V0.351562M17.0078 2.4473L15.9783 1.41773M20.0967 2.4473L21.1262 1.41773M20.7363 3.99169H22.1924M13.456 7.63181V8.35987M16.3682 7.63181V8.35987M17.8242 8.35987V9.08789M13.456 10.544V11.272M14.9121 8.35987V9.08789M16.3682 9.81591V10.3633" stroke="black" stroke-width="0.703125" stroke-miterlimit="10" stroke-linecap="round" stroke-linejoin="round"/>
<path d="M20.7358 10.9467C20.4206 10.7221 20.0413 10.5796 19.6275 10.5491C18.6604 10.4778 17.8144 11.0367 17.4577 11.8574C17.4039 11.9813 17.2584 12.0326 17.1371 11.9733C16.9038 11.8593 16.6376 11.8023 16.3567 11.8203C15.5906 11.8694 14.9682 12.4886 14.9154 13.2544C14.9108 13.3212 14.9104 13.3882 14.9142 13.4551" stroke="black" stroke-width="0.703125" stroke-miterlimit="10" stroke-linecap="round" stroke-linejoin="round"/>
</g>
<defs>
<clipPath id="clip0_266_2222">
<rect width="24" height="24" fill="white"/>
</clipPath>
</defs>
</svg>
