<svg width="24" height="24" viewBox="0 0 24 24" fill="none" xmlns="http://www.w3.org/2000/svg">
<g clip-path="url(#clip0_266_2391)">
<path d="M13.1285 6.63681C13.3272 6.22806 13.4585 5.78931 13.511 5.33556L13.5672 4.87431C13.6235 4.43931 13.6235 3.99681 13.5185 3.57306C13.0872 1.73181 11.4185 0.978056 11.4185 0.978056C8.0285 -0.503194 7.43975 1.54056 7.43975 1.54056C6.2585 1.19181 5.36975 2.28306 5.141 3.75681C4.9835 4.76931 5.33225 5.84931 5.831 6.74931" stroke="black" stroke-width="0.375" stroke-miterlimit="10" stroke-linecap="round" stroke-linejoin="round"/>
<path d="M5.83521 6.74586C6.12771 5.87586 6.97896 5.06211 7.91271 4.06836C7.91271 4.06836 9.04895 4.84086 10.3352 5.11836C11.6965 5.49711 13.2265 5.06586 13.129 6.63711" stroke="black" stroke-width="0.375" stroke-miterlimit="10" stroke-linecap="round" stroke-linejoin="round"/>
<path d="M13.1286 6.63672C13.1286 6.63672 13.4361 10.3605 9.9823 11.9092C9.49855 12.1267 8.93605 12.123 8.46355 11.8792C5.4448 10.323 5.8348 6.74922 5.8348 6.74922" stroke="black" stroke-width="0.375" stroke-miterlimit="10" stroke-linecap="round" stroke-linejoin="round"/>
<path d="M5.73389 6.57416C5.73389 6.57416 4.86764 6.01916 4.77389 6.90416C4.73639 7.25291 4.84514 7.60541 5.06264 7.87916C5.28764 8.16416 5.60264 8.38916 5.97764 8.57666M13.1589 6.57416C13.1589 6.57416 14.0251 6.01916 14.1189 6.90416C14.1564 7.25291 14.0476 7.60541 13.8301 7.87916C13.6051 8.16416 13.2601 8.39666 12.8851 8.58416M9.25139 15.5367L6.90014 12.3904M6.90014 12.3904L7.13639 10.8642M6.90014 12.3904L6.12389 12.9417L6.64139 15.0904M11.5726 10.8642L11.8051 12.3904M11.8051 12.3904L9.45764 15.5367M11.8051 12.3904L12.5889 12.9417L12.0864 15.0192" stroke="black" stroke-width="0.375" stroke-miterlimit="10" stroke-linecap="round" stroke-linejoin="round"/>
<path d="M14.4377 21.3377C12.7314 21.4802 11.0402 21.5477 9.35641 21.5514C6.36391 21.5589 3.40141 21.3452 0.472661 20.9102C-0.326089 17.1227 0.603911 15.0114 2.57641 13.9127C3.35641 13.4777 4.30516 13.1964 5.37391 13.0389V13.0352C5.61766 12.9977 5.86891 12.9677 6.12391 12.9414M12.5889 12.9414C12.8439 12.9677 13.0952 12.9977 13.3389 13.0352V13.0389C14.4302 13.2002 15.3977 13.4889 16.1889 13.9464C17.2202 14.5352 17.9589 15.4089 18.3039 16.6614" stroke="black" stroke-width="0.375" stroke-miterlimit="10" stroke-linecap="round" stroke-linejoin="round"/>
<path d="M8.64343 15.7759L7.11718 15.0146C6.84343 14.8796 6.52093 15.0671 6.50968 15.3709L6.44218 16.8784C6.43093 17.1634 6.69718 17.3771 6.97093 17.3021L8.64343 16.8559M10.1809 15.7759L11.7072 15.0146C11.9809 14.8796 12.3034 15.0671 12.3147 15.3709L12.3822 16.8784C12.3934 17.1634 12.1272 17.3771 11.8534 17.3021L10.1809 16.8559M2.57593 13.9121V21.1646M8.64343 15.5359H10.1772V17.0771H8.64343V15.5359Z" stroke="black" stroke-width="0.375" stroke-miterlimit="10" stroke-linecap="round" stroke-linejoin="round"/>
<path d="M5.37378 13.0352L5.65503 15.4839C5.83878 17.0964 6.43128 18.6489 7.45503 19.9089C7.95378 20.5239 8.58378 21.1164 9.35628 21.5552" stroke="black" stroke-width="0.375" stroke-miterlimit="10" stroke-linecap="round" stroke-linejoin="round"/>
<path d="M13.3348 13.0352L13.0535 15.4839C12.8698 17.0964 12.2773 18.6489 11.2535 19.9089C10.7548 20.5239 10.1248 21.1164 9.35229 21.5552M16.1848 18.9452V13.9464M22.7285 22.3352C22.7285 20.2427 21.101 18.5177 19.001 18.2852C18.8435 18.2702 18.686 18.2589 18.521 18.2589C18.356 18.2589 18.1985 18.2702 18.041 18.2852C17.3585 18.3602 16.7285 18.5964 16.1885 18.9452C15.3298 19.5002 14.6998 20.3477 14.4373 21.3377C14.3548 21.6564 14.3135 21.9902 14.3135 22.3352M19.0048 17.4527V18.2889M18.041 18.2889V17.4527M23.2273 23.5539H13.8148C13.4923 23.5539 13.2298 23.2914 13.2298 22.9689C13.2298 22.6464 13.4923 22.3839 13.8148 22.3839H23.2273C23.5498 22.3839 23.8123 22.6464 23.8123 22.9689C23.8123 23.2952 23.5498 23.5539 23.2273 23.5539ZM19.3348 17.4527H17.7073C17.4898 17.4527 17.3098 17.2764 17.3098 17.0552C17.3098 16.8377 17.486 16.6577 17.7073 16.6577H19.3348C19.5523 16.6577 19.7323 16.8339 19.7323 17.0552C19.7323 17.2764 19.556 17.4527 19.3348 17.4527Z" stroke="black" stroke-width="0.375" stroke-miterlimit="10" stroke-linecap="round" stroke-linejoin="round"/>
</g>
<defs>
<clipPath id="clip0_266_2391">
<rect width="24" height="24" fill="white"/>
</clipPath>
</defs>
</svg>
