<svg width="24" height="24" viewBox="0 0 24 24" fill="none" xmlns="http://www.w3.org/2000/svg">
<path d="M20.4319 22.5351H3.56806C3.47894 22.5351 3.39348 22.4997 3.33047 22.4367C3.26746 22.3737 3.23206 22.2882 3.23206 22.1991V14.0391C3.23206 13.95 3.26746 13.8645 3.33047 13.8015C3.39348 13.7385 3.47894 13.7031 3.56806 13.7031H20.4319C20.521 13.7031 20.6065 13.7385 20.6695 13.8015C20.7325 13.8645 20.7679 13.95 20.7679 14.0391V22.1991C20.7679 22.2882 20.7325 22.3737 20.6695 22.4367C20.6065 22.4997 20.521 22.5351 20.4319 22.5351ZM3.90406 21.8631H20.0959V14.3751H3.90406V21.8631Z" fill="black"/>
<path d="M22.2 14.3761H1.79999C1.71088 14.3761 1.62541 14.3407 1.5624 14.2776C1.49939 14.2146 1.46399 14.1292 1.46399 14.0401V12.0001C1.46399 11.9109 1.49939 11.8255 1.5624 11.7625C1.62541 11.6995 1.71088 11.6641 1.79999 11.6641H22.2C22.2891 11.6641 22.3746 11.6995 22.4376 11.7625C22.5006 11.8255 22.536 11.9109 22.536 12.0001V14.0401C22.536 14.1292 22.5006 14.2146 22.4376 14.2776C22.3746 14.3407 22.2891 14.3761 22.2 14.3761ZM2.13599 13.7041H21.864V12.3361H2.13599V13.7041ZM12 21.176C11.3956 21.176 10.8048 20.9968 10.3022 20.661C9.79967 20.3252 9.40798 19.8479 9.17669 19.2895C8.94539 18.7311 8.88487 18.1167 9.00279 17.5239C9.1207 16.9311 9.41175 16.3866 9.83913 15.9592C10.2665 15.5318 10.811 15.2408 11.4038 15.1229C11.9966 15.0049 12.611 15.0655 13.1694 15.2968C13.7278 15.5281 14.2051 15.9197 14.5409 16.4223C14.8767 16.9248 15.0559 17.5157 15.0559 18.1201C15.055 18.9303 14.7328 19.707 14.1599 20.2799C13.587 20.8528 12.8102 21.1751 12 21.176ZM12 15.7361C11.5285 15.7361 11.0676 15.876 10.6756 16.1379C10.2835 16.3999 9.97797 16.7722 9.79753 17.2078C9.6171 17.6434 9.56989 18.1227 9.66188 18.5851C9.75386 19.0476 9.98091 19.4724 10.3143 19.8057C10.6477 20.1391 11.0725 20.3662 11.5349 20.4582C11.9973 20.5502 12.4767 20.503 12.9123 20.3225C13.3479 20.1421 13.7202 19.8365 13.9821 19.4445C14.2441 19.0525 14.3839 18.5916 14.3839 18.1201C14.3832 17.488 14.1318 16.8821 13.6849 16.4351C13.238 15.9882 12.632 15.7368 12 15.7361Z" fill="black"/>
<path d="M16.3996 7.48749C15.7971 7.48672 15.2194 7.24698 14.7934 6.82086C14.3673 6.39473 14.1277 5.81701 14.1271 5.21445V4.03485C14.1271 3.98578 14.1378 3.93731 14.1585 3.89283C14.1793 3.84836 14.2095 3.80897 14.2471 3.77742C14.2846 3.74588 14.3287 3.72295 14.3761 3.71024C14.4235 3.69754 14.4731 3.69537 14.5214 3.70389C15.0494 3.79677 15.418 3.51525 15.8786 2.99757C15.9101 2.96211 15.9488 2.93373 15.992 2.91428C16.0353 2.89484 16.0822 2.88478 16.1296 2.88477H16.134C16.1822 2.88547 16.2297 2.89656 16.2733 2.91726C16.3168 2.93797 16.3554 2.96781 16.3864 3.00477C17.218 3.99093 17.7928 3.90957 18.2004 3.72861C18.2514 3.70607 18.3074 3.69662 18.363 3.70112C18.4187 3.70562 18.4723 3.72391 18.5191 3.75436C18.566 3.78481 18.6044 3.82644 18.6311 3.8755C18.6578 3.92455 18.6718 3.97948 18.672 4.03533V5.21445C18.6713 5.81695 18.4317 6.3946 18.0057 6.8207C17.5797 7.24681 17.0021 7.4866 16.3996 7.48749ZM14.7991 4.39293V5.21541C14.7991 5.42563 14.8405 5.63379 14.9209 5.82801C15.0014 6.02222 15.1193 6.19869 15.2679 6.34734C15.4166 6.49599 15.5931 6.6139 15.7873 6.69435C15.9815 6.7748 16.1897 6.81621 16.3999 6.81621C16.6101 6.81621 16.8183 6.7748 17.0125 6.69435C17.2067 6.6139 17.3832 6.49599 17.5318 6.34734C17.6805 6.19869 17.7984 6.02222 17.8788 5.82801C17.9593 5.63379 18.0007 5.42563 18.0007 5.21541V4.48677C17.6738 4.54125 17.3382 4.50034 17.034 4.36893C16.7272 4.24029 16.4277 4.02525 16.1246 3.71589C15.7579 4.07805 15.3374 4.36581 14.7991 4.39293Z" fill="black"/>
<path d="M20.976 12.3359H11.824C11.7349 12.3359 11.6495 12.3005 11.5864 12.2375C11.5234 12.1745 11.488 12.089 11.488 11.9999V10.305C11.4881 9.65771 11.7073 9.02952 12.1101 8.52279C12.5128 8.01606 13.0753 7.66066 13.7059 7.51451L14.8545 7.24788C14.8978 7.23696 14.9429 7.23479 14.987 7.24148C15.0312 7.24818 15.0735 7.2636 15.1117 7.28687C15.1498 7.31013 15.1829 7.34075 15.209 7.37696C15.2352 7.41316 15.2538 7.45421 15.2639 7.49771C15.274 7.54121 15.2754 7.58629 15.2678 7.63031C15.2603 7.67432 15.2441 7.7164 15.2201 7.75408C15.1961 7.79175 15.1649 7.82427 15.1282 7.84973C15.0915 7.87519 15.0501 7.89308 15.0064 7.90235L13.8578 8.169C13.3742 8.27916 12.9426 8.55073 12.634 8.93899C12.3254 9.32725 12.1582 9.80904 12.16 10.305V11.6639H20.64V10.3045C20.6416 9.80875 20.4744 9.3272 20.1661 8.93902C19.8577 8.55083 19.4264 8.27911 18.9432 8.16851L17.7936 7.9014C17.7485 7.89355 17.7056 7.87661 17.6673 7.85159C17.6291 7.82658 17.5963 7.79402 17.5711 7.75592C17.5458 7.71781 17.5286 7.67495 17.5205 7.62997C17.5124 7.58498 17.5136 7.53882 17.5239 7.4943C17.5343 7.44977 17.5536 7.40783 17.5807 7.37104C17.6078 7.33424 17.6422 7.30337 17.6816 7.2803C17.7211 7.25723 17.7648 7.24246 17.8102 7.23688C17.8556 7.23131 17.9016 7.23505 17.9455 7.24788L19.0951 7.51475C19.7253 7.66122 20.2873 8.01663 20.6899 8.52316C21.0924 9.02969 21.3116 9.65753 21.312 10.3045V11.9999C21.312 12.089 21.2766 12.1745 21.2135 12.2375C21.1505 12.3005 21.0651 12.3359 20.976 12.3359Z" fill="black"/>
<path d="M16.4018 8.74452C15.9576 8.74452 15.5138 8.61444 15.071 8.35452C14.9382 8.27645 14.8259 8.16792 14.7432 8.0379C14.6606 7.90788 14.6101 7.76008 14.5958 7.60668C14.5879 7.52433 14.5908 7.44129 14.6047 7.35972L14.736 6.56508C14.7546 6.48139 14.8046 6.408 14.8756 6.35994C14.9466 6.31187 15.0333 6.29277 15.1179 6.30654C15.2025 6.32031 15.2787 6.36592 15.3308 6.43402C15.3829 6.50212 15.407 6.58756 15.3981 6.67284L15.2676 7.46892C15.2633 7.49341 15.2625 7.51836 15.2649 7.54308C15.2692 7.59049 15.2848 7.63618 15.3103 7.67637C15.3358 7.71657 15.3705 7.7501 15.4116 7.7742C16.0783 8.1666 16.7248 8.16684 17.3887 7.7742C17.4296 7.75025 17.4642 7.71686 17.4897 7.67683C17.5151 7.6368 17.5306 7.59127 17.5348 7.54404C17.5348 7.54404 17.5348 7.54212 17.5348 7.54116C17.5369 7.51674 17.536 7.49215 17.532 7.46796L17.4014 6.67284C17.387 6.58491 17.408 6.49484 17.46 6.42244C17.512 6.35004 17.5906 6.30125 17.6785 6.2868C17.7664 6.27236 17.8565 6.29343 17.9289 6.34539C18.0013 6.39736 18.0501 6.47595 18.0645 6.56388L18.1956 7.36092C18.2268 7.55405 18.1991 7.7521 18.116 7.92923C18.033 8.10636 17.8984 8.25432 17.73 8.3538C17.2898 8.61468 16.8458 8.74452 16.4018 8.74452ZM13.872 12.3368C13.7829 12.3368 13.6974 12.3014 13.6344 12.2384C13.5714 12.1754 13.536 12.09 13.536 12.0008V10.4836C13.536 10.3945 13.5714 10.309 13.6344 10.246C13.6974 10.183 13.7829 10.1476 13.872 10.1476C13.9611 10.1476 14.0465 10.183 14.1096 10.246C14.1726 10.309 14.208 10.3945 14.208 10.4836V12.0008C14.208 12.09 14.1726 12.1754 14.1096 12.2384C14.0465 12.3014 13.9611 12.3368 13.872 12.3368ZM18.9288 12.3368C18.8397 12.3368 18.7542 12.3014 18.6912 12.2384C18.6282 12.1754 18.5928 12.09 18.5928 12.0008V10.4836C18.5928 10.3945 18.6282 10.309 18.6912 10.246C18.7542 10.183 18.8397 10.1476 18.9288 10.1476C19.0179 10.1476 19.1033 10.183 19.1664 10.246C19.2294 10.309 19.2648 10.3945 19.2648 10.4836V12.0008C19.2648 12.09 19.2294 12.1754 19.1664 12.2384C19.1033 12.3014 19.0179 12.3368 18.9288 12.3368ZM18.336 4.8654C18.2653 4.86549 18.1965 4.84332 18.1392 4.80204C18.0819 4.76076 18.039 4.70248 18.0167 4.63547C17.9945 4.56845 17.9938 4.49612 18.015 4.42874C18.0362 4.36136 18.078 4.30236 18.1346 4.26012C18.4483 4.02588 18.6208 3.7386 18.6208 3.45132C18.6208 2.73876 17.6035 2.13684 16.3989 2.13684C15.1944 2.13684 14.177 2.73876 14.177 3.45132C14.177 3.73932 14.3498 4.02588 14.6632 4.26012C14.7346 4.31346 14.7819 4.39298 14.7947 4.48117C14.8074 4.56937 14.7846 4.65902 14.7313 4.7304C14.6779 4.80179 14.5984 4.84906 14.5102 4.86182C14.422 4.87458 14.3324 4.85178 14.261 4.79844C13.7736 4.43412 13.505 3.9558 13.505 3.45132C13.505 2.89236 13.8259 2.3778 14.4081 2.00196C14.946 1.65684 15.653 1.46484 16.3999 1.46484C17.1468 1.46484 17.854 1.65684 18.3919 2.00196C18.9741 2.3778 19.2948 2.89236 19.2948 3.45132C19.2948 3.95532 19.0264 4.43532 18.5388 4.79844C18.4803 4.84235 18.4091 4.86587 18.336 4.8654ZM6.96789 12.3368H4.79205C4.74445 12.3369 4.69739 12.3268 4.65399 12.3072C4.61059 12.2877 4.57183 12.2591 4.54029 12.2235C4.50875 12.1878 4.48514 12.1459 4.47103 12.1004C4.45692 12.055 4.45263 12.007 4.45845 11.9598L5.00253 7.52676C5.01249 7.44535 5.05188 7.37039 5.11329 7.31601C5.17469 7.26164 5.25387 7.2316 5.33589 7.23156H6.42405C6.50607 7.2316 6.58524 7.26164 6.64665 7.31601C6.70805 7.37039 6.74745 7.44535 6.75741 7.52676L7.30149 11.9598C7.3073 12.007 7.30301 12.055 7.2889 12.1004C7.27479 12.1459 7.25119 12.1878 7.21965 12.2235C7.1881 12.2591 7.14935 12.2877 7.10595 12.3072C7.06255 12.3268 7.01549 12.3369 6.96789 12.3368ZM5.17173 11.6648H6.58773L6.12669 7.90356H5.63325L5.17173 11.6648Z" fill="black"/>
<path d="M9.95999 10.6226H6.75767C6.66856 10.6226 6.58309 10.5872 6.52008 10.5242C6.45707 10.4612 6.42167 10.3757 6.42167 10.2866C6.42167 10.1975 6.45707 10.112 6.52008 10.049C6.58309 9.986 6.66856 9.9506 6.75767 9.9506H9.62399V5.18372H2.13599V9.9506H5.00231C5.09142 9.9506 5.17689 9.986 5.2399 10.049C5.30291 10.112 5.33831 10.1975 5.33831 10.2866C5.33831 10.3757 5.30291 10.4612 5.2399 10.5242C5.17689 10.5872 5.09142 10.6226 5.00231 10.6226H1.79999C1.71088 10.6226 1.62541 10.5872 1.5624 10.5242C1.49939 10.4612 1.46399 10.3757 1.46399 10.2866V4.84772C1.46399 4.75861 1.49939 4.67314 1.5624 4.61013C1.62541 4.54712 1.71088 4.51172 1.79999 4.51172H9.95999C10.0491 4.51172 10.1346 4.54712 10.1976 4.61013C10.2606 4.67314 10.296 4.75861 10.296 4.84772V10.2866C10.296 10.3757 10.2606 10.4612 10.1976 10.5242C10.1346 10.5872 10.0491 10.6226 9.95999 10.6226Z" fill="black"/>
</svg>
