<svg width="24" height="24" viewBox="0 0 24 24" fill="none" xmlns="http://www.w3.org/2000/svg">
<path d="M22.4072 22.8361L21.2372 21.3525C21.9014 21.1805 22.3931 20.5763 22.3931 19.8591C22.3931 19.0088 21.7012 18.3169 20.8509 18.3169H11.7656V16.4447H12.247L13.0678 17.2655C13.0939 17.2916 13.1248 17.3123 13.1589 17.3265C13.1931 17.3406 13.2296 17.3479 13.2665 17.3479C13.3034 17.3479 13.34 17.3406 13.3741 17.3265C13.4082 17.3123 13.4392 17.2916 13.4653 17.2655C13.575 17.1558 13.575 16.9777 13.4653 16.8675L12.562 15.9642C12.5093 15.9115 12.4378 15.8819 12.3632 15.8817H10.5492L8.65544 7.70579L14.7168 6.30189C14.7528 6.29356 14.7868 6.27823 14.8169 6.25676C14.8469 6.23529 14.8725 6.2081 14.892 6.17676C14.9116 6.14541 14.9247 6.11052 14.9308 6.07408C14.9369 6.03764 14.9357 6.00037 14.9273 5.96439C14.0831 2.32079 10.4311 0.0422001 6.787 0.886888C3.14247 1.73111 0.864811 5.38267 1.70903 9.02673C1.72599 9.09939 1.77097 9.16241 1.83419 9.20204C1.87919 9.23017 1.93075 9.2447 1.98325 9.2447C2.00434 9.2447 2.0259 9.24236 2.04653 9.2372L8.10794 7.83329L9.97262 15.8822H6.81137L5.92309 13.6256C5.77262 13.2436 5.48106 12.9422 5.10278 12.7777C4.72403 12.6131 4.30497 12.6052 3.92294 12.7556C3.13169 13.0674 2.74122 13.9645 3.05294 14.7558L5.30715 20.4811C5.482 20.9245 5.83637 21.2358 6.27372 21.3516L5.10278 22.8361C5.0799 22.8651 5.06295 22.8984 5.05292 22.9339C5.04289 22.9695 5.03997 23.0067 5.04433 23.0434C5.04868 23.0801 5.06022 23.1156 5.07829 23.1478C5.09637 23.18 5.12062 23.2084 5.14965 23.2313C5.19913 23.2705 5.26042 23.2918 5.32356 23.2917C5.40653 23.2917 5.48903 23.2552 5.54434 23.1849L6.95059 21.4022H11.2518L11.639 23.0742C11.6534 23.1361 11.6882 23.1913 11.7379 23.2309C11.7876 23.2705 11.8492 23.2921 11.9128 23.2922C11.9339 23.2922 11.955 23.2899 11.9765 23.2847C12.0125 23.2764 12.0465 23.261 12.0766 23.2396C12.1066 23.2181 12.1322 23.1909 12.1517 23.1596C12.1713 23.1282 12.1844 23.0933 12.1905 23.0569C12.1965 23.0205 12.1954 22.9832 12.187 22.9472L11.8289 21.4022H20.5593L21.9656 23.1849C21.9919 23.2182 22.0254 23.2452 22.0637 23.2637C22.1019 23.2822 22.1439 23.2918 22.1864 23.2917C22.2473 23.2917 22.3087 23.272 22.3603 23.2313C22.4826 23.1352 22.5032 22.958 22.4072 22.8361ZM9.18465 2.69861C9.95856 3.67454 10.5918 5.04798 10.9823 6.5897L8.5284 7.15829L7.19575 1.40486C7.8159 1.41001 8.52465 1.86658 9.18465 2.69861ZM14.3095 5.81908L11.5303 6.46267C11.1206 4.84033 10.4493 3.38814 9.62528 2.34892C9.25965 1.88767 8.87903 1.52861 8.49606 1.27595C11.1642 1.35329 13.5661 3.15658 14.3095 5.81908ZM5.42294 1.98845C5.18997 2.38361 5.00622 2.87345 4.88059 3.44861C4.59747 4.74423 4.63309 6.34408 4.97856 7.98095L2.19934 8.62501C1.69637 5.90626 3.06044 3.23064 5.42294 1.98845ZM5.52653 7.85392C5.19934 6.29767 5.16419 4.78548 5.42997 3.56861C5.65684 2.53126 6.09278 1.80939 6.64731 1.53189L7.97997 7.28579L5.52653 7.85392ZM11.2031 16.4447V18.3169H11.1136L10.68 16.4447H11.2031ZM10.102 16.4447L10.5356 18.3169H7.76903L7.03169 16.4447H10.102ZM5.82934 20.2749L3.57512 14.5495C3.37731 14.047 3.62528 13.4766 4.12778 13.2788C4.24544 13.2324 4.36637 13.2108 4.48544 13.2108C4.87637 13.2108 5.24669 13.4466 5.39856 13.8319L7.31575 18.7013C7.35794 18.8086 7.462 18.8794 7.57731 18.8794H20.8504C21.3909 18.8794 21.8301 19.3191 21.8301 19.8591C21.8301 20.3995 21.3904 20.8392 20.8504 20.8392H6.65809C6.28403 20.8392 5.96622 20.6231 5.82934 20.2749Z" fill="black"/>
</svg>
