<svg width="24" height="24" viewBox="0 0 24 24" fill="none" xmlns="http://www.w3.org/2000/svg">
<path d="M12.0001 8.25C13.0351 8.25 13.8751 7.41 13.8751 6.375C13.8751 5.34 13.0351 4.5 12.0001 4.5C10.9651 4.5 10.1251 5.34 10.1251 6.375C10.1251 7.41 10.9651 8.25 12.0001 8.25ZM12.0001 5.25C12.6188 5.25 13.1251 5.75625 13.1251 6.375C13.1251 6.99375 12.6188 7.5 12.0001 7.5C11.3813 7.5 10.8751 6.99375 10.8751 6.375C10.8751 5.75625 11.3813 5.25 12.0001 5.25ZM19.2713 17.2162C19.3463 17.1825 19.4138 17.1263 19.4551 17.0513C19.5188 16.9275 19.5113 16.7812 19.4363 16.665L17.2163 13.335L16.3201 10.3425C16.1588 9.80625 15.8138 9.3375 15.3451 9.02625C14.9476 8.76 14.4826 8.62125 14.0063 8.62125H9.99009C9.51009 8.62125 9.04884 8.76 8.65134 9.02625C8.18634 9.3375 7.83759 9.8025 7.67634 10.3425L6.78009 13.335L4.56009 16.665C4.48509 16.7812 4.47759 16.9275 4.54134 17.0513C4.58259 17.1263 4.64634 17.1825 4.72509 17.2162C4.58259 17.445 4.49634 17.7113 4.49634 18C4.49634 18.8287 5.16759 19.5 5.99634 19.5H17.9963C18.8251 19.5 19.4963 18.8287 19.4963 18C19.4963 17.7113 19.4101 17.445 19.2676 17.2162H19.2713ZM7.43634 13.71C7.45884 13.68 7.47384 13.6463 7.48509 13.6088L8.40009 10.5638C8.51259 10.1925 8.74884 9.87 9.07134 9.65625C9.34509 9.4725 9.66384 9.375 9.99384 9.375H14.0101C14.3401 9.375 14.6588 9.4725 14.9326 9.65625C15.2551 9.87 15.4913 10.1925 15.6038 10.5638L16.5188 13.6088C16.5301 13.6463 16.5451 13.68 16.5676 13.71L18.4276 16.5037H18.2176C17.7338 16.5037 17.2763 16.2675 16.9988 15.8775L15.7126 14.0775L14.6063 11.1225C14.5426 10.9538 14.3663 10.8525 14.1901 10.8863C14.0101 10.92 13.8826 11.0738 13.8826 11.2537V15.3787C13.8826 15.585 14.0513 15.7537 14.2576 15.7537C14.4638 15.7537 14.6326 15.585 14.6326 15.3787V13.32L15.0301 14.385C15.0413 14.415 15.0563 14.445 15.0751 14.4713L16.3876 16.3125C16.4363 16.38 16.4888 16.4437 16.5451 16.5037H7.46634C7.52259 16.4437 7.57509 16.38 7.62384 16.3125L8.93634 14.4713C8.95509 14.445 8.97009 14.415 8.98134 14.385L9.37884 13.32V15.3787C9.37884 15.585 9.54759 15.7537 9.75384 15.7537C9.96009 15.7537 10.1288 15.585 10.1288 15.3787V11.2537C10.1288 11.0738 9.99759 10.9163 9.82134 10.8863C9.64509 10.8525 9.46884 10.9538 9.40509 11.1225L8.29884 14.0775L7.01259 15.8775C6.73134 16.2712 6.27384 16.5037 5.79384 16.5037H5.58384L7.44384 13.71H7.43634ZM18.0001 18.7537H6.00009C5.58759 18.7537 5.25009 18.4162 5.25009 18.0037C5.25009 17.5912 5.58759 17.2537 6.00009 17.2537H18.0001C18.4126 17.2537 18.7501 17.5912 18.7501 18.0037C18.7501 18.4162 18.4126 18.7537 18.0001 18.7537Z" fill="black"/>
</svg>
