<svg width="24" height="24" viewBox="0 0 24 24" fill="none" xmlns="http://www.w3.org/2000/svg">
<g clip-path="url(#clip0_266_2636)">
<path d="M21.6873 0H2.31277C1.03748 0 0 1.03748 0 2.31277V17.7021C0 17.9426 0.194953 18.1376 0.435516 18.1376C0.676078 18.1376 0.871031 17.9426 0.871031 17.7021V2.31277C0.871031 1.51777 1.51786 0.871031 2.31277 0.871031H21.6873C22.4822 0.871031 23.129 1.51777 23.129 2.31277V21.6873C23.129 22.4823 22.4822 23.129 21.6873 23.129H2.31277C1.51781 23.129 0.871031 22.4823 0.871031 21.6873V19.2061C0.871031 18.9656 0.676078 18.7706 0.435516 18.7706C0.194953 18.7706 0 18.9656 0 19.2061V21.6873C0 22.9625 1.03748 24 2.31277 24H21.6873C22.9625 24 24 22.9625 24 21.6872V2.31277C24 1.03748 22.9625 0 21.6873 0Z" fill="black"/>
<path d="M21.158 2.4063H18.0163C17.7757 2.4063 17.5808 2.6013 17.5808 2.84181C17.5808 3.08233 17.7757 3.27733 18.0163 3.27733H20.7226V20.7224H3.27748V3.27728H16.5122C16.7527 3.27728 16.9477 3.08228 16.9477 2.84177C16.9477 2.60125 16.7527 2.40625 16.5122 2.40625H2.84201C2.60145 2.40625 2.40649 2.60125 2.40649 2.84177V21.1578C2.40649 21.3984 2.60145 21.5934 2.84201 21.5934H21.1581C21.3987 21.5934 21.5936 21.3984 21.5936 21.1578V2.84181C21.5936 2.6013 21.3986 2.4063 21.158 2.4063Z" fill="black"/>
<path d="M12.3637 4.73633H8.63107C8.39051 4.73633 8.19556 4.93133 8.19556 5.17184V14.8746C8.19556 15.1151 8.39051 15.3101 8.63107 15.3101C8.87163 15.3101 9.06659 15.1151 9.06659 14.8746V5.60731H12.3637C14.8075 5.60731 16.7956 7.59547 16.7956 10.0392C16.7956 12.4829 14.8075 14.4711 12.3637 14.4711H11.6577C11.4171 14.4711 11.2222 14.6661 11.2222 14.9066V18.3931H9.06659V16.3787C9.06659 16.1382 8.87159 15.9432 8.63107 15.9432C8.39051 15.9432 8.19556 16.1382 8.19556 16.3787V18.8286C8.19556 19.0692 8.39051 19.2642 8.63107 19.2642H11.6577C11.8983 19.2642 12.0932 19.0692 12.0932 18.8286V15.3421H12.3637C15.2877 15.3421 17.6666 12.9633 17.6666 10.0392C17.6666 7.11523 15.2877 4.73633 12.3637 4.73633Z" fill="black"/>
<path d="M12.215 7.39453H11.6566C11.416 7.39453 11.2211 7.58953 11.2211 7.83005V12.2497C11.2211 12.4903 11.416 12.6853 11.6566 12.6853H12.215C13.6736 12.6853 14.8604 11.4985 14.8604 10.0399C14.8604 8.58127 13.6736 7.39453 12.215 7.39453ZM12.215 11.8142H12.0921V8.26552H12.215C13.1934 8.26552 13.9894 9.0615 13.9894 10.0399C13.9894 11.0182 13.1934 11.8142 12.215 11.8142Z" fill="black"/>
</g>
<defs>
<clipPath id="clip0_266_2636">
<rect width="24" height="24" fill="white"/>
</clipPath>
</defs>
</svg>
