<svg width="24" height="24" viewBox="0 0 24 24" fill="none" xmlns="http://www.w3.org/2000/svg">
<g clip-path="url(#clip0_266_2537)">
<path d="M17.4198 5.67773H14.5055C14.2917 5.67773 14.1184 5.851 14.1184 6.06483C14.1184 6.27866 14.2917 6.45193 14.5055 6.45193H17.4198C19.6671 6.45193 21.4953 8.28021 21.4953 10.5275V17.5995H11.4308V10.5275C11.4308 8.82029 10.544 7.31639 9.20694 6.45193H11.4087C11.6225 6.45193 11.7958 6.27866 11.7958 6.06483C11.7958 5.851 11.6225 5.67773 11.4087 5.67773H6.58108C3.90691 5.67773 1.73132 7.85332 1.73132 10.5275V17.9866C1.73132 18.2005 1.90464 18.3737 2.11842 18.3737H10.6567V23.6132C10.6567 23.8271 10.83 24.0003 11.0438 24.0003C11.2576 24.0003 11.4309 23.8271 11.4309 23.6132V18.3737H12.57V23.6132C12.57 23.8271 12.7434 24.0003 12.9571 24.0003C13.1709 24.0003 13.3442 23.8271 13.3442 23.6132V18.3737H21.8825C22.0963 18.3737 22.2696 18.2005 22.2696 17.9866V10.5275C22.2695 7.85332 20.094 5.67773 17.4198 5.67773ZM2.50552 10.5275C2.50552 8.28021 4.3338 6.45193 6.58108 6.45193C8.82836 6.45193 10.6566 8.28021 10.6566 10.5275V17.5995H2.50552V10.5275Z" fill="black"/>
<path d="M12.9572 14.6439C13.1709 14.6439 13.3443 14.4706 13.3443 14.2568V3.76774H16.8382C17.3078 3.76774 17.6898 3.3857 17.6898 2.91613V0.851613C17.6898 0.382039 17.3078 0 16.8382 0H12.9572C12.7434 0 12.5701 0.173265 12.5701 0.387097V14.2568C12.5701 14.4706 12.7434 14.6439 12.9572 14.6439ZM16.9156 0.851613V2.91613C16.9156 2.95881 16.8808 2.99355 16.8381 2.99355H13.3442V0.774194H16.8381C16.8809 0.774194 16.9156 0.808929 16.9156 0.851613Z" fill="black"/>
<path d="M6.58107 8.25781C6.36729 8.25781 6.19397 8.43108 6.19397 8.64491V9.83201C6.19397 10.0458 6.36729 10.2191 6.58107 10.2191C6.79485 10.2191 6.96816 10.0458 6.96816 9.83201V8.64491C6.96816 8.43108 6.79485 8.25781 6.58107 8.25781Z" fill="black"/>
</g>
<defs>
<clipPath id="clip0_266_2537">
<rect width="24" height="24" fill="white"/>
</clipPath>
</defs>
</svg>
