<svg width="24" height="24" viewBox="0 0 24 24" fill="none" xmlns="http://www.w3.org/2000/svg">
<path d="M7.60752 18.6886L3.4393 23.0984C2.89311 23.6469 2.5288 23.8358 1.92333 23.2516L1.07132 22.4045C0.694763 22.0191 0.242846 21.6101 0.693315 21.0298C0.821968 20.8641 1.00915 20.7292 1.16718 20.592L5.91107 16.5267C6.1079 16.3642 6.31344 16.2068 6.49204 16.0241C7.44463 15.0492 6.8316 13.6627 6.26488 12.6569C6.20057 12.5427 6.13246 12.4327 6.0553 12.3267C5.69976 11.8386 5.7013 11.5103 5.75202 10.9308C5.84666 9.84903 6.34049 8.46176 6.83587 7.49581C8.42048 4.40583 11.8934 1.83702 15.4124 1.80273C16.8173 1.81867 17.9834 2.06318 19.2505 2.72968C22.0417 4.19797 23.6818 7.52998 23.4984 10.6377C23.4044 12.2293 22.8569 13.8111 22.1191 15.2106C22.8526 15.5307 23.3728 16.3817 23.5107 17.1421C23.6269 17.7836 23.4146 18.5414 23.047 19.0693C21.7224 20.9717 18.6963 20.3713 18.2994 18.0644C18.2428 18.0557 17.779 18.3192 17.6857 18.3634L16.8048 18.7327C15.833 19.0995 14.7163 19.2165 13.6844 19.1515C12.8689 19.1001 12.7072 18.9536 12.0295 18.5577L11.0896 18.0627C9.55143 17.3328 8.74668 17.4262 7.60752 18.6886ZM15.2896 2.52242C12.8381 2.67392 10.5891 3.89644 8.96615 5.72689L7.9648 7.0168L16.8567 16.0036L17.6076 16.7597C17.7672 16.9202 17.9227 17.0922 18.1009 17.2321L18.1963 17.2985C18.3799 16.5289 18.7709 15.6959 19.4674 15.2645C19.948 14.9668 20.6351 14.73 21.2078 14.871L21.4251 14.9318C22.2232 13.4669 22.7661 11.8583 22.7651 10.1795L22.7589 9.66467C22.6525 7.86791 21.8932 6.03955 20.6588 4.73084C19.2919 3.28169 17.2852 2.42807 15.2896 2.52242ZM7.56323 7.67914L7.29955 8.2798L16.8458 17.9389L17.0881 17.8138L17.4804 17.6257C17.3052 17.4895 17.1502 17.3345 16.9922 17.1792L7.56323 7.67914ZM6.9891 9.0223C6.72487 9.76798 6.51215 10.5084 6.47418 11.3035C6.45604 11.6828 6.48848 11.6787 6.74812 11.9595L8.67444 13.8596L12.8409 18.1067C12.9395 18.2019 13.0389 18.2954 13.1718 18.3391C13.73 18.5226 14.863 18.4318 15.4361 18.3401L16.065 18.1913L6.9891 9.0223ZM7.54616 13.6831C7.65107 14.0193 7.70929 14.3127 7.71552 14.6623C7.73812 15.9362 7.23623 16.4026 6.30998 17.1642L1.24796 21.497C1.32936 21.6113 1.43256 21.7117 1.52872 21.8137L2.41518 22.7115C2.46812 22.7645 2.52848 22.8349 2.59575 22.8685C2.75181 22.7759 2.88532 22.6118 3.01198 22.4828L3.67837 21.7893L7.01629 18.2324C8.25552 16.8545 9.26685 16.5611 10.9477 17.2033C10.7551 17.0373 10.5876 16.8395 10.4115 16.6562L8.41804 14.6381C8.11588 14.3309 7.79638 14.0352 7.54616 13.6831ZM20.6791 15.5908C20.395 15.6257 20.0548 15.7149 19.8179 15.879C20.8655 15.9996 21.6886 16.3325 22.4224 17.0825C22.567 17.2315 22.7074 17.3854 22.8259 17.5565C22.7894 17.3258 22.7534 17.0979 22.6717 16.8777C22.3821 16.0972 21.5136 15.5186 20.6796 15.5906L20.6791 15.5908ZM19.2969 16.5867L19.2566 16.6001C19.2531 16.6426 19.2881 16.7009 19.3066 16.7393C19.8249 17.8156 21.2951 18.6169 22.4824 18.5904L22.5234 18.5866C22.5389 18.5561 22.5183 18.5079 22.5071 18.4751C22.0953 17.2605 20.5227 16.5064 19.2969 16.5867ZM18.9196 17.4739C18.9419 17.6547 18.9606 17.8348 19.0064 18.0117C19.3104 19.184 20.5189 19.7588 21.645 19.325L21.776 19.2673C21.6791 19.2251 21.5576 19.2078 21.4546 19.1819L21.0163 19.0535C20.1771 18.7726 19.3789 18.245 18.9196 17.4739Z" fill="black"/>
<path d="M21.1767 10.7318C20.781 10.8164 20.723 10.5051 20.7215 10.2237L20.7116 9.7386C20.5836 7.6393 19.3763 5.73327 17.4843 4.77997C17.0875 4.57995 16.6781 4.43497 16.2598 4.28935C16.1241 4.24212 15.9423 4.17106 15.8795 4.03122C15.7823 3.8149 15.9251 3.60737 16.1271 3.53042C16.3543 3.51751 16.5806 3.61878 16.7901 3.69678L17.591 4.02413C20.0381 5.1374 21.4365 7.46788 21.4478 10.1478C21.449 10.4227 21.4879 10.6316 21.1767 10.7318Z" fill="black"/>
</svg>
